<?xml version="1.0" encoding="utf-8" standalone="no"?>
<!DOCTYPE svg PUBLIC "-//W3C//DTD SVG 1.1//EN"
  "http://www.w3.org/Graphics/SVG/1.1/DTD/svg11.dtd">
<svg xmlns:xlink="http://www.w3.org/1999/xlink" width="596.032969pt" height="184.375125pt" viewBox="0 0 596.032969 184.375125" xmlns="http://www.w3.org/2000/svg" version="1.1">
 <metadata>
  <rdf:RDF xmlns:dc="http://purl.org/dc/elements/1.1/" xmlns:cc="http://creativecommons.org/ns#" xmlns:rdf="http://www.w3.org/1999/02/22-rdf-syntax-ns#">
   <cc:Work>
    <dc:type rdf:resource="http://purl.org/dc/dcmitype/StillImage"/>
    <dc:date>2025-12-01T20:20:18.165944</dc:date>
    <dc:format>image/svg+xml</dc:format>
    <dc:creator>
     <cc:Agent>
      <dc:title>Matplotlib v3.10.7, https://matplotlib.org/</dc:title>
     </cc:Agent>
    </dc:creator>
   </cc:Work>
  </rdf:RDF>
 </metadata>
 <defs>
  <style type="text/css">*{stroke-linejoin: round; stroke-linecap: butt}</style>
 </defs>
 <g id="figure_1">
  <g id="patch_1">
   <path d="M 0 184.375125 
L 596.032969 184.375125 
L 596.032969 0 
L 0 0 
z
" style="fill: #ffffff"/>
  </g>
  <g id="axes_1">
   <g id="patch_2">
    <path d="M 23.94 122.843925 
L 107.64 122.843925 
L 107.64 76.274325 
L 23.94 76.274325 
z
" clip-path="url(#p058dc052fe)" style="fill: #2b8cbe; opacity: 0.9; stroke: #1a1a1a; stroke-linejoin: miter"/>
   </g>
   <g id="patch_3">
    <path d="M 124.38 122.843925 
L 208.08 122.843925 
L 208.08 76.274325 
L 124.38 76.274325 
z
" clip-path="url(#p058dc052fe)" style="fill: #2b8cbe; opacity: 0.9; stroke: #1a1a1a; stroke-linejoin: miter"/>
   </g>
   <g id="patch_4">
    <path d="M 224.82 122.843925 
L 308.52 122.843925 
L 308.52 76.274325 
L 224.82 76.274325 
z
" clip-path="url(#p058dc052fe)" style="fill: #2b8cbe; opacity: 0.9; stroke: #1a1a1a; stroke-linejoin: miter"/>
   </g>
   <g id="patch_5">
    <path d="M 325.26 122.843925 
L 408.96 122.843925 
L 408.96 76.274325 
L 325.26 76.274325 
z
" clip-path="url(#p058dc052fe)" style="fill: #2b8cbe; opacity: 0.9; stroke: #1a1a1a; stroke-linejoin: miter"/>
   </g>
   <g id="patch_6">
    <path d="M 425.7 122.843925 
L 509.4 122.843925 
L 509.4 76.274325 
L 425.7 76.274325 
z
" clip-path="url(#p058dc052fe)" style="fill: #2b8cbe; opacity: 0.9; stroke: #1a1a1a; stroke-linejoin: miter"/>
   </g>
   <g id="patch_7">
    <path d="M 526.14 122.843925 
L 609.84 122.843925 
L 609.84 76.274325 
L 526.14 76.274325 
z
" clip-path="url(#p058dc052fe)" style="fill: #2b8cbe; opacity: 0.9; stroke: #1a1a1a; stroke-linejoin: miter"/>
   </g>
   <g id="text_1">
    <!-- News APIs -->
    <g style="fill: #ffffff" transform="translate(40.411875 102.151312) scale(0.1 -0.1)">
     <defs>
      <path id="Arial-BoldMT-4e" d="M 475 0 
L 475 4581 
L 1375 4581 
L 3250 1522 
L 3250 4581 
L 4109 4581 
L 4109 0 
L 3181 0 
L 1334 2988 
L 1334 0 
L 475 0 
z
" transform="scale(0.015625)"/>
      <path id="Arial-BoldMT-65" d="M 2381 1056 
L 3256 909 
Q 3088 428 2723 176 
Q 2359 -75 1813 -75 
Q 947 -75 531 491 
Q 203 944 203 1634 
Q 203 2459 634 2926 
Q 1066 3394 1725 3394 
Q 2466 3394 2894 2905 
Q 3322 2416 3303 1406 
L 1103 1406 
Q 1113 1016 1316 798 
Q 1519 581 1822 581 
Q 2028 581 2168 693 
Q 2309 806 2381 1056 
z
M 2431 1944 
Q 2422 2325 2234 2523 
Q 2047 2722 1778 2722 
Q 1491 2722 1303 2513 
Q 1116 2303 1119 1944 
L 2431 1944 
z
" transform="scale(0.015625)"/>
      <path id="Arial-BoldMT-77" d="M 1078 0 
L 28 3319 
L 881 3319 
L 1503 1144 
L 2075 3319 
L 2922 3319 
L 3475 1144 
L 4109 3319 
L 4975 3319 
L 3909 0 
L 3066 0 
L 2494 2134 
L 1931 0 
L 1078 0 
z
" transform="scale(0.015625)"/>
      <path id="Arial-BoldMT-73" d="M 150 947 
L 1031 1081 
Q 1088 825 1259 692 
Q 1431 559 1741 559 
Q 2081 559 2253 684 
Q 2369 772 2369 919 
Q 2369 1019 2306 1084 
Q 2241 1147 2013 1200 
Q 950 1434 666 1628 
Q 272 1897 272 2375 
Q 272 2806 612 3100 
Q 953 3394 1669 3394 
Q 2350 3394 2681 3172 
Q 3013 2950 3138 2516 
L 2309 2363 
Q 2256 2556 2107 2659 
Q 1959 2763 1684 2763 
Q 1338 2763 1188 2666 
Q 1088 2597 1088 2488 
Q 1088 2394 1175 2328 
Q 1294 2241 1995 2081 
Q 2697 1922 2975 1691 
Q 3250 1456 3250 1038 
Q 3250 581 2869 253 
Q 2488 -75 1741 -75 
Q 1063 -75 667 200 
Q 272 475 150 947 
z
" transform="scale(0.015625)"/>
      <path id="Arial-BoldMT-20" transform="scale(0.015625)"/>
      <path id="Arial-BoldMT-41" d="M 4597 0 
L 3591 0 
L 3191 1041 
L 1359 1041 
L 981 0 
L 0 0 
L 1784 4581 
L 2763 4581 
L 4597 0 
z
M 2894 1813 
L 2263 3513 
L 1644 1813 
L 2894 1813 
z
" transform="scale(0.015625)"/>
      <path id="Arial-BoldMT-50" d="M 466 0 
L 466 4581 
L 1950 4581 
Q 2794 4581 3050 4513 
Q 3444 4409 3709 4064 
Q 3975 3719 3975 3172 
Q 3975 2750 3822 2462 
Q 3669 2175 3433 2011 
Q 3197 1847 2953 1794 
Q 2622 1728 1994 1728 
L 1391 1728 
L 1391 0 
L 466 0 
z
M 1391 3806 
L 1391 2506 
L 1897 2506 
Q 2444 2506 2628 2578 
Q 2813 2650 2917 2803 
Q 3022 2956 3022 3159 
Q 3022 3409 2875 3571 
Q 2728 3734 2503 3775 
Q 2338 3806 1838 3806 
L 1391 3806 
z
" transform="scale(0.015625)"/>
      <path id="Arial-BoldMT-49" d="M 438 0 
L 438 4581 
L 1363 4581 
L 1363 0 
L 438 0 
z
" transform="scale(0.015625)"/>
     </defs>
     <use xlink:href="#Arial-BoldMT-4e"/>
     <use xlink:href="#Arial-BoldMT-65" transform="translate(72.216797 0)"/>
     <use xlink:href="#Arial-BoldMT-77" transform="translate(127.832031 0)"/>
     <use xlink:href="#Arial-BoldMT-73" transform="translate(205.615234 0)"/>
     <use xlink:href="#Arial-BoldMT-20" transform="translate(261.230469 0)"/>
     <use xlink:href="#Arial-BoldMT-41" transform="translate(285.263672 0)"/>
     <use xlink:href="#Arial-BoldMT-50" transform="translate(357.480469 0)"/>
     <use xlink:href="#Arial-BoldMT-49" transform="translate(424.179688 0)"/>
     <use xlink:href="#Arial-BoldMT-73" transform="translate(451.962891 0)"/>
    </g>
   </g>
   <g id="patch_8">
    <path d="M 25.938075 99.559125 
Q 67.184873 99.559125 106.642817 99.559125 
" style="fill: none; stroke: #ffffff; stroke-width: 1.6; stroke-linecap: round"/>
    <path d="M 101.842817 97.159125 
L 106.642817 99.559125 
L 101.842817 101.959125 
" style="fill: none; stroke: #ffffff; stroke-width: 1.6; stroke-linecap: round"/>
   </g>
   <g id="text_2">
    <!-- NLP models -->
    <g style="fill: #ffffff" transform="translate(137.424531 102.151312) scale(0.1 -0.1)">
     <defs>
      <path id="Arial-BoldMT-4c" d="M 491 0 
L 491 4544 
L 1416 4544 
L 1416 772 
L 3716 772 
L 3716 0 
L 491 0 
z
" transform="scale(0.015625)"/>
      <path id="Arial-BoldMT-6d" d="M 394 3319 
L 1203 3319 
L 1203 2866 
Q 1638 3394 2238 3394 
Q 2556 3394 2790 3262 
Q 3025 3131 3175 2866 
Q 3394 3131 3647 3262 
Q 3900 3394 4188 3394 
Q 4553 3394 4806 3245 
Q 5059 3097 5184 2809 
Q 5275 2597 5275 2122 
L 5275 0 
L 4397 0 
L 4397 1897 
Q 4397 2391 4306 2534 
Q 4184 2722 3931 2722 
Q 3747 2722 3584 2609 
Q 3422 2497 3350 2280 
Q 3278 2063 3278 1594 
L 3278 0 
L 2400 0 
L 2400 1819 
Q 2400 2303 2353 2443 
Q 2306 2584 2207 2653 
Q 2109 2722 1941 2722 
Q 1738 2722 1575 2612 
Q 1413 2503 1342 2297 
Q 1272 2091 1272 1613 
L 1272 0 
L 394 0 
L 394 3319 
z
" transform="scale(0.015625)"/>
      <path id="Arial-BoldMT-6f" d="M 256 1706 
Q 256 2144 472 2553 
Q 688 2963 1083 3178 
Q 1478 3394 1966 3394 
Q 2719 3394 3200 2905 
Q 3681 2416 3681 1669 
Q 3681 916 3195 420 
Q 2709 -75 1972 -75 
Q 1516 -75 1102 131 
Q 688 338 472 736 
Q 256 1134 256 1706 
z
M 1156 1659 
Q 1156 1166 1390 903 
Q 1625 641 1969 641 
Q 2313 641 2545 903 
Q 2778 1166 2778 1666 
Q 2778 2153 2545 2415 
Q 2313 2678 1969 2678 
Q 1625 2678 1390 2415 
Q 1156 2153 1156 1659 
z
" transform="scale(0.015625)"/>
      <path id="Arial-BoldMT-64" d="M 3503 0 
L 2688 0 
L 2688 488 
Q 2484 203 2207 64 
Q 1931 -75 1650 -75 
Q 1078 -75 670 386 
Q 263 847 263 1672 
Q 263 2516 659 2955 
Q 1056 3394 1663 3394 
Q 2219 3394 2625 2931 
L 2625 4581 
L 3503 4581 
L 3503 0 
z
M 1159 1731 
Q 1159 1200 1306 963 
Q 1519 619 1900 619 
Q 2203 619 2415 876 
Q 2628 1134 2628 1647 
Q 2628 2219 2422 2470 
Q 2216 2722 1894 2722 
Q 1581 2722 1370 2473 
Q 1159 2225 1159 1731 
z
" transform="scale(0.015625)"/>
      <path id="Arial-BoldMT-6c" d="M 459 0 
L 459 4581 
L 1338 4581 
L 1338 0 
L 459 0 
z
" transform="scale(0.015625)"/>
     </defs>
     <use xlink:href="#Arial-BoldMT-4e"/>
     <use xlink:href="#Arial-BoldMT-4c" transform="translate(72.216797 0)"/>
     <use xlink:href="#Arial-BoldMT-50" transform="translate(133.300781 0)"/>
     <use xlink:href="#Arial-BoldMT-20" transform="translate(198.25 0)"/>
     <use xlink:href="#Arial-BoldMT-6d" transform="translate(226.033203 0)"/>
     <use xlink:href="#Arial-BoldMT-6f" transform="translate(314.949219 0)"/>
     <use xlink:href="#Arial-BoldMT-64" transform="translate(376.033203 0)"/>
     <use xlink:href="#Arial-BoldMT-65" transform="translate(437.117188 0)"/>
     <use xlink:href="#Arial-BoldMT-6c" transform="translate(492.732422 0)"/>
     <use xlink:href="#Arial-BoldMT-73" transform="translate(520.515625 0)"/>
    </g>
   </g>
   <g id="patch_9">
    <path d="M 126.378075 99.559125 
Q 167.624873 99.559125 207.082817 99.559125 
" style="fill: none; stroke: #ffffff; stroke-width: 1.6; stroke-linecap: round"/>
    <path d="M 202.282817 97.159125 
L 207.082817 99.559125 
L 202.282817 101.959125 
" style="fill: none; stroke: #ffffff; stroke-width: 1.6; stroke-linecap: round"/>
   </g>
   <g id="text_3">
    <!-- Feature Engineering -->
    <g style="fill: #ffffff" transform="translate(218.330938 102.085687) scale(0.1 -0.1)">
     <defs>
      <path id="Arial-BoldMT-46" d="M 472 0 
L 472 4581 
L 3613 4581 
L 3613 3806 
L 1397 3806 
L 1397 2722 
L 3309 2722 
L 3309 1947 
L 1397 1947 
L 1397 0 
L 472 0 
z
" transform="scale(0.015625)"/>
      <path id="Arial-BoldMT-61" d="M 1116 2306 
L 319 2450 
Q 453 2931 781 3162 
Q 1109 3394 1756 3394 
Q 2344 3394 2631 3255 
Q 2919 3116 3036 2902 
Q 3153 2688 3153 2116 
L 3144 1091 
Q 3144 653 3186 445 
Q 3228 238 3344 0 
L 2475 0 
Q 2441 88 2391 259 
Q 2369 338 2359 363 
Q 2134 144 1878 34 
Q 1622 -75 1331 -75 
Q 819 -75 523 203 
Q 228 481 228 906 
Q 228 1188 362 1408 
Q 497 1628 739 1745 
Q 981 1863 1438 1950 
Q 2053 2066 2291 2166 
L 2291 2253 
Q 2291 2506 2166 2614 
Q 2041 2722 1694 2722 
Q 1459 2722 1328 2630 
Q 1197 2538 1116 2306 
z
M 2291 1594 
Q 2122 1538 1756 1459 
Q 1391 1381 1278 1306 
Q 1106 1184 1106 997 
Q 1106 813 1243 678 
Q 1381 544 1594 544 
Q 1831 544 2047 700 
Q 2206 819 2256 991 
Q 2291 1103 2291 1419 
L 2291 1594 
z
" transform="scale(0.015625)"/>
      <path id="Arial-BoldMT-74" d="M 1981 3319 
L 1981 2619 
L 1381 2619 
L 1381 1281 
Q 1381 875 1398 808 
Q 1416 741 1477 697 
Q 1538 653 1625 653 
Q 1747 653 1978 738 
L 2053 56 
Q 1747 -75 1359 -75 
Q 1122 -75 931 4 
Q 741 84 652 211 
Q 563 338 528 553 
Q 500 706 500 1172 
L 500 2619 
L 97 2619 
L 97 3319 
L 500 3319 
L 500 3978 
L 1381 4491 
L 1381 3319 
L 1981 3319 
z
" transform="scale(0.015625)"/>
      <path id="Arial-BoldMT-75" d="M 2644 0 
L 2644 497 
Q 2463 231 2167 78 
Q 1872 -75 1544 -75 
Q 1209 -75 943 72 
Q 678 219 559 484 
Q 441 750 441 1219 
L 441 3319 
L 1319 3319 
L 1319 1794 
Q 1319 1094 1367 936 
Q 1416 778 1544 686 
Q 1672 594 1869 594 
Q 2094 594 2272 717 
Q 2450 841 2515 1023 
Q 2581 1206 2581 1919 
L 2581 3319 
L 3459 3319 
L 3459 0 
L 2644 0 
z
" transform="scale(0.015625)"/>
      <path id="Arial-BoldMT-72" d="M 1300 0 
L 422 0 
L 422 3319 
L 1238 3319 
L 1238 2847 
Q 1447 3181 1614 3287 
Q 1781 3394 1994 3394 
Q 2294 3394 2572 3228 
L 2300 2463 
Q 2078 2606 1888 2606 
Q 1703 2606 1575 2504 
Q 1447 2403 1373 2137 
Q 1300 1872 1300 1025 
L 1300 0 
z
" transform="scale(0.015625)"/>
      <path id="Arial-BoldMT-45" d="M 466 0 
L 466 4581 
L 3863 4581 
L 3863 3806 
L 1391 3806 
L 1391 2791 
L 3691 2791 
L 3691 2019 
L 1391 2019 
L 1391 772 
L 3950 772 
L 3950 0 
L 466 0 
z
" transform="scale(0.015625)"/>
      <path id="Arial-BoldMT-6e" d="M 3478 0 
L 2600 0 
L 2600 1694 
Q 2600 2231 2544 2389 
Q 2488 2547 2361 2634 
Q 2234 2722 2056 2722 
Q 1828 2722 1647 2597 
Q 1466 2472 1398 2265 
Q 1331 2059 1331 1503 
L 1331 0 
L 453 0 
L 453 3319 
L 1269 3319 
L 1269 2831 
Q 1703 3394 2363 3394 
Q 2653 3394 2893 3289 
Q 3134 3184 3257 3021 
Q 3381 2859 3429 2653 
Q 3478 2447 3478 2063 
L 3478 0 
z
" transform="scale(0.015625)"/>
      <path id="Arial-BoldMT-67" d="M 378 -219 
L 1381 -341 
Q 1406 -516 1497 -581 
Q 1622 -675 1891 -675 
Q 2234 -675 2406 -572 
Q 2522 -503 2581 -350 
Q 2622 -241 2622 53 
L 2622 538 
Q 2228 0 1628 0 
Q 959 0 569 566 
Q 263 1013 263 1678 
Q 263 2513 664 2953 
Q 1066 3394 1663 3394 
Q 2278 3394 2678 2853 
L 2678 3319 
L 3500 3319 
L 3500 341 
Q 3500 -247 3403 -537 
Q 3306 -828 3131 -993 
Q 2956 -1159 2664 -1253 
Q 2372 -1347 1925 -1347 
Q 1081 -1347 728 -1058 
Q 375 -769 375 -325 
Q 375 -281 378 -219 
z
M 1163 1728 
Q 1163 1200 1367 954 
Q 1572 709 1872 709 
Q 2194 709 2416 961 
Q 2638 1213 2638 1706 
Q 2638 2222 2425 2472 
Q 2213 2722 1888 2722 
Q 1572 2722 1367 2476 
Q 1163 2231 1163 1728 
z
" transform="scale(0.015625)"/>
      <path id="Arial-BoldMT-69" d="M 459 3769 
L 459 4581 
L 1338 4581 
L 1338 3769 
L 459 3769 
z
M 459 0 
L 459 3319 
L 1338 3319 
L 1338 0 
L 459 0 
z
" transform="scale(0.015625)"/>
     </defs>
     <use xlink:href="#Arial-BoldMT-46"/>
     <use xlink:href="#Arial-BoldMT-65" transform="translate(61.083984 0)"/>
     <use xlink:href="#Arial-BoldMT-61" transform="translate(116.699219 0)"/>
     <use xlink:href="#Arial-BoldMT-74" transform="translate(172.314453 0)"/>
     <use xlink:href="#Arial-BoldMT-75" transform="translate(205.615234 0)"/>
     <use xlink:href="#Arial-BoldMT-72" transform="translate(266.699219 0)"/>
     <use xlink:href="#Arial-BoldMT-65" transform="translate(305.615234 0)"/>
     <use xlink:href="#Arial-BoldMT-20" transform="translate(361.230469 0)"/>
     <use xlink:href="#Arial-BoldMT-45" transform="translate(389.013672 0)"/>
     <use xlink:href="#Arial-BoldMT-6e" transform="translate(455.712891 0)"/>
     <use xlink:href="#Arial-BoldMT-67" transform="translate(516.796875 0)"/>
     <use xlink:href="#Arial-BoldMT-69" transform="translate(577.880859 0)"/>
     <use xlink:href="#Arial-BoldMT-6e" transform="translate(605.664062 0)"/>
     <use xlink:href="#Arial-BoldMT-65" transform="translate(666.748047 0)"/>
     <use xlink:href="#Arial-BoldMT-65" transform="translate(722.363281 0)"/>
     <use xlink:href="#Arial-BoldMT-72" transform="translate(777.978516 0)"/>
     <use xlink:href="#Arial-BoldMT-69" transform="translate(816.894531 0)"/>
     <use xlink:href="#Arial-BoldMT-6e" transform="translate(844.677734 0)"/>
     <use xlink:href="#Arial-BoldMT-67" transform="translate(905.761719 0)"/>
    </g>
   </g>
   <g id="patch_10">
    <path d="M 226.818075 99.559125 
Q 268.064873 99.559125 307.522817 99.559125 
" style="fill: none; stroke: #ffffff; stroke-width: 1.6; stroke-linecap: round"/>
    <path d="M 302.722817 97.159125 
L 307.522817 99.559125 
L 302.722817 101.959125 
" style="fill: none; stroke: #ffffff; stroke-width: 1.6; stroke-linecap: round"/>
   </g>
   <g id="text_4">
    <!-- CatBoost -->
    <g style="fill: #ffffff" transform="translate(344.889688 102.151312) scale(0.1 -0.1)">
     <defs>
      <path id="Arial-BoldMT-43" d="M 3397 1684 
L 4294 1400 
Q 4088 650 3608 286 
Q 3128 -78 2391 -78 
Q 1478 -78 890 545 
Q 303 1169 303 2250 
Q 303 3394 893 4026 
Q 1484 4659 2447 4659 
Q 3288 4659 3813 4163 
Q 4125 3869 4281 3319 
L 3366 3100 
Q 3284 3456 3026 3662 
Q 2769 3869 2400 3869 
Q 1891 3869 1573 3503 
Q 1256 3138 1256 2319 
Q 1256 1450 1568 1081 
Q 1881 713 2381 713 
Q 2750 713 3015 947 
Q 3281 1181 3397 1684 
z
" transform="scale(0.015625)"/>
      <path id="Arial-BoldMT-42" d="M 469 4581 
L 2300 4581 
Q 2844 4581 3111 4536 
Q 3378 4491 3589 4347 
Q 3800 4203 3940 3964 
Q 4081 3725 4081 3428 
Q 4081 3106 3907 2837 
Q 3734 2569 3438 2434 
Q 3856 2313 4081 2019 
Q 4306 1725 4306 1328 
Q 4306 1016 4161 720 
Q 4016 425 3764 248 
Q 3513 72 3144 31 
Q 2913 6 2028 0 
L 469 0 
L 469 4581 
z
M 1394 3819 
L 1394 2759 
L 2000 2759 
Q 2541 2759 2672 2775 
Q 2909 2803 3045 2939 
Q 3181 3075 3181 3297 
Q 3181 3509 3064 3642 
Q 2947 3775 2716 3803 
Q 2578 3819 1925 3819 
L 1394 3819 
z
M 1394 1997 
L 1394 772 
L 2250 772 
Q 2750 772 2884 800 
Q 3091 838 3220 983 
Q 3350 1128 3350 1372 
Q 3350 1578 3250 1722 
Q 3150 1866 2961 1931 
Q 2772 1997 2141 1997 
L 1394 1997 
z
" transform="scale(0.015625)"/>
     </defs>
     <use xlink:href="#Arial-BoldMT-43"/>
     <use xlink:href="#Arial-BoldMT-61" transform="translate(72.216797 0)"/>
     <use xlink:href="#Arial-BoldMT-74" transform="translate(127.832031 0)"/>
     <use xlink:href="#Arial-BoldMT-42" transform="translate(161.132812 0)"/>
     <use xlink:href="#Arial-BoldMT-6f" transform="translate(233.349609 0)"/>
     <use xlink:href="#Arial-BoldMT-6f" transform="translate(294.433594 0)"/>
     <use xlink:href="#Arial-BoldMT-73" transform="translate(355.517578 0)"/>
     <use xlink:href="#Arial-BoldMT-74" transform="translate(411.132812 0)"/>
    </g>
   </g>
   <g id="patch_11">
    <path d="M 327.258075 99.559125 
Q 368.504873 99.559125 407.962817 99.559125 
" style="fill: none; stroke: #ffffff; stroke-width: 1.6; stroke-linecap: round"/>
    <path d="M 403.162817 97.159125 
L 407.962817 99.559125 
L 403.162817 101.959125 
" style="fill: none; stroke: #ffffff; stroke-width: 1.6; stroke-linecap: round"/>
   </g>
   <g id="text_5">
    <!-- Predictions -->
    <g style="fill: #ffffff" transform="translate(440.322656 102.151312) scale(0.1 -0.1)">
     <defs>
      <path id="Arial-BoldMT-63" d="M 3353 2338 
L 2488 2181 
Q 2444 2441 2289 2572 
Q 2134 2703 1888 2703 
Q 1559 2703 1364 2476 
Q 1169 2250 1169 1719 
Q 1169 1128 1367 884 
Q 1566 641 1900 641 
Q 2150 641 2309 783 
Q 2469 925 2534 1272 
L 3397 1125 
Q 3263 531 2881 228 
Q 2500 -75 1859 -75 
Q 1131 -75 698 384 
Q 266 844 266 1656 
Q 266 2478 700 2936 
Q 1134 3394 1875 3394 
Q 2481 3394 2839 3133 
Q 3197 2872 3353 2338 
z
" transform="scale(0.015625)"/>
     </defs>
     <use xlink:href="#Arial-BoldMT-50"/>
     <use xlink:href="#Arial-BoldMT-72" transform="translate(66.699219 0)"/>
     <use xlink:href="#Arial-BoldMT-65" transform="translate(105.615234 0)"/>
     <use xlink:href="#Arial-BoldMT-64" transform="translate(161.230469 0)"/>
     <use xlink:href="#Arial-BoldMT-69" transform="translate(222.314453 0)"/>
     <use xlink:href="#Arial-BoldMT-63" transform="translate(250.097656 0)"/>
     <use xlink:href="#Arial-BoldMT-74" transform="translate(305.712891 0)"/>
     <use xlink:href="#Arial-BoldMT-69" transform="translate(339.013672 0)"/>
     <use xlink:href="#Arial-BoldMT-6f" transform="translate(366.796875 0)"/>
     <use xlink:href="#Arial-BoldMT-6e" transform="translate(427.880859 0)"/>
     <use xlink:href="#Arial-BoldMT-73" transform="translate(488.964844 0)"/>
    </g>
   </g>
   <g id="patch_12">
    <path d="M 427.698075 99.559125 
Q 468.944873 99.559125 508.402817 99.559125 
" style="fill: none; stroke: #ffffff; stroke-width: 1.6; stroke-linecap: round"/>
    <path d="M 503.602817 97.159125 
L 508.402817 99.559125 
L 503.602817 101.959125 
" style="fill: none; stroke: #ffffff; stroke-width: 1.6; stroke-linecap: round"/>
   </g>
   <g id="text_6">
    <!-- Backtest -->
    <g style="fill: #ffffff" transform="translate(547.147031 102.151312) scale(0.1 -0.1)">
     <defs>
      <path id="Arial-BoldMT-6b" d="M 428 0 
L 428 4581 
L 1306 4581 
L 1306 2150 
L 2334 3319 
L 3416 3319 
L 2281 2106 
L 3497 0 
L 2550 0 
L 1716 1491 
L 1306 1063 
L 1306 0 
L 428 0 
z
" transform="scale(0.015625)"/>
     </defs>
     <use xlink:href="#Arial-BoldMT-42"/>
     <use xlink:href="#Arial-BoldMT-61" transform="translate(72.216797 0)"/>
     <use xlink:href="#Arial-BoldMT-63" transform="translate(127.832031 0)"/>
     <use xlink:href="#Arial-BoldMT-6b" transform="translate(183.447266 0)"/>
     <use xlink:href="#Arial-BoldMT-74" transform="translate(239.0625 0)"/>
     <use xlink:href="#Arial-BoldMT-65" transform="translate(272.363281 0)"/>
     <use xlink:href="#Arial-BoldMT-73" transform="translate(327.978516 0)"/>
     <use xlink:href="#Arial-BoldMT-74" transform="translate(383.59375 0)"/>
    </g>
   </g>
   <g id="text_7">
    <!-- Figure 2 — Overall Pipeline -->
    <g style="fill: #262626" transform="translate(212.83875 15.943125) scale(0.12 -0.12)">
     <defs>
      <path id="ArialMT-46" d="M 525 0 
L 525 4581 
L 3616 4581 
L 3616 4041 
L 1131 4041 
L 1131 2622 
L 3281 2622 
L 3281 2081 
L 1131 2081 
L 1131 0 
L 525 0 
z
" transform="scale(0.015625)"/>
      <path id="ArialMT-69" d="M 425 3934 
L 425 4581 
L 988 4581 
L 988 3934 
L 425 3934 
z
M 425 0 
L 425 3319 
L 988 3319 
L 988 0 
L 425 0 
z
" transform="scale(0.015625)"/>
      <path id="ArialMT-67" d="M 319 -275 
L 866 -356 
Q 900 -609 1056 -725 
Q 1266 -881 1628 -881 
Q 2019 -881 2231 -725 
Q 2444 -569 2519 -288 
Q 2563 -116 2559 434 
Q 2191 0 1641 0 
Q 956 0 581 494 
Q 206 988 206 1678 
Q 206 2153 378 2554 
Q 550 2956 876 3175 
Q 1203 3394 1644 3394 
Q 2231 3394 2613 2919 
L 2613 3319 
L 3131 3319 
L 3131 450 
Q 3131 -325 2973 -648 
Q 2816 -972 2473 -1159 
Q 2131 -1347 1631 -1347 
Q 1038 -1347 672 -1080 
Q 306 -813 319 -275 
z
M 784 1719 
Q 784 1066 1043 766 
Q 1303 466 1694 466 
Q 2081 466 2343 764 
Q 2606 1063 2606 1700 
Q 2606 2309 2336 2618 
Q 2066 2928 1684 2928 
Q 1309 2928 1046 2623 
Q 784 2319 784 1719 
z
" transform="scale(0.015625)"/>
      <path id="ArialMT-75" d="M 2597 0 
L 2597 488 
Q 2209 -75 1544 -75 
Q 1250 -75 995 37 
Q 741 150 617 320 
Q 494 491 444 738 
Q 409 903 409 1263 
L 409 3319 
L 972 3319 
L 972 1478 
Q 972 1038 1006 884 
Q 1059 663 1231 536 
Q 1403 409 1656 409 
Q 1909 409 2131 539 
Q 2353 669 2445 892 
Q 2538 1116 2538 1541 
L 2538 3319 
L 3100 3319 
L 3100 0 
L 2597 0 
z
" transform="scale(0.015625)"/>
      <path id="ArialMT-72" d="M 416 0 
L 416 3319 
L 922 3319 
L 922 2816 
Q 1116 3169 1280 3281 
Q 1444 3394 1641 3394 
Q 1925 3394 2219 3213 
L 2025 2691 
Q 1819 2813 1613 2813 
Q 1428 2813 1281 2702 
Q 1134 2591 1072 2394 
Q 978 2094 978 1738 
L 978 0 
L 416 0 
z
" transform="scale(0.015625)"/>
      <path id="ArialMT-65" d="M 2694 1069 
L 3275 997 
Q 3138 488 2766 206 
Q 2394 -75 1816 -75 
Q 1088 -75 661 373 
Q 234 822 234 1631 
Q 234 2469 665 2931 
Q 1097 3394 1784 3394 
Q 2450 3394 2872 2941 
Q 3294 2488 3294 1666 
Q 3294 1616 3291 1516 
L 816 1516 
Q 847 969 1125 678 
Q 1403 388 1819 388 
Q 2128 388 2347 550 
Q 2566 713 2694 1069 
z
M 847 1978 
L 2700 1978 
Q 2663 2397 2488 2606 
Q 2219 2931 1791 2931 
Q 1403 2931 1139 2672 
Q 875 2413 847 1978 
z
" transform="scale(0.015625)"/>
      <path id="ArialMT-20" transform="scale(0.015625)"/>
      <path id="ArialMT-32" d="M 3222 541 
L 3222 0 
L 194 0 
Q 188 203 259 391 
Q 375 700 629 1000 
Q 884 1300 1366 1694 
Q 2113 2306 2375 2664 
Q 2638 3022 2638 3341 
Q 2638 3675 2398 3904 
Q 2159 4134 1775 4134 
Q 1369 4134 1125 3890 
Q 881 3647 878 3216 
L 300 3275 
Q 359 3922 746 4261 
Q 1134 4600 1788 4600 
Q 2447 4600 2831 4234 
Q 3216 3869 3216 3328 
Q 3216 3053 3103 2787 
Q 2991 2522 2730 2228 
Q 2469 1934 1863 1422 
Q 1356 997 1212 845 
Q 1069 694 975 541 
L 3222 541 
z
" transform="scale(0.015625)"/>
      <path id="ArialMT-2014" d="M 0 1431 
L 0 1884 
L 6400 1884 
L 6400 1431 
L 0 1431 
z
" transform="scale(0.015625)"/>
      <path id="ArialMT-4f" d="M 309 2231 
Q 309 3372 921 4017 
Q 1534 4663 2503 4663 
Q 3138 4663 3647 4359 
Q 4156 4056 4423 3514 
Q 4691 2972 4691 2284 
Q 4691 1588 4409 1038 
Q 4128 488 3612 205 
Q 3097 -78 2500 -78 
Q 1853 -78 1343 234 
Q 834 547 571 1087 
Q 309 1628 309 2231 
z
M 934 2222 
Q 934 1394 1379 917 
Q 1825 441 2497 441 
Q 3181 441 3623 922 
Q 4066 1403 4066 2288 
Q 4066 2847 3877 3264 
Q 3688 3681 3323 3911 
Q 2959 4141 2506 4141 
Q 1863 4141 1398 3698 
Q 934 3256 934 2222 
z
" transform="scale(0.015625)"/>
      <path id="ArialMT-76" d="M 1344 0 
L 81 3319 
L 675 3319 
L 1388 1331 
Q 1503 1009 1600 663 
Q 1675 925 1809 1294 
L 2547 3319 
L 3125 3319 
L 1869 0 
L 1344 0 
z
" transform="scale(0.015625)"/>
      <path id="ArialMT-61" d="M 2588 409 
Q 2275 144 1986 34 
Q 1697 -75 1366 -75 
Q 819 -75 525 192 
Q 231 459 231 875 
Q 231 1119 342 1320 
Q 453 1522 633 1644 
Q 813 1766 1038 1828 
Q 1203 1872 1538 1913 
Q 2219 1994 2541 2106 
Q 2544 2222 2544 2253 
Q 2544 2597 2384 2738 
Q 2169 2928 1744 2928 
Q 1347 2928 1158 2789 
Q 969 2650 878 2297 
L 328 2372 
Q 403 2725 575 2942 
Q 747 3159 1072 3276 
Q 1397 3394 1825 3394 
Q 2250 3394 2515 3294 
Q 2781 3194 2906 3042 
Q 3031 2891 3081 2659 
Q 3109 2516 3109 2141 
L 3109 1391 
Q 3109 606 3145 398 
Q 3181 191 3288 0 
L 2700 0 
Q 2613 175 2588 409 
z
M 2541 1666 
Q 2234 1541 1622 1453 
Q 1275 1403 1131 1340 
Q 988 1278 909 1158 
Q 831 1038 831 891 
Q 831 666 1001 516 
Q 1172 366 1500 366 
Q 1825 366 2078 508 
Q 2331 650 2450 897 
Q 2541 1088 2541 1459 
L 2541 1666 
z
" transform="scale(0.015625)"/>
      <path id="ArialMT-6c" d="M 409 0 
L 409 4581 
L 972 4581 
L 972 0 
L 409 0 
z
" transform="scale(0.015625)"/>
      <path id="ArialMT-50" d="M 494 0 
L 494 4581 
L 2222 4581 
Q 2678 4581 2919 4538 
Q 3256 4481 3484 4323 
Q 3713 4166 3852 3881 
Q 3991 3597 3991 3256 
Q 3991 2672 3619 2267 
Q 3247 1863 2275 1863 
L 1100 1863 
L 1100 0 
L 494 0 
z
M 1100 2403 
L 2284 2403 
Q 2872 2403 3119 2622 
Q 3366 2841 3366 3238 
Q 3366 3525 3220 3729 
Q 3075 3934 2838 4000 
Q 2684 4041 2272 4041 
L 1100 4041 
L 1100 2403 
z
" transform="scale(0.015625)"/>
      <path id="ArialMT-70" d="M 422 -1272 
L 422 3319 
L 934 3319 
L 934 2888 
Q 1116 3141 1344 3267 
Q 1572 3394 1897 3394 
Q 2322 3394 2647 3175 
Q 2972 2956 3137 2557 
Q 3303 2159 3303 1684 
Q 3303 1175 3120 767 
Q 2938 359 2589 142 
Q 2241 -75 1856 -75 
Q 1575 -75 1351 44 
Q 1128 163 984 344 
L 984 -1272 
L 422 -1272 
z
M 931 1641 
Q 931 1000 1190 694 
Q 1450 388 1819 388 
Q 2194 388 2461 705 
Q 2728 1022 2728 1688 
Q 2728 2322 2467 2637 
Q 2206 2953 1844 2953 
Q 1484 2953 1207 2617 
Q 931 2281 931 1641 
z
" transform="scale(0.015625)"/>
      <path id="ArialMT-6e" d="M 422 0 
L 422 3319 
L 928 3319 
L 928 2847 
Q 1294 3394 1984 3394 
Q 2284 3394 2536 3286 
Q 2788 3178 2913 3003 
Q 3038 2828 3088 2588 
Q 3119 2431 3119 2041 
L 3119 0 
L 2556 0 
L 2556 2019 
Q 2556 2363 2490 2533 
Q 2425 2703 2258 2804 
Q 2091 2906 1866 2906 
Q 1506 2906 1245 2678 
Q 984 2450 984 1813 
L 984 0 
L 422 0 
z
" transform="scale(0.015625)"/>
     </defs>
     <use xlink:href="#ArialMT-46"/>
     <use xlink:href="#ArialMT-69" transform="translate(61.083984 0)"/>
     <use xlink:href="#ArialMT-67" transform="translate(83.300781 0)"/>
     <use xlink:href="#ArialMT-75" transform="translate(138.916016 0)"/>
     <use xlink:href="#ArialMT-72" transform="translate(194.53125 0)"/>
     <use xlink:href="#ArialMT-65" transform="translate(227.832031 0)"/>
     <use xlink:href="#ArialMT-20" transform="translate(283.447266 0)"/>
     <use xlink:href="#ArialMT-32" transform="translate(311.230469 0)"/>
     <use xlink:href="#ArialMT-20" transform="translate(366.845703 0)"/>
     <use xlink:href="#ArialMT-2014" transform="translate(394.628906 0)"/>
     <use xlink:href="#ArialMT-20" transform="translate(494.628906 0)"/>
     <use xlink:href="#ArialMT-4f" transform="translate(522.412109 0)"/>
     <use xlink:href="#ArialMT-76" transform="translate(600.195312 0)"/>
     <use xlink:href="#ArialMT-65" transform="translate(650.195312 0)"/>
     <use xlink:href="#ArialMT-72" transform="translate(705.810547 0)"/>
     <use xlink:href="#ArialMT-61" transform="translate(739.111328 0)"/>
     <use xlink:href="#ArialMT-6c" transform="translate(794.726562 0)"/>
     <use xlink:href="#ArialMT-6c" transform="translate(816.943359 0)"/>
     <use xlink:href="#ArialMT-20" transform="translate(839.160156 0)"/>
     <use xlink:href="#ArialMT-50" transform="translate(866.943359 0)"/>
     <use xlink:href="#ArialMT-69" transform="translate(933.642578 0)"/>
     <use xlink:href="#ArialMT-70" transform="translate(955.859375 0)"/>
     <use xlink:href="#ArialMT-65" transform="translate(1011.474609 0)"/>
     <use xlink:href="#ArialMT-6c" transform="translate(1067.089844 0)"/>
     <use xlink:href="#ArialMT-69" transform="translate(1089.306641 0)"/>
     <use xlink:href="#ArialMT-6e" transform="translate(1111.523438 0)"/>
     <use xlink:href="#ArialMT-65" transform="translate(1167.138672 0)"/>
    </g>
   </g>
  </g>
 </g>
 <defs>
  <clipPath id="p058dc052fe">
   <rect x="7.2" y="21.943125" width="558" height="155.232"/>
  </clipPath>
 </defs>
</svg>
