<?xml version="1.0" encoding="utf-8" standalone="no"?>
<!DOCTYPE svg PUBLIC "-//W3C//DTD SVG 1.1//EN"
  "http://www.w3.org/Graphics/SVG/1.1/DTD/svg11.dtd">
<svg xmlns:xlink="http://www.w3.org/1999/xlink" width="572.4pt" height="184.367625pt" viewBox="0 0 572.4 184.367625" xmlns="http://www.w3.org/2000/svg" version="1.1">
 <metadata>
  <rdf:RDF xmlns:dc="http://purl.org/dc/elements/1.1/" xmlns:cc="http://creativecommons.org/ns#" xmlns:rdf="http://www.w3.org/1999/02/22-rdf-syntax-ns#">
   <cc:Work>
    <dc:type rdf:resource="http://purl.org/dc/dcmitype/StillImage"/>
    <dc:date>2025-12-02T14:12:47.198019</dc:date>
    <dc:format>image/svg+xml</dc:format>
    <dc:creator>
     <cc:Agent>
      <dc:title>Matplotlib v3.10.7, https://matplotlib.org/</dc:title>
     </cc:Agent>
    </dc:creator>
   </cc:Work>
  </rdf:RDF>
 </metadata>
 <defs>
  <style type="text/css">*{stroke-linejoin: round; stroke-linecap: butt}</style>
 </defs>
 <g id="figure_1">
  <g id="patch_1">
   <path d="M 0 184.367625 
L 572.4 184.367625 
L 572.4 0 
L 0 0 
z
" style="fill: #ffffff"/>
  </g>
  <g id="axes_1">
   <g id="patch_2">
    <path d="M 18.36 125.941065 
L 102.06 125.941065 
Q 113.22 125.941065 113.22 122.836425 
L 113.22 60.743625 
Q 113.22 57.638985 102.06 57.638985 
L 18.36 57.638985 
Q 7.2 57.638985 7.2 60.743625 
L 7.2 122.836425 
Q 7.2 125.941065 18.36 125.941065 
z
" clip-path="url(#p176e003b7f)" style="fill: #4c72b0; opacity: 0.95; stroke: #1a1a1a; stroke-linejoin: miter"/>
   </g>
   <g id="patch_3">
    <path d="M 113.22 125.941065 
L 196.92 125.941065 
Q 208.08 125.941065 208.08 122.836425 
L 208.08 60.743625 
Q 208.08 57.638985 196.92 57.638985 
L 113.22 57.638985 
Q 102.06 57.638985 102.06 60.743625 
L 102.06 122.836425 
Q 102.06 125.941065 113.22 125.941065 
z
" clip-path="url(#p176e003b7f)" style="fill: #dd8452; opacity: 0.95; stroke: #1a1a1a; stroke-linejoin: miter"/>
   </g>
   <g id="patch_4">
    <path d="M 208.08 125.941065 
L 291.78 125.941065 
Q 302.94 125.941065 302.94 122.836425 
L 302.94 60.743625 
Q 302.94 57.638985 291.78 57.638985 
L 208.08 57.638985 
Q 196.92 57.638985 196.92 60.743625 
L 196.92 122.836425 
Q 196.92 125.941065 208.08 125.941065 
z
" clip-path="url(#p176e003b7f)" style="fill: #4c72b0; opacity: 0.95; stroke: #1a1a1a; stroke-linejoin: miter"/>
   </g>
   <g id="patch_5">
    <path d="M 302.94 125.941065 
L 386.64 125.941065 
Q 397.8 125.941065 397.8 122.836425 
L 397.8 60.743625 
Q 397.8 57.638985 386.64 57.638985 
L 302.94 57.638985 
Q 291.78 57.638985 291.78 60.743625 
L 291.78 122.836425 
Q 291.78 125.941065 302.94 125.941065 
z
" clip-path="url(#p176e003b7f)" style="fill: #dd8452; opacity: 0.95; stroke: #1a1a1a; stroke-linejoin: miter"/>
   </g>
   <g id="patch_6">
    <path d="M 397.8 125.941065 
L 481.5 125.941065 
Q 492.66 125.941065 492.66 122.836425 
L 492.66 60.743625 
Q 492.66 57.638985 481.5 57.638985 
L 397.8 57.638985 
Q 386.64 57.638985 386.64 60.743625 
L 386.64 122.836425 
Q 386.64 125.941065 397.8 125.941065 
z
" clip-path="url(#p176e003b7f)" style="fill: #4c72b0; opacity: 0.95; stroke: #1a1a1a; stroke-linejoin: miter"/>
   </g>
   <g id="patch_7">
    <path d="M 492.66 125.941065 
L 576.36 125.941065 
Q 587.52 125.941065 587.52 122.836425 
L 587.52 60.743625 
Q 587.52 57.638985 576.36 57.638985 
L 492.66 57.638985 
Q 481.5 57.638985 481.5 60.743625 
L 481.5 122.836425 
Q 481.5 125.941065 492.66 125.941065 
z
" clip-path="url(#p176e003b7f)" style="fill: #dd8452; opacity: 0.95; stroke: #1a1a1a; stroke-linejoin: miter"/>
   </g>
   <g id="line2d_1">
    <path d="M 199.71 146.121225 
L 199.71 52.982025 
" clip-path="url(#p176e003b7f)" style="fill: none; stroke-dasharray: 3.7,1.6; stroke-dashoffset: 0; stroke: #808080"/>
   </g>
   <g id="line2d_2">
    <path d="M 389.43 146.121225 
L 389.43 52.982025 
" clip-path="url(#p176e003b7f)" style="fill: none; stroke-dasharray: 3.7,1.6; stroke-dashoffset: 0; stroke: #808080"/>
   </g>
   <g id="line2d_3">
    <path clip-path="url(#p176e003b7f)" style="fill: none; stroke-dasharray: 3.7,1.6; stroke-dashoffset: 0; stroke: #808080"/>
   </g>
   <g id="text_1">
    <!-- Train -->
    <g style="fill: #ffffff" transform="translate(45.871875 94.90065) scale(0.12 -0.12)">
     <defs>
      <path id="Arial-BoldMT-54" d="M 1497 0 
L 1497 3806 
L 138 3806 
L 138 4581 
L 3778 4581 
L 3778 3806 
L 2422 3806 
L 2422 0 
L 1497 0 
z
" transform="scale(0.015625)"/>
      <path id="Arial-BoldMT-72" d="M 1300 0 
L 422 0 
L 422 3319 
L 1238 3319 
L 1238 2847 
Q 1447 3181 1614 3287 
Q 1781 3394 1994 3394 
Q 2294 3394 2572 3228 
L 2300 2463 
Q 2078 2606 1888 2606 
Q 1703 2606 1575 2504 
Q 1447 2403 1373 2137 
Q 1300 1872 1300 1025 
L 1300 0 
z
" transform="scale(0.015625)"/>
      <path id="Arial-BoldMT-61" d="M 1116 2306 
L 319 2450 
Q 453 2931 781 3162 
Q 1109 3394 1756 3394 
Q 2344 3394 2631 3255 
Q 2919 3116 3036 2902 
Q 3153 2688 3153 2116 
L 3144 1091 
Q 3144 653 3186 445 
Q 3228 238 3344 0 
L 2475 0 
Q 2441 88 2391 259 
Q 2369 338 2359 363 
Q 2134 144 1878 34 
Q 1622 -75 1331 -75 
Q 819 -75 523 203 
Q 228 481 228 906 
Q 228 1188 362 1408 
Q 497 1628 739 1745 
Q 981 1863 1438 1950 
Q 2053 2066 2291 2166 
L 2291 2253 
Q 2291 2506 2166 2614 
Q 2041 2722 1694 2722 
Q 1459 2722 1328 2630 
Q 1197 2538 1116 2306 
z
M 2291 1594 
Q 2122 1538 1756 1459 
Q 1391 1381 1278 1306 
Q 1106 1184 1106 997 
Q 1106 813 1243 678 
Q 1381 544 1594 544 
Q 1831 544 2047 700 
Q 2206 819 2256 991 
Q 2291 1103 2291 1419 
L 2291 1594 
z
" transform="scale(0.015625)"/>
      <path id="Arial-BoldMT-69" d="M 459 3769 
L 459 4581 
L 1338 4581 
L 1338 3769 
L 459 3769 
z
M 459 0 
L 459 3319 
L 1338 3319 
L 1338 0 
L 459 0 
z
" transform="scale(0.015625)"/>
      <path id="Arial-BoldMT-6e" d="M 3478 0 
L 2600 0 
L 2600 1694 
Q 2600 2231 2544 2389 
Q 2488 2547 2361 2634 
Q 2234 2722 2056 2722 
Q 1828 2722 1647 2597 
Q 1466 2472 1398 2265 
Q 1331 2059 1331 1503 
L 1331 0 
L 453 0 
L 453 3319 
L 1269 3319 
L 1269 2831 
Q 1703 3394 2363 3394 
Q 2653 3394 2893 3289 
Q 3134 3184 3257 3021 
Q 3381 2859 3429 2653 
Q 3478 2447 3478 2063 
L 3478 0 
z
" transform="scale(0.015625)"/>
     </defs>
     <use xlink:href="#Arial-BoldMT-54"/>
     <use xlink:href="#Arial-BoldMT-72" transform="translate(55.583984 0)"/>
     <use xlink:href="#Arial-BoldMT-61" transform="translate(94.5 0)"/>
     <use xlink:href="#Arial-BoldMT-69" transform="translate(150.115234 0)"/>
     <use xlink:href="#Arial-BoldMT-6e" transform="translate(177.898438 0)"/>
    </g>
   </g>
   <g id="text_2">
    <!-- Test -->
    <g style="fill: #ffffff" transform="translate(143.176875 94.90065) scale(0.12 -0.12)">
     <defs>
      <path id="Arial-BoldMT-65" d="M 2381 1056 
L 3256 909 
Q 3088 428 2723 176 
Q 2359 -75 1813 -75 
Q 947 -75 531 491 
Q 203 944 203 1634 
Q 203 2459 634 2926 
Q 1066 3394 1725 3394 
Q 2466 3394 2894 2905 
Q 3322 2416 3303 1406 
L 1103 1406 
Q 1113 1016 1316 798 
Q 1519 581 1822 581 
Q 2028 581 2168 693 
Q 2309 806 2381 1056 
z
M 2431 1944 
Q 2422 2325 2234 2523 
Q 2047 2722 1778 2722 
Q 1491 2722 1303 2513 
Q 1116 2303 1119 1944 
L 2431 1944 
z
" transform="scale(0.015625)"/>
      <path id="Arial-BoldMT-73" d="M 150 947 
L 1031 1081 
Q 1088 825 1259 692 
Q 1431 559 1741 559 
Q 2081 559 2253 684 
Q 2369 772 2369 919 
Q 2369 1019 2306 1084 
Q 2241 1147 2013 1200 
Q 950 1434 666 1628 
Q 272 1897 272 2375 
Q 272 2806 612 3100 
Q 953 3394 1669 3394 
Q 2350 3394 2681 3172 
Q 3013 2950 3138 2516 
L 2309 2363 
Q 2256 2556 2107 2659 
Q 1959 2763 1684 2763 
Q 1338 2763 1188 2666 
Q 1088 2597 1088 2488 
Q 1088 2394 1175 2328 
Q 1294 2241 1995 2081 
Q 2697 1922 2975 1691 
Q 3250 1456 3250 1038 
Q 3250 581 2869 253 
Q 2488 -75 1741 -75 
Q 1063 -75 667 200 
Q 272 475 150 947 
z
" transform="scale(0.015625)"/>
      <path id="Arial-BoldMT-74" d="M 1981 3319 
L 1981 2619 
L 1381 2619 
L 1381 1281 
Q 1381 875 1398 808 
Q 1416 741 1477 697 
Q 1538 653 1625 653 
Q 1747 653 1978 738 
L 2053 56 
Q 1747 -75 1359 -75 
Q 1122 -75 931 4 
Q 741 84 652 211 
Q 563 338 528 553 
Q 500 706 500 1172 
L 500 2619 
L 97 2619 
L 97 3319 
L 500 3319 
L 500 3978 
L 1381 4491 
L 1381 3319 
L 1981 3319 
z
" transform="scale(0.015625)"/>
     </defs>
     <use xlink:href="#Arial-BoldMT-54"/>
     <use xlink:href="#Arial-BoldMT-65" transform="translate(53.708984 0)"/>
     <use xlink:href="#Arial-BoldMT-73" transform="translate(109.324219 0)"/>
     <use xlink:href="#Arial-BoldMT-74" transform="translate(164.939453 0)"/>
    </g>
   </g>
   <g id="text_3">
    <!-- Train -->
    <g style="fill: #ffffff" transform="translate(235.591875 94.90065) scale(0.12 -0.12)">
     <use xlink:href="#Arial-BoldMT-54"/>
     <use xlink:href="#Arial-BoldMT-72" transform="translate(55.583984 0)"/>
     <use xlink:href="#Arial-BoldMT-61" transform="translate(94.5 0)"/>
     <use xlink:href="#Arial-BoldMT-69" transform="translate(150.115234 0)"/>
     <use xlink:href="#Arial-BoldMT-6e" transform="translate(177.898438 0)"/>
    </g>
   </g>
   <g id="text_4">
    <!-- Test -->
    <g style="fill: #ffffff" transform="translate(332.896875 94.90065) scale(0.12 -0.12)">
     <use xlink:href="#Arial-BoldMT-54"/>
     <use xlink:href="#Arial-BoldMT-65" transform="translate(53.708984 0)"/>
     <use xlink:href="#Arial-BoldMT-73" transform="translate(109.324219 0)"/>
     <use xlink:href="#Arial-BoldMT-74" transform="translate(164.939453 0)"/>
    </g>
   </g>
   <g id="text_5">
    <!-- Train -->
    <g style="fill: #ffffff" transform="translate(425.311875 94.90065) scale(0.12 -0.12)">
     <use xlink:href="#Arial-BoldMT-54"/>
     <use xlink:href="#Arial-BoldMT-72" transform="translate(55.583984 0)"/>
     <use xlink:href="#Arial-BoldMT-61" transform="translate(94.5 0)"/>
     <use xlink:href="#Arial-BoldMT-69" transform="translate(150.115234 0)"/>
     <use xlink:href="#Arial-BoldMT-6e" transform="translate(177.898438 0)"/>
    </g>
   </g>
   <g id="text_6">
    <!-- Test -->
    <g style="fill: #ffffff" transform="translate(522.616875 94.90065) scale(0.12 -0.12)">
     <use xlink:href="#Arial-BoldMT-54"/>
     <use xlink:href="#Arial-BoldMT-65" transform="translate(53.708984 0)"/>
     <use xlink:href="#Arial-BoldMT-73" transform="translate(109.324219 0)"/>
     <use xlink:href="#Arial-BoldMT-74" transform="translate(164.939453 0)"/>
    </g>
   </g>
   <g id="text_7">
    <!-- Figure 1 — Walk-Forward Validation (Train → Test → Train → Test) -->
    <g style="fill: #262626" transform="translate(107.935313 15.935625) scale(0.12 -0.12)">
     <defs>
      <path id="ArialMT-46" d="M 525 0 
L 525 4581 
L 3616 4581 
L 3616 4041 
L 1131 4041 
L 1131 2622 
L 3281 2622 
L 3281 2081 
L 1131 2081 
L 1131 0 
L 525 0 
z
" transform="scale(0.015625)"/>
      <path id="ArialMT-69" d="M 425 3934 
L 425 4581 
L 988 4581 
L 988 3934 
L 425 3934 
z
M 425 0 
L 425 3319 
L 988 3319 
L 988 0 
L 425 0 
z
" transform="scale(0.015625)"/>
      <path id="ArialMT-67" d="M 319 -275 
L 866 -356 
Q 900 -609 1056 -725 
Q 1266 -881 1628 -881 
Q 2019 -881 2231 -725 
Q 2444 -569 2519 -288 
Q 2563 -116 2559 434 
Q 2191 0 1641 0 
Q 956 0 581 494 
Q 206 988 206 1678 
Q 206 2153 378 2554 
Q 550 2956 876 3175 
Q 1203 3394 1644 3394 
Q 2231 3394 2613 2919 
L 2613 3319 
L 3131 3319 
L 3131 450 
Q 3131 -325 2973 -648 
Q 2816 -972 2473 -1159 
Q 2131 -1347 1631 -1347 
Q 1038 -1347 672 -1080 
Q 306 -813 319 -275 
z
M 784 1719 
Q 784 1066 1043 766 
Q 1303 466 1694 466 
Q 2081 466 2343 764 
Q 2606 1063 2606 1700 
Q 2606 2309 2336 2618 
Q 2066 2928 1684 2928 
Q 1309 2928 1046 2623 
Q 784 2319 784 1719 
z
" transform="scale(0.015625)"/>
      <path id="ArialMT-75" d="M 2597 0 
L 2597 488 
Q 2209 -75 1544 -75 
Q 1250 -75 995 37 
Q 741 150 617 320 
Q 494 491 444 738 
Q 409 903 409 1263 
L 409 3319 
L 972 3319 
L 972 1478 
Q 972 1038 1006 884 
Q 1059 663 1231 536 
Q 1403 409 1656 409 
Q 1909 409 2131 539 
Q 2353 669 2445 892 
Q 2538 1116 2538 1541 
L 2538 3319 
L 3100 3319 
L 3100 0 
L 2597 0 
z
" transform="scale(0.015625)"/>
      <path id="ArialMT-72" d="M 416 0 
L 416 3319 
L 922 3319 
L 922 2816 
Q 1116 3169 1280 3281 
Q 1444 3394 1641 3394 
Q 1925 3394 2219 3213 
L 2025 2691 
Q 1819 2813 1613 2813 
Q 1428 2813 1281 2702 
Q 1134 2591 1072 2394 
Q 978 2094 978 1738 
L 978 0 
L 416 0 
z
" transform="scale(0.015625)"/>
      <path id="ArialMT-65" d="M 2694 1069 
L 3275 997 
Q 3138 488 2766 206 
Q 2394 -75 1816 -75 
Q 1088 -75 661 373 
Q 234 822 234 1631 
Q 234 2469 665 2931 
Q 1097 3394 1784 3394 
Q 2450 3394 2872 2941 
Q 3294 2488 3294 1666 
Q 3294 1616 3291 1516 
L 816 1516 
Q 847 969 1125 678 
Q 1403 388 1819 388 
Q 2128 388 2347 550 
Q 2566 713 2694 1069 
z
M 847 1978 
L 2700 1978 
Q 2663 2397 2488 2606 
Q 2219 2931 1791 2931 
Q 1403 2931 1139 2672 
Q 875 2413 847 1978 
z
" transform="scale(0.015625)"/>
      <path id="ArialMT-20" transform="scale(0.015625)"/>
      <path id="ArialMT-31" d="M 2384 0 
L 1822 0 
L 1822 3584 
Q 1619 3391 1289 3197 
Q 959 3003 697 2906 
L 697 3450 
Q 1169 3672 1522 3987 
Q 1875 4303 2022 4600 
L 2384 4600 
L 2384 0 
z
" transform="scale(0.015625)"/>
      <path id="ArialMT-2014" d="M 0 1431 
L 0 1884 
L 6400 1884 
L 6400 1431 
L 0 1431 
z
" transform="scale(0.015625)"/>
      <path id="ArialMT-57" d="M 1294 0 
L 78 4581 
L 700 4581 
L 1397 1578 
Q 1509 1106 1591 641 
Q 1766 1375 1797 1488 
L 2669 4581 
L 3400 4581 
L 4056 2263 
Q 4303 1400 4413 641 
Q 4500 1075 4641 1638 
L 5359 4581 
L 5969 4581 
L 4713 0 
L 4128 0 
L 3163 3491 
Q 3041 3928 3019 4028 
Q 2947 3713 2884 3491 
L 1913 0 
L 1294 0 
z
" transform="scale(0.015625)"/>
      <path id="ArialMT-61" d="M 2588 409 
Q 2275 144 1986 34 
Q 1697 -75 1366 -75 
Q 819 -75 525 192 
Q 231 459 231 875 
Q 231 1119 342 1320 
Q 453 1522 633 1644 
Q 813 1766 1038 1828 
Q 1203 1872 1538 1913 
Q 2219 1994 2541 2106 
Q 2544 2222 2544 2253 
Q 2544 2597 2384 2738 
Q 2169 2928 1744 2928 
Q 1347 2928 1158 2789 
Q 969 2650 878 2297 
L 328 2372 
Q 403 2725 575 2942 
Q 747 3159 1072 3276 
Q 1397 3394 1825 3394 
Q 2250 3394 2515 3294 
Q 2781 3194 2906 3042 
Q 3031 2891 3081 2659 
Q 3109 2516 3109 2141 
L 3109 1391 
Q 3109 606 3145 398 
Q 3181 191 3288 0 
L 2700 0 
Q 2613 175 2588 409 
z
M 2541 1666 
Q 2234 1541 1622 1453 
Q 1275 1403 1131 1340 
Q 988 1278 909 1158 
Q 831 1038 831 891 
Q 831 666 1001 516 
Q 1172 366 1500 366 
Q 1825 366 2078 508 
Q 2331 650 2450 897 
Q 2541 1088 2541 1459 
L 2541 1666 
z
" transform="scale(0.015625)"/>
      <path id="ArialMT-6c" d="M 409 0 
L 409 4581 
L 972 4581 
L 972 0 
L 409 0 
z
" transform="scale(0.015625)"/>
      <path id="ArialMT-6b" d="M 425 0 
L 425 4581 
L 988 4581 
L 988 1969 
L 2319 3319 
L 3047 3319 
L 1778 2088 
L 3175 0 
L 2481 0 
L 1384 1697 
L 988 1316 
L 988 0 
L 425 0 
z
" transform="scale(0.015625)"/>
      <path id="ArialMT-2d" d="M 203 1375 
L 203 1941 
L 1931 1941 
L 1931 1375 
L 203 1375 
z
" transform="scale(0.015625)"/>
      <path id="ArialMT-6f" d="M 213 1659 
Q 213 2581 725 3025 
Q 1153 3394 1769 3394 
Q 2453 3394 2887 2945 
Q 3322 2497 3322 1706 
Q 3322 1066 3130 698 
Q 2938 331 2570 128 
Q 2203 -75 1769 -75 
Q 1072 -75 642 372 
Q 213 819 213 1659 
z
M 791 1659 
Q 791 1022 1069 705 
Q 1347 388 1769 388 
Q 2188 388 2466 706 
Q 2744 1025 2744 1678 
Q 2744 2294 2464 2611 
Q 2184 2928 1769 2928 
Q 1347 2928 1069 2612 
Q 791 2297 791 1659 
z
" transform="scale(0.015625)"/>
      <path id="ArialMT-77" d="M 1034 0 
L 19 3319 
L 600 3319 
L 1128 1403 
L 1325 691 
Q 1338 744 1497 1375 
L 2025 3319 
L 2603 3319 
L 3100 1394 
L 3266 759 
L 3456 1400 
L 4025 3319 
L 4572 3319 
L 3534 0 
L 2950 0 
L 2422 1988 
L 2294 2553 
L 1622 0 
L 1034 0 
z
" transform="scale(0.015625)"/>
      <path id="ArialMT-64" d="M 2575 0 
L 2575 419 
Q 2259 -75 1647 -75 
Q 1250 -75 917 144 
Q 584 363 401 755 
Q 219 1147 219 1656 
Q 219 2153 384 2558 
Q 550 2963 881 3178 
Q 1213 3394 1622 3394 
Q 1922 3394 2156 3267 
Q 2391 3141 2538 2938 
L 2538 4581 
L 3097 4581 
L 3097 0 
L 2575 0 
z
M 797 1656 
Q 797 1019 1065 703 
Q 1334 388 1700 388 
Q 2069 388 2326 689 
Q 2584 991 2584 1609 
Q 2584 2291 2321 2609 
Q 2059 2928 1675 2928 
Q 1300 2928 1048 2622 
Q 797 2316 797 1656 
z
" transform="scale(0.015625)"/>
      <path id="ArialMT-56" d="M 1803 0 
L 28 4581 
L 684 4581 
L 1875 1253 
Q 2019 853 2116 503 
Q 2222 878 2363 1253 
L 3600 4581 
L 4219 4581 
L 2425 0 
L 1803 0 
z
" transform="scale(0.015625)"/>
      <path id="ArialMT-74" d="M 1650 503 
L 1731 6 
Q 1494 -44 1306 -44 
Q 1000 -44 831 53 
Q 663 150 594 308 
Q 525 466 525 972 
L 525 2881 
L 113 2881 
L 113 3319 
L 525 3319 
L 525 4141 
L 1084 4478 
L 1084 3319 
L 1650 3319 
L 1650 2881 
L 1084 2881 
L 1084 941 
Q 1084 700 1114 631 
Q 1144 563 1211 522 
Q 1278 481 1403 481 
Q 1497 481 1650 503 
z
" transform="scale(0.015625)"/>
      <path id="ArialMT-6e" d="M 422 0 
L 422 3319 
L 928 3319 
L 928 2847 
Q 1294 3394 1984 3394 
Q 2284 3394 2536 3286 
Q 2788 3178 2913 3003 
Q 3038 2828 3088 2588 
Q 3119 2431 3119 2041 
L 3119 0 
L 2556 0 
L 2556 2019 
Q 2556 2363 2490 2533 
Q 2425 2703 2258 2804 
Q 2091 2906 1866 2906 
Q 1506 2906 1245 2678 
Q 984 2450 984 1813 
L 984 0 
L 422 0 
z
" transform="scale(0.015625)"/>
      <path id="ArialMT-28" d="M 1497 -1347 
Q 1031 -759 709 28 
Q 388 816 388 1659 
Q 388 2403 628 3084 
Q 909 3875 1497 4659 
L 1900 4659 
Q 1522 4009 1400 3731 
Q 1209 3300 1100 2831 
Q 966 2247 966 1656 
Q 966 153 1900 -1347 
L 1497 -1347 
z
" transform="scale(0.015625)"/>
      <path id="ArialMT-54" d="M 1659 0 
L 1659 4041 
L 150 4041 
L 150 4581 
L 3781 4581 
L 3781 4041 
L 2266 4041 
L 2266 0 
L 1659 0 
z
" transform="scale(0.015625)"/>
      <path id="ArialMT-2192" d="M 4859 2738 
Q 5275 2284 5578 2048 
Q 5881 1813 6150 1697 
L 6150 1556 
Q 5841 1406 5550 1173 
Q 5259 941 4856 491 
L 4616 491 
Q 4909 1119 5231 1456 
L 247 1456 
L 247 1772 
L 5231 1772 
Q 4994 2075 4900 2222 
Q 4806 2369 4622 2738 
L 4859 2738 
z
" transform="scale(0.015625)"/>
      <path id="ArialMT-73" d="M 197 991 
L 753 1078 
Q 800 744 1014 566 
Q 1228 388 1613 388 
Q 2000 388 2187 545 
Q 2375 703 2375 916 
Q 2375 1106 2209 1216 
Q 2094 1291 1634 1406 
Q 1016 1563 777 1677 
Q 538 1791 414 1992 
Q 291 2194 291 2438 
Q 291 2659 392 2848 
Q 494 3038 669 3163 
Q 800 3259 1026 3326 
Q 1253 3394 1513 3394 
Q 1903 3394 2198 3281 
Q 2494 3169 2634 2976 
Q 2775 2784 2828 2463 
L 2278 2388 
Q 2241 2644 2061 2787 
Q 1881 2931 1553 2931 
Q 1166 2931 1000 2803 
Q 834 2675 834 2503 
Q 834 2394 903 2306 
Q 972 2216 1119 2156 
Q 1203 2125 1616 2013 
Q 2213 1853 2448 1751 
Q 2684 1650 2818 1456 
Q 2953 1263 2953 975 
Q 2953 694 2789 445 
Q 2625 197 2315 61 
Q 2006 -75 1616 -75 
Q 969 -75 630 194 
Q 291 463 197 991 
z
" transform="scale(0.015625)"/>
      <path id="ArialMT-29" d="M 791 -1347 
L 388 -1347 
Q 1322 153 1322 1656 
Q 1322 2244 1188 2822 
Q 1081 3291 891 3722 
Q 769 4003 388 4659 
L 791 4659 
Q 1378 3875 1659 3084 
Q 1900 2403 1900 1659 
Q 1900 816 1576 28 
Q 1253 -759 791 -1347 
z
" transform="scale(0.015625)"/>
     </defs>
     <use xlink:href="#ArialMT-46"/>
     <use xlink:href="#ArialMT-69" transform="translate(61.083984 0)"/>
     <use xlink:href="#ArialMT-67" transform="translate(83.300781 0)"/>
     <use xlink:href="#ArialMT-75" transform="translate(138.916016 0)"/>
     <use xlink:href="#ArialMT-72" transform="translate(194.53125 0)"/>
     <use xlink:href="#ArialMT-65" transform="translate(227.832031 0)"/>
     <use xlink:href="#ArialMT-20" transform="translate(283.447266 0)"/>
     <use xlink:href="#ArialMT-31" transform="translate(311.230469 0)"/>
     <use xlink:href="#ArialMT-20" transform="translate(366.845703 0)"/>
     <use xlink:href="#ArialMT-2014" transform="translate(394.628906 0)"/>
     <use xlink:href="#ArialMT-20" transform="translate(494.628906 0)"/>
     <use xlink:href="#ArialMT-57" transform="translate(522.412109 0)"/>
     <use xlink:href="#ArialMT-61" transform="translate(613.046875 0)"/>
     <use xlink:href="#ArialMT-6c" transform="translate(668.662109 0)"/>
     <use xlink:href="#ArialMT-6b" transform="translate(690.878906 0)"/>
     <use xlink:href="#ArialMT-2d" transform="translate(740.878906 0)"/>
     <use xlink:href="#ArialMT-46" transform="translate(774.179688 0)"/>
     <use xlink:href="#ArialMT-6f" transform="translate(835.263672 0)"/>
     <use xlink:href="#ArialMT-72" transform="translate(890.878906 0)"/>
     <use xlink:href="#ArialMT-77" transform="translate(924.179688 0)"/>
     <use xlink:href="#ArialMT-61" transform="translate(996.396484 0)"/>
     <use xlink:href="#ArialMT-72" transform="translate(1052.011719 0)"/>
     <use xlink:href="#ArialMT-64" transform="translate(1085.3125 0)"/>
     <use xlink:href="#ArialMT-20" transform="translate(1140.927734 0)"/>
     <use xlink:href="#ArialMT-56" transform="translate(1168.710938 0)"/>
     <use xlink:href="#ArialMT-61" transform="translate(1228.035156 0)"/>
     <use xlink:href="#ArialMT-6c" transform="translate(1283.650391 0)"/>
     <use xlink:href="#ArialMT-69" transform="translate(1305.867188 0)"/>
     <use xlink:href="#ArialMT-64" transform="translate(1328.083984 0)"/>
     <use xlink:href="#ArialMT-61" transform="translate(1383.699219 0)"/>
     <use xlink:href="#ArialMT-74" transform="translate(1439.314453 0)"/>
     <use xlink:href="#ArialMT-69" transform="translate(1467.097656 0)"/>
     <use xlink:href="#ArialMT-6f" transform="translate(1489.314453 0)"/>
     <use xlink:href="#ArialMT-6e" transform="translate(1544.929688 0)"/>
     <use xlink:href="#ArialMT-20" transform="translate(1600.544922 0)"/>
     <use xlink:href="#ArialMT-28" transform="translate(1628.328125 0)"/>
     <use xlink:href="#ArialMT-54" transform="translate(1661.628906 0)"/>
     <use xlink:href="#ArialMT-72" transform="translate(1718.962891 0)"/>
     <use xlink:href="#ArialMT-61" transform="translate(1752.263672 0)"/>
     <use xlink:href="#ArialMT-69" transform="translate(1807.878906 0)"/>
     <use xlink:href="#ArialMT-6e" transform="translate(1830.095703 0)"/>
     <use xlink:href="#ArialMT-20" transform="translate(1885.710938 0)"/>
     <use xlink:href="#ArialMT-2192" transform="translate(1913.494141 0)"/>
     <use xlink:href="#ArialMT-20" transform="translate(2013.494141 0)"/>
     <use xlink:href="#ArialMT-54" transform="translate(2039.527344 0)"/>
     <use xlink:href="#ArialMT-65" transform="translate(2089.486328 0)"/>
     <use xlink:href="#ArialMT-73" transform="translate(2145.101562 0)"/>
     <use xlink:href="#ArialMT-74" transform="translate(2195.101562 0)"/>
     <use xlink:href="#ArialMT-20" transform="translate(2222.884766 0)"/>
     <use xlink:href="#ArialMT-2192" transform="translate(2250.667969 0)"/>
     <use xlink:href="#ArialMT-20" transform="translate(2350.667969 0)"/>
     <use xlink:href="#ArialMT-54" transform="translate(2376.701172 0)"/>
     <use xlink:href="#ArialMT-72" transform="translate(2434.035156 0)"/>
     <use xlink:href="#ArialMT-61" transform="translate(2467.335938 0)"/>
     <use xlink:href="#ArialMT-69" transform="translate(2522.951172 0)"/>
     <use xlink:href="#ArialMT-6e" transform="translate(2545.167969 0)"/>
     <use xlink:href="#ArialMT-20" transform="translate(2600.783203 0)"/>
     <use xlink:href="#ArialMT-2192" transform="translate(2628.566406 0)"/>
     <use xlink:href="#ArialMT-20" transform="translate(2728.566406 0)"/>
     <use xlink:href="#ArialMT-54" transform="translate(2754.599609 0)"/>
     <use xlink:href="#ArialMT-65" transform="translate(2804.558594 0)"/>
     <use xlink:href="#ArialMT-73" transform="translate(2860.173828 0)"/>
     <use xlink:href="#ArialMT-74" transform="translate(2910.173828 0)"/>
     <use xlink:href="#ArialMT-29" transform="translate(2937.957031 0)"/>
    </g>
   </g>
  </g>
 </g>
 <defs>
  <clipPath id="p176e003b7f">
   <rect x="7.2" y="21.935625" width="558" height="155.232"/>
  </clipPath>
 </defs>
</svg>
