<?xml version="1.0" encoding="utf-8" standalone="no"?>
<!DOCTYPE svg PUBLIC "-//W3C//DTD SVG 1.1//EN"
  "http://www.w3.org/Graphics/SVG/1.1/DTD/svg11.dtd">
<svg xmlns:xlink="http://www.w3.org/1999/xlink" width="568.906094pt" height="278.344502pt" viewBox="0 0 568.906094 278.344502" xmlns="http://www.w3.org/2000/svg" version="1.1">
 <metadata>
  <rdf:RDF xmlns:dc="http://purl.org/dc/elements/1.1/" xmlns:cc="http://creativecommons.org/ns#" xmlns:rdf="http://www.w3.org/1999/02/22-rdf-syntax-ns#">
   <cc:Work>
    <dc:type rdf:resource="http://purl.org/dc/dcmitype/StillImage"/>
    <dc:date>2025-12-01T20:20:19.514644</dc:date>
    <dc:format>image/svg+xml</dc:format>
    <dc:creator>
     <cc:Agent>
      <dc:title>Matplotlib v3.10.7, https://matplotlib.org/</dc:title>
     </cc:Agent>
    </dc:creator>
   </cc:Work>
  </rdf:RDF>
 </metadata>
 <defs>
  <style type="text/css">*{stroke-linejoin: round; stroke-linecap: butt}</style>
 </defs>
 <g id="figure_1">
  <g id="patch_1">
   <path d="M 0 278.344502 
L 568.906094 278.344502 
L 568.906094 0 
L 0 0 
z
" style="fill: #ffffff"/>
  </g>
  <g id="axes_1">
   <g id="patch_2">
    <path d="M 59.506094 217.775625 
L 561.706094 217.775625 
L 561.706094 21.935625 
L 59.506094 21.935625 
z
" style="fill: #ffffff"/>
   </g>
   <g id="matplotlib.axis_1">
    <g id="xtick_1">
     <g id="line2d_1">
      <path d="M 82.333366 217.775625 
L 82.333366 21.935625 
" clip-path="url(#pf51a7f1fb8)" style="fill: none; stroke: #cccccc; stroke-linecap: round"/>
     </g>
     <g id="text_1">
      <!-- 2020-01 -->
      <g style="fill: #262626" transform="translate(46.283261 254.276779) rotate(-30) scale(0.11 -0.11)">
       <defs>
        <path id="ArialMT-32" d="M 3222 541 
L 3222 0 
L 194 0 
Q 188 203 259 391 
Q 375 700 629 1000 
Q 884 1300 1366 1694 
Q 2113 2306 2375 2664 
Q 2638 3022 2638 3341 
Q 2638 3675 2398 3904 
Q 2159 4134 1775 4134 
Q 1369 4134 1125 3890 
Q 881 3647 878 3216 
L 300 3275 
Q 359 3922 746 4261 
Q 1134 4600 1788 4600 
Q 2447 4600 2831 4234 
Q 3216 3869 3216 3328 
Q 3216 3053 3103 2787 
Q 2991 2522 2730 2228 
Q 2469 1934 1863 1422 
Q 1356 997 1212 845 
Q 1069 694 975 541 
L 3222 541 
z
" transform="scale(0.015625)"/>
        <path id="ArialMT-30" d="M 266 2259 
Q 266 3072 433 3567 
Q 600 4063 929 4331 
Q 1259 4600 1759 4600 
Q 2128 4600 2406 4451 
Q 2684 4303 2865 4023 
Q 3047 3744 3150 3342 
Q 3253 2941 3253 2259 
Q 3253 1453 3087 958 
Q 2922 463 2592 192 
Q 2263 -78 1759 -78 
Q 1097 -78 719 397 
Q 266 969 266 2259 
z
M 844 2259 
Q 844 1131 1108 757 
Q 1372 384 1759 384 
Q 2147 384 2411 759 
Q 2675 1134 2675 2259 
Q 2675 3391 2411 3762 
Q 2147 4134 1753 4134 
Q 1366 4134 1134 3806 
Q 844 3388 844 2259 
z
" transform="scale(0.015625)"/>
        <path id="ArialMT-2d" d="M 203 1375 
L 203 1941 
L 1931 1941 
L 1931 1375 
L 203 1375 
z
" transform="scale(0.015625)"/>
        <path id="ArialMT-31" d="M 2384 0 
L 1822 0 
L 1822 3584 
Q 1619 3391 1289 3197 
Q 959 3003 697 2906 
L 697 3450 
Q 1169 3672 1522 3987 
Q 1875 4303 2022 4600 
L 2384 4600 
L 2384 0 
z
" transform="scale(0.015625)"/>
       </defs>
       <use xlink:href="#ArialMT-32"/>
       <use xlink:href="#ArialMT-30" transform="translate(55.615234 0)"/>
       <use xlink:href="#ArialMT-32" transform="translate(111.230469 0)"/>
       <use xlink:href="#ArialMT-30" transform="translate(166.845703 0)"/>
       <use xlink:href="#ArialMT-2d" transform="translate(222.460938 0)"/>
       <use xlink:href="#ArialMT-30" transform="translate(255.761719 0)"/>
       <use xlink:href="#ArialMT-31" transform="translate(311.376953 0)"/>
      </g>
     </g>
    </g>
    <g id="xtick_2">
     <g id="line2d_2">
      <path d="M 133.060639 217.775625 
L 133.060639 21.935625 
" clip-path="url(#pf51a7f1fb8)" style="fill: none; stroke: #cccccc; stroke-linecap: round"/>
     </g>
     <g id="text_2">
      <!-- 2020-02 -->
      <g style="fill: #262626" transform="translate(97.010534 254.276779) rotate(-30) scale(0.11 -0.11)">
       <use xlink:href="#ArialMT-32"/>
       <use xlink:href="#ArialMT-30" transform="translate(55.615234 0)"/>
       <use xlink:href="#ArialMT-32" transform="translate(111.230469 0)"/>
       <use xlink:href="#ArialMT-30" transform="translate(166.845703 0)"/>
       <use xlink:href="#ArialMT-2d" transform="translate(222.460938 0)"/>
       <use xlink:href="#ArialMT-30" transform="translate(255.761719 0)"/>
       <use xlink:href="#ArialMT-32" transform="translate(311.376953 0)"/>
      </g>
     </g>
    </g>
    <g id="xtick_3">
     <g id="line2d_3">
      <path d="M 180.515185 217.775625 
L 180.515185 21.935625 
" clip-path="url(#pf51a7f1fb8)" style="fill: none; stroke: #cccccc; stroke-linecap: round"/>
     </g>
     <g id="text_3">
      <!-- 2020-03 -->
      <g style="fill: #262626" transform="translate(144.46508 254.276779) rotate(-30) scale(0.11 -0.11)">
       <defs>
        <path id="ArialMT-33" d="M 269 1209 
L 831 1284 
Q 928 806 1161 595 
Q 1394 384 1728 384 
Q 2125 384 2398 659 
Q 2672 934 2672 1341 
Q 2672 1728 2419 1979 
Q 2166 2231 1775 2231 
Q 1616 2231 1378 2169 
L 1441 2663 
Q 1497 2656 1531 2656 
Q 1891 2656 2178 2843 
Q 2466 3031 2466 3422 
Q 2466 3731 2256 3934 
Q 2047 4138 1716 4138 
Q 1388 4138 1169 3931 
Q 950 3725 888 3313 
L 325 3413 
Q 428 3978 793 4289 
Q 1159 4600 1703 4600 
Q 2078 4600 2393 4439 
Q 2709 4278 2876 4000 
Q 3044 3722 3044 3409 
Q 3044 3113 2884 2869 
Q 2725 2625 2413 2481 
Q 2819 2388 3044 2092 
Q 3269 1797 3269 1353 
Q 3269 753 2831 336 
Q 2394 -81 1725 -81 
Q 1122 -81 723 278 
Q 325 638 269 1209 
z
" transform="scale(0.015625)"/>
       </defs>
       <use xlink:href="#ArialMT-32"/>
       <use xlink:href="#ArialMT-30" transform="translate(55.615234 0)"/>
       <use xlink:href="#ArialMT-32" transform="translate(111.230469 0)"/>
       <use xlink:href="#ArialMT-30" transform="translate(166.845703 0)"/>
       <use xlink:href="#ArialMT-2d" transform="translate(222.460938 0)"/>
       <use xlink:href="#ArialMT-30" transform="translate(255.761719 0)"/>
       <use xlink:href="#ArialMT-33" transform="translate(311.376953 0)"/>
      </g>
     </g>
    </g>
    <g id="xtick_4">
     <g id="line2d_4">
      <path d="M 231.242457 217.775625 
L 231.242457 21.935625 
" clip-path="url(#pf51a7f1fb8)" style="fill: none; stroke: #cccccc; stroke-linecap: round"/>
     </g>
     <g id="text_4">
      <!-- 2020-04 -->
      <g style="fill: #262626" transform="translate(195.192352 254.276779) rotate(-30) scale(0.11 -0.11)">
       <defs>
        <path id="ArialMT-34" d="M 2069 0 
L 2069 1097 
L 81 1097 
L 81 1613 
L 2172 4581 
L 2631 4581 
L 2631 1613 
L 3250 1613 
L 3250 1097 
L 2631 1097 
L 2631 0 
L 2069 0 
z
M 2069 1613 
L 2069 3678 
L 634 1613 
L 2069 1613 
z
" transform="scale(0.015625)"/>
       </defs>
       <use xlink:href="#ArialMT-32"/>
       <use xlink:href="#ArialMT-30" transform="translate(55.615234 0)"/>
       <use xlink:href="#ArialMT-32" transform="translate(111.230469 0)"/>
       <use xlink:href="#ArialMT-30" transform="translate(166.845703 0)"/>
       <use xlink:href="#ArialMT-2d" transform="translate(222.460938 0)"/>
       <use xlink:href="#ArialMT-30" transform="translate(255.761719 0)"/>
       <use xlink:href="#ArialMT-34" transform="translate(311.376953 0)"/>
      </g>
     </g>
    </g>
    <g id="xtick_5">
     <g id="line2d_5">
      <path d="M 280.333366 217.775625 
L 280.333366 21.935625 
" clip-path="url(#pf51a7f1fb8)" style="fill: none; stroke: #cccccc; stroke-linecap: round"/>
     </g>
     <g id="text_5">
      <!-- 2020-05 -->
      <g style="fill: #262626" transform="translate(244.283261 254.276779) rotate(-30) scale(0.11 -0.11)">
       <defs>
        <path id="ArialMT-35" d="M 266 1200 
L 856 1250 
Q 922 819 1161 601 
Q 1400 384 1738 384 
Q 2144 384 2425 690 
Q 2706 997 2706 1503 
Q 2706 1984 2436 2262 
Q 2166 2541 1728 2541 
Q 1456 2541 1237 2417 
Q 1019 2294 894 2097 
L 366 2166 
L 809 4519 
L 3088 4519 
L 3088 3981 
L 1259 3981 
L 1013 2750 
Q 1425 3038 1878 3038 
Q 2478 3038 2890 2622 
Q 3303 2206 3303 1553 
Q 3303 931 2941 478 
Q 2500 -78 1738 -78 
Q 1113 -78 717 272 
Q 322 622 266 1200 
z
" transform="scale(0.015625)"/>
       </defs>
       <use xlink:href="#ArialMT-32"/>
       <use xlink:href="#ArialMT-30" transform="translate(55.615234 0)"/>
       <use xlink:href="#ArialMT-32" transform="translate(111.230469 0)"/>
       <use xlink:href="#ArialMT-30" transform="translate(166.845703 0)"/>
       <use xlink:href="#ArialMT-2d" transform="translate(222.460938 0)"/>
       <use xlink:href="#ArialMT-30" transform="translate(255.761719 0)"/>
       <use xlink:href="#ArialMT-35" transform="translate(311.376953 0)"/>
      </g>
     </g>
    </g>
    <g id="xtick_6">
     <g id="line2d_6">
      <path d="M 331.060639 217.775625 
L 331.060639 21.935625 
" clip-path="url(#pf51a7f1fb8)" style="fill: none; stroke: #cccccc; stroke-linecap: round"/>
     </g>
     <g id="text_6">
      <!-- 2020-06 -->
      <g style="fill: #262626" transform="translate(295.010534 254.276779) rotate(-30) scale(0.11 -0.11)">
       <defs>
        <path id="ArialMT-36" d="M 3184 3459 
L 2625 3416 
Q 2550 3747 2413 3897 
Q 2184 4138 1850 4138 
Q 1581 4138 1378 3988 
Q 1113 3794 959 3422 
Q 806 3050 800 2363 
Q 1003 2672 1297 2822 
Q 1591 2972 1913 2972 
Q 2475 2972 2870 2558 
Q 3266 2144 3266 1488 
Q 3266 1056 3080 686 
Q 2894 316 2569 119 
Q 2244 -78 1831 -78 
Q 1128 -78 684 439 
Q 241 956 241 2144 
Q 241 3472 731 4075 
Q 1159 4600 1884 4600 
Q 2425 4600 2770 4297 
Q 3116 3994 3184 3459 
z
M 888 1484 
Q 888 1194 1011 928 
Q 1134 663 1356 523 
Q 1578 384 1822 384 
Q 2178 384 2434 671 
Q 2691 959 2691 1453 
Q 2691 1928 2437 2201 
Q 2184 2475 1800 2475 
Q 1419 2475 1153 2201 
Q 888 1928 888 1484 
z
" transform="scale(0.015625)"/>
       </defs>
       <use xlink:href="#ArialMT-32"/>
       <use xlink:href="#ArialMT-30" transform="translate(55.615234 0)"/>
       <use xlink:href="#ArialMT-32" transform="translate(111.230469 0)"/>
       <use xlink:href="#ArialMT-30" transform="translate(166.845703 0)"/>
       <use xlink:href="#ArialMT-2d" transform="translate(222.460938 0)"/>
       <use xlink:href="#ArialMT-30" transform="translate(255.761719 0)"/>
       <use xlink:href="#ArialMT-36" transform="translate(311.376953 0)"/>
      </g>
     </g>
    </g>
    <g id="xtick_7">
     <g id="line2d_7">
      <path d="M 380.151548 217.775625 
L 380.151548 21.935625 
" clip-path="url(#pf51a7f1fb8)" style="fill: none; stroke: #cccccc; stroke-linecap: round"/>
     </g>
     <g id="text_7">
      <!-- 2020-07 -->
      <g style="fill: #262626" transform="translate(344.101443 254.276779) rotate(-30) scale(0.11 -0.11)">
       <defs>
        <path id="ArialMT-37" d="M 303 3981 
L 303 4522 
L 3269 4522 
L 3269 4084 
Q 2831 3619 2401 2847 
Q 1972 2075 1738 1259 
Q 1569 684 1522 0 
L 944 0 
Q 953 541 1156 1306 
Q 1359 2072 1739 2783 
Q 2119 3494 2547 3981 
L 303 3981 
z
" transform="scale(0.015625)"/>
       </defs>
       <use xlink:href="#ArialMT-32"/>
       <use xlink:href="#ArialMT-30" transform="translate(55.615234 0)"/>
       <use xlink:href="#ArialMT-32" transform="translate(111.230469 0)"/>
       <use xlink:href="#ArialMT-30" transform="translate(166.845703 0)"/>
       <use xlink:href="#ArialMT-2d" transform="translate(222.460938 0)"/>
       <use xlink:href="#ArialMT-30" transform="translate(255.761719 0)"/>
       <use xlink:href="#ArialMT-37" transform="translate(311.376953 0)"/>
      </g>
     </g>
    </g>
    <g id="xtick_8">
     <g id="line2d_8">
      <path d="M 430.878821 217.775625 
L 430.878821 21.935625 
" clip-path="url(#pf51a7f1fb8)" style="fill: none; stroke: #cccccc; stroke-linecap: round"/>
     </g>
     <g id="text_8">
      <!-- 2020-08 -->
      <g style="fill: #262626" transform="translate(394.828716 254.276779) rotate(-30) scale(0.11 -0.11)">
       <defs>
        <path id="ArialMT-38" d="M 1131 2484 
Q 781 2613 612 2850 
Q 444 3088 444 3419 
Q 444 3919 803 4259 
Q 1163 4600 1759 4600 
Q 2359 4600 2725 4251 
Q 3091 3903 3091 3403 
Q 3091 3084 2923 2848 
Q 2756 2613 2416 2484 
Q 2838 2347 3058 2040 
Q 3278 1734 3278 1309 
Q 3278 722 2862 322 
Q 2447 -78 1769 -78 
Q 1091 -78 675 323 
Q 259 725 259 1325 
Q 259 1772 486 2073 
Q 713 2375 1131 2484 
z
M 1019 3438 
Q 1019 3113 1228 2906 
Q 1438 2700 1772 2700 
Q 2097 2700 2305 2904 
Q 2513 3109 2513 3406 
Q 2513 3716 2298 3927 
Q 2084 4138 1766 4138 
Q 1444 4138 1231 3931 
Q 1019 3725 1019 3438 
z
M 838 1322 
Q 838 1081 952 856 
Q 1066 631 1291 507 
Q 1516 384 1775 384 
Q 2178 384 2440 643 
Q 2703 903 2703 1303 
Q 2703 1709 2433 1975 
Q 2163 2241 1756 2241 
Q 1359 2241 1098 1978 
Q 838 1716 838 1322 
z
" transform="scale(0.015625)"/>
       </defs>
       <use xlink:href="#ArialMT-32"/>
       <use xlink:href="#ArialMT-30" transform="translate(55.615234 0)"/>
       <use xlink:href="#ArialMT-32" transform="translate(111.230469 0)"/>
       <use xlink:href="#ArialMT-30" transform="translate(166.845703 0)"/>
       <use xlink:href="#ArialMT-2d" transform="translate(222.460938 0)"/>
       <use xlink:href="#ArialMT-30" transform="translate(255.761719 0)"/>
       <use xlink:href="#ArialMT-38" transform="translate(311.376953 0)"/>
      </g>
     </g>
    </g>
    <g id="xtick_9">
     <g id="line2d_9">
      <path d="M 481.606094 217.775625 
L 481.606094 21.935625 
" clip-path="url(#pf51a7f1fb8)" style="fill: none; stroke: #cccccc; stroke-linecap: round"/>
     </g>
     <g id="text_9">
      <!-- 2020-09 -->
      <g style="fill: #262626" transform="translate(445.555989 254.276779) rotate(-30) scale(0.11 -0.11)">
       <defs>
        <path id="ArialMT-39" d="M 350 1059 
L 891 1109 
Q 959 728 1153 556 
Q 1347 384 1650 384 
Q 1909 384 2104 503 
Q 2300 622 2425 820 
Q 2550 1019 2634 1356 
Q 2719 1694 2719 2044 
Q 2719 2081 2716 2156 
Q 2547 1888 2255 1720 
Q 1963 1553 1622 1553 
Q 1053 1553 659 1965 
Q 266 2378 266 3053 
Q 266 3750 677 4175 
Q 1088 4600 1706 4600 
Q 2153 4600 2523 4359 
Q 2894 4119 3086 3673 
Q 3278 3228 3278 2384 
Q 3278 1506 3087 986 
Q 2897 466 2520 194 
Q 2144 -78 1638 -78 
Q 1100 -78 759 220 
Q 419 519 350 1059 
z
M 2653 3081 
Q 2653 3566 2395 3850 
Q 2138 4134 1775 4134 
Q 1400 4134 1122 3828 
Q 844 3522 844 3034 
Q 844 2597 1108 2323 
Q 1372 2050 1759 2050 
Q 2150 2050 2401 2323 
Q 2653 2597 2653 3081 
z
" transform="scale(0.015625)"/>
       </defs>
       <use xlink:href="#ArialMT-32"/>
       <use xlink:href="#ArialMT-30" transform="translate(55.615234 0)"/>
       <use xlink:href="#ArialMT-32" transform="translate(111.230469 0)"/>
       <use xlink:href="#ArialMT-30" transform="translate(166.845703 0)"/>
       <use xlink:href="#ArialMT-2d" transform="translate(222.460938 0)"/>
       <use xlink:href="#ArialMT-30" transform="translate(255.761719 0)"/>
       <use xlink:href="#ArialMT-39" transform="translate(311.376953 0)"/>
      </g>
     </g>
    </g>
    <g id="xtick_10">
     <g id="line2d_10">
      <path d="M 530.697003 217.775625 
L 530.697003 21.935625 
" clip-path="url(#pf51a7f1fb8)" style="fill: none; stroke: #cccccc; stroke-linecap: round"/>
     </g>
     <g id="text_10">
      <!-- 2020-10 -->
      <g style="fill: #262626" transform="translate(494.646898 254.276779) rotate(-30) scale(0.11 -0.11)">
       <use xlink:href="#ArialMT-32"/>
       <use xlink:href="#ArialMT-30" transform="translate(55.615234 0)"/>
       <use xlink:href="#ArialMT-32" transform="translate(111.230469 0)"/>
       <use xlink:href="#ArialMT-30" transform="translate(166.845703 0)"/>
       <use xlink:href="#ArialMT-2d" transform="translate(222.460938 0)"/>
       <use xlink:href="#ArialMT-31" transform="translate(255.761719 0)"/>
       <use xlink:href="#ArialMT-30" transform="translate(311.376953 0)"/>
      </g>
     </g>
    </g>
    <g id="text_11">
     <!-- Date -->
     <g style="fill: #262626" transform="translate(297.932969 268.759502) scale(0.12 -0.12)">
      <defs>
       <path id="ArialMT-44" d="M 494 0 
L 494 4581 
L 2072 4581 
Q 2606 4581 2888 4516 
Q 3281 4425 3559 4188 
Q 3922 3881 4101 3404 
Q 4281 2928 4281 2316 
Q 4281 1794 4159 1391 
Q 4038 988 3847 723 
Q 3656 459 3429 307 
Q 3203 156 2883 78 
Q 2563 0 2147 0 
L 494 0 
z
M 1100 541 
L 2078 541 
Q 2531 541 2789 625 
Q 3047 709 3200 863 
Q 3416 1078 3536 1442 
Q 3656 1806 3656 2325 
Q 3656 3044 3420 3430 
Q 3184 3816 2847 3947 
Q 2603 4041 2063 4041 
L 1100 4041 
L 1100 541 
z
" transform="scale(0.015625)"/>
       <path id="ArialMT-61" d="M 2588 409 
Q 2275 144 1986 34 
Q 1697 -75 1366 -75 
Q 819 -75 525 192 
Q 231 459 231 875 
Q 231 1119 342 1320 
Q 453 1522 633 1644 
Q 813 1766 1038 1828 
Q 1203 1872 1538 1913 
Q 2219 1994 2541 2106 
Q 2544 2222 2544 2253 
Q 2544 2597 2384 2738 
Q 2169 2928 1744 2928 
Q 1347 2928 1158 2789 
Q 969 2650 878 2297 
L 328 2372 
Q 403 2725 575 2942 
Q 747 3159 1072 3276 
Q 1397 3394 1825 3394 
Q 2250 3394 2515 3294 
Q 2781 3194 2906 3042 
Q 3031 2891 3081 2659 
Q 3109 2516 3109 2141 
L 3109 1391 
Q 3109 606 3145 398 
Q 3181 191 3288 0 
L 2700 0 
Q 2613 175 2588 409 
z
M 2541 1666 
Q 2234 1541 1622 1453 
Q 1275 1403 1131 1340 
Q 988 1278 909 1158 
Q 831 1038 831 891 
Q 831 666 1001 516 
Q 1172 366 1500 366 
Q 1825 366 2078 508 
Q 2331 650 2450 897 
Q 2541 1088 2541 1459 
L 2541 1666 
z
" transform="scale(0.015625)"/>
       <path id="ArialMT-74" d="M 1650 503 
L 1731 6 
Q 1494 -44 1306 -44 
Q 1000 -44 831 53 
Q 663 150 594 308 
Q 525 466 525 972 
L 525 2881 
L 113 2881 
L 113 3319 
L 525 3319 
L 525 4141 
L 1084 4478 
L 1084 3319 
L 1650 3319 
L 1650 2881 
L 1084 2881 
L 1084 941 
Q 1084 700 1114 631 
Q 1144 563 1211 522 
Q 1278 481 1403 481 
Q 1497 481 1650 503 
z
" transform="scale(0.015625)"/>
       <path id="ArialMT-65" d="M 2694 1069 
L 3275 997 
Q 3138 488 2766 206 
Q 2394 -75 1816 -75 
Q 1088 -75 661 373 
Q 234 822 234 1631 
Q 234 2469 665 2931 
Q 1097 3394 1784 3394 
Q 2450 3394 2872 2941 
Q 3294 2488 3294 1666 
Q 3294 1616 3291 1516 
L 816 1516 
Q 847 969 1125 678 
Q 1403 388 1819 388 
Q 2128 388 2347 550 
Q 2566 713 2694 1069 
z
M 847 1978 
L 2700 1978 
Q 2663 2397 2488 2606 
Q 2219 2931 1791 2931 
Q 1403 2931 1139 2672 
Q 875 2413 847 1978 
z
" transform="scale(0.015625)"/>
      </defs>
      <use xlink:href="#ArialMT-44"/>
      <use xlink:href="#ArialMT-61" transform="translate(72.216797 0)"/>
      <use xlink:href="#ArialMT-74" transform="translate(127.832031 0)"/>
      <use xlink:href="#ArialMT-65" transform="translate(155.615234 0)"/>
     </g>
    </g>
   </g>
   <g id="matplotlib.axis_2">
    <g id="ytick_1">
     <g id="line2d_11">
      <path d="M 59.506094 204.418025 
L 561.706094 204.418025 
" clip-path="url(#pf51a7f1fb8)" style="fill: none; stroke: #cccccc; stroke-linecap: round"/>
     </g>
     <g id="text_12">
      <!-- −0.20 -->
      <g style="fill: #262626" transform="translate(22.174375 208.354821) scale(0.11 -0.11)">
       <defs>
        <path id="ArialMT-2212" d="M 3381 1997 
L 356 1997 
L 356 2522 
L 3381 2522 
L 3381 1997 
z
" transform="scale(0.015625)"/>
        <path id="ArialMT-2e" d="M 581 0 
L 581 641 
L 1222 641 
L 1222 0 
L 581 0 
z
" transform="scale(0.015625)"/>
       </defs>
       <use xlink:href="#ArialMT-2212"/>
       <use xlink:href="#ArialMT-30" transform="translate(58.398438 0)"/>
       <use xlink:href="#ArialMT-2e" transform="translate(114.013672 0)"/>
       <use xlink:href="#ArialMT-32" transform="translate(141.796875 0)"/>
       <use xlink:href="#ArialMT-30" transform="translate(197.412109 0)"/>
      </g>
     </g>
    </g>
    <g id="ytick_2">
     <g id="line2d_12">
      <path d="M 59.506094 163.946406 
L 561.706094 163.946406 
" clip-path="url(#pf51a7f1fb8)" style="fill: none; stroke: #cccccc; stroke-linecap: round"/>
     </g>
     <g id="text_13">
      <!-- −0.15 -->
      <g style="fill: #262626" transform="translate(22.174375 167.883203) scale(0.11 -0.11)">
       <use xlink:href="#ArialMT-2212"/>
       <use xlink:href="#ArialMT-30" transform="translate(58.398438 0)"/>
       <use xlink:href="#ArialMT-2e" transform="translate(114.013672 0)"/>
       <use xlink:href="#ArialMT-31" transform="translate(141.796875 0)"/>
       <use xlink:href="#ArialMT-35" transform="translate(197.412109 0)"/>
      </g>
     </g>
    </g>
    <g id="ytick_3">
     <g id="line2d_13">
      <path d="M 59.506094 123.474788 
L 561.706094 123.474788 
" clip-path="url(#pf51a7f1fb8)" style="fill: none; stroke: #cccccc; stroke-linecap: round"/>
     </g>
     <g id="text_14">
      <!-- −0.10 -->
      <g style="fill: #262626" transform="translate(22.174375 127.411585) scale(0.11 -0.11)">
       <use xlink:href="#ArialMT-2212"/>
       <use xlink:href="#ArialMT-30" transform="translate(58.398438 0)"/>
       <use xlink:href="#ArialMT-2e" transform="translate(114.013672 0)"/>
       <use xlink:href="#ArialMT-31" transform="translate(141.796875 0)"/>
       <use xlink:href="#ArialMT-30" transform="translate(197.412109 0)"/>
      </g>
     </g>
    </g>
    <g id="ytick_4">
     <g id="line2d_14">
      <path d="M 59.506094 83.00317 
L 561.706094 83.00317 
" clip-path="url(#pf51a7f1fb8)" style="fill: none; stroke: #cccccc; stroke-linecap: round"/>
     </g>
     <g id="text_15">
      <!-- −0.05 -->
      <g style="fill: #262626" transform="translate(22.174375 86.939967) scale(0.11 -0.11)">
       <use xlink:href="#ArialMT-2212"/>
       <use xlink:href="#ArialMT-30" transform="translate(58.398438 0)"/>
       <use xlink:href="#ArialMT-2e" transform="translate(114.013672 0)"/>
       <use xlink:href="#ArialMT-30" transform="translate(141.796875 0)"/>
       <use xlink:href="#ArialMT-35" transform="translate(197.412109 0)"/>
      </g>
     </g>
    </g>
    <g id="ytick_5">
     <g id="line2d_15">
      <path d="M 59.506094 42.531552 
L 561.706094 42.531552 
" clip-path="url(#pf51a7f1fb8)" style="fill: none; stroke: #cccccc; stroke-linecap: round"/>
     </g>
     <g id="text_16">
      <!-- 0.00 -->
      <g style="fill: #262626" transform="translate(28.599063 46.468349) scale(0.11 -0.11)">
       <use xlink:href="#ArialMT-30"/>
       <use xlink:href="#ArialMT-2e" transform="translate(55.615234 0)"/>
       <use xlink:href="#ArialMT-30" transform="translate(83.398438 0)"/>
       <use xlink:href="#ArialMT-30" transform="translate(139.013672 0)"/>
      </g>
     </g>
    </g>
    <g id="text_17">
     <!-- Cumulative Return -->
     <g style="fill: #262626" transform="translate(15.789375 169.540312) rotate(-90) scale(0.12 -0.12)">
      <defs>
       <path id="ArialMT-43" d="M 3763 1606 
L 4369 1453 
Q 4178 706 3683 314 
Q 3188 -78 2472 -78 
Q 1731 -78 1267 223 
Q 803 525 561 1097 
Q 319 1669 319 2325 
Q 319 3041 592 3573 
Q 866 4106 1370 4382 
Q 1875 4659 2481 4659 
Q 3169 4659 3637 4309 
Q 4106 3959 4291 3325 
L 3694 3184 
Q 3534 3684 3231 3912 
Q 2928 4141 2469 4141 
Q 1941 4141 1586 3887 
Q 1231 3634 1087 3207 
Q 944 2781 944 2328 
Q 944 1744 1114 1308 
Q 1284 872 1643 656 
Q 2003 441 2422 441 
Q 2931 441 3284 734 
Q 3638 1028 3763 1606 
z
" transform="scale(0.015625)"/>
       <path id="ArialMT-75" d="M 2597 0 
L 2597 488 
Q 2209 -75 1544 -75 
Q 1250 -75 995 37 
Q 741 150 617 320 
Q 494 491 444 738 
Q 409 903 409 1263 
L 409 3319 
L 972 3319 
L 972 1478 
Q 972 1038 1006 884 
Q 1059 663 1231 536 
Q 1403 409 1656 409 
Q 1909 409 2131 539 
Q 2353 669 2445 892 
Q 2538 1116 2538 1541 
L 2538 3319 
L 3100 3319 
L 3100 0 
L 2597 0 
z
" transform="scale(0.015625)"/>
       <path id="ArialMT-6d" d="M 422 0 
L 422 3319 
L 925 3319 
L 925 2853 
Q 1081 3097 1340 3245 
Q 1600 3394 1931 3394 
Q 2300 3394 2536 3241 
Q 2772 3088 2869 2813 
Q 3263 3394 3894 3394 
Q 4388 3394 4653 3120 
Q 4919 2847 4919 2278 
L 4919 0 
L 4359 0 
L 4359 2091 
Q 4359 2428 4304 2576 
Q 4250 2725 4106 2815 
Q 3963 2906 3769 2906 
Q 3419 2906 3187 2673 
Q 2956 2441 2956 1928 
L 2956 0 
L 2394 0 
L 2394 2156 
Q 2394 2531 2256 2718 
Q 2119 2906 1806 2906 
Q 1569 2906 1367 2781 
Q 1166 2656 1075 2415 
Q 984 2175 984 1722 
L 984 0 
L 422 0 
z
" transform="scale(0.015625)"/>
       <path id="ArialMT-6c" d="M 409 0 
L 409 4581 
L 972 4581 
L 972 0 
L 409 0 
z
" transform="scale(0.015625)"/>
       <path id="ArialMT-69" d="M 425 3934 
L 425 4581 
L 988 4581 
L 988 3934 
L 425 3934 
z
M 425 0 
L 425 3319 
L 988 3319 
L 988 0 
L 425 0 
z
" transform="scale(0.015625)"/>
       <path id="ArialMT-76" d="M 1344 0 
L 81 3319 
L 675 3319 
L 1388 1331 
Q 1503 1009 1600 663 
Q 1675 925 1809 1294 
L 2547 3319 
L 3125 3319 
L 1869 0 
L 1344 0 
z
" transform="scale(0.015625)"/>
       <path id="ArialMT-20" transform="scale(0.015625)"/>
       <path id="ArialMT-52" d="M 503 0 
L 503 4581 
L 2534 4581 
Q 3147 4581 3465 4457 
Q 3784 4334 3975 4021 
Q 4166 3709 4166 3331 
Q 4166 2844 3850 2509 
Q 3534 2175 2875 2084 
Q 3116 1969 3241 1856 
Q 3506 1613 3744 1247 
L 4541 0 
L 3778 0 
L 3172 953 
Q 2906 1366 2734 1584 
Q 2563 1803 2427 1890 
Q 2291 1978 2150 2013 
Q 2047 2034 1813 2034 
L 1109 2034 
L 1109 0 
L 503 0 
z
M 1109 2559 
L 2413 2559 
Q 2828 2559 3062 2645 
Q 3297 2731 3419 2920 
Q 3541 3109 3541 3331 
Q 3541 3656 3305 3865 
Q 3069 4075 2559 4075 
L 1109 4075 
L 1109 2559 
z
" transform="scale(0.015625)"/>
       <path id="ArialMT-72" d="M 416 0 
L 416 3319 
L 922 3319 
L 922 2816 
Q 1116 3169 1280 3281 
Q 1444 3394 1641 3394 
Q 1925 3394 2219 3213 
L 2025 2691 
Q 1819 2813 1613 2813 
Q 1428 2813 1281 2702 
Q 1134 2591 1072 2394 
Q 978 2094 978 1738 
L 978 0 
L 416 0 
z
" transform="scale(0.015625)"/>
       <path id="ArialMT-6e" d="M 422 0 
L 422 3319 
L 928 3319 
L 928 2847 
Q 1294 3394 1984 3394 
Q 2284 3394 2536 3286 
Q 2788 3178 2913 3003 
Q 3038 2828 3088 2588 
Q 3119 2431 3119 2041 
L 3119 0 
L 2556 0 
L 2556 2019 
Q 2556 2363 2490 2533 
Q 2425 2703 2258 2804 
Q 2091 2906 1866 2906 
Q 1506 2906 1245 2678 
Q 984 2450 984 1813 
L 984 0 
L 422 0 
z
" transform="scale(0.015625)"/>
      </defs>
      <use xlink:href="#ArialMT-43"/>
      <use xlink:href="#ArialMT-75" transform="translate(72.216797 0)"/>
      <use xlink:href="#ArialMT-6d" transform="translate(127.832031 0)"/>
      <use xlink:href="#ArialMT-75" transform="translate(211.132812 0)"/>
      <use xlink:href="#ArialMT-6c" transform="translate(266.748047 0)"/>
      <use xlink:href="#ArialMT-61" transform="translate(288.964844 0)"/>
      <use xlink:href="#ArialMT-74" transform="translate(344.580078 0)"/>
      <use xlink:href="#ArialMT-69" transform="translate(372.363281 0)"/>
      <use xlink:href="#ArialMT-76" transform="translate(394.580078 0)"/>
      <use xlink:href="#ArialMT-65" transform="translate(444.580078 0)"/>
      <use xlink:href="#ArialMT-20" transform="translate(500.195312 0)"/>
      <use xlink:href="#ArialMT-52" transform="translate(527.978516 0)"/>
      <use xlink:href="#ArialMT-65" transform="translate(600.195312 0)"/>
      <use xlink:href="#ArialMT-74" transform="translate(655.810547 0)"/>
      <use xlink:href="#ArialMT-75" transform="translate(683.59375 0)"/>
      <use xlink:href="#ArialMT-72" transform="translate(739.208984 0)"/>
      <use xlink:href="#ArialMT-6e" transform="translate(772.509766 0)"/>
     </g>
    </g>
   </g>
   <g id="line2d_16">
    <path d="M 82.333366 39.781037 
L 83.96973 30.837443 
L 85.606094 31.51699 
L 90.515185 35.571924 
L 92.151548 53.344925 
L 93.787912 47.508993 
L 95.424276 47.777469 
L 97.060639 55.326914 
L 101.96973 53.654653 
L 103.606094 57.731605 
L 105.242457 61.361311 
L 106.878821 55.806248 
L 108.515185 65.992003 
L 113.424276 56.867148 
L 115.060639 67.532926 
L 116.697003 72.2495 
L 118.333366 56.037005 
L 119.96973 46.264285 
L 124.878821 44.826701 
L 126.515185 51.792111 
L 128.151548 55.428666 
L 129.787912 54.188006 
L 131.424276 53.236735 
L 136.333366 53.324728 
L 137.96973 52.926751 
L 139.606094 54.014426 
L 141.242457 65.038723 
L 142.878821 68.571982 
L 147.787912 60.521173 
L 149.424276 70.949368 
L 151.060639 71.836146 
L 152.697003 77.823953 
L 154.333366 76.275101 
L 159.242457 78.773278 
L 160.878821 66.16723 
L 162.515185 61.419236 
L 164.151548 71.389849 
L 165.787912 65.309166 
L 170.697003 70.931903 
L 172.333366 74.954753 
L 173.96973 71.767054 
L 175.606094 75.099871 
L 177.242457 67.225261 
L 182.151548 72.846851 
L 187.060639 85.805508 
L 188.697003 76.26075 
L 193.606094 70.523523 
L 195.242457 56.035138 
L 196.878821 37.032546 
L 198.515185 44.727957 
L 200.151548 43.510416 
L 205.060639 52.383416 
L 206.697003 58.030064 
L 208.333366 62.48261 
L 211.606094 78.258788 
L 216.515185 78.779127 
L 218.151548 87.980093 
L 219.787912 80.516099 
L 221.424276 87.297148 
L 223.060639 63.908041 
L 227.96973 66.914147 
L 229.606094 65.683667 
L 231.242457 75.521032 
L 232.878821 61.063827 
L 234.515185 51.354681 
L 239.424276 48.303802 
L 241.060639 58.557711 
L 242.697003 56.20496 
L 244.333366 64.63464 
L 245.96973 52.150317 
L 250.878821 44.952887 
L 252.515185 43.532827 
L 254.151548 62.606094 
L 255.787912 69.918635 
L 257.424276 63.704128 
L 262.333366 53.239109 
L 263.96973 43.613584 
L 265.606094 55.852306 
L 267.242457 52.763898 
L 268.878821 43.896444 
L 273.787912 56.672003 
L 275.424276 56.088438 
L 277.060639 53.224324 
L 278.697003 55.011264 
L 280.333366 69.355715 
L 285.242457 71.344475 
L 286.878821 73.346245 
L 288.515185 73.897245 
L 290.151548 77.81062 
L 291.787912 80.748957 
L 296.697003 80.422807 
L 298.333366 76.19389 
L 299.96973 78.010473 
L 301.606094 80.678758 
L 303.242457 79.283669 
L 308.151548 94.184638 
L 309.787912 89.675816 
L 311.424276 89.032828 
L 313.060639 88.06399 
L 314.697003 79.639949 
L 319.606094 94.799124 
L 321.242457 110.128429 
L 322.878821 107.264626 
L 324.515185 106.674686 
L 326.151548 104.649673 
L 331.060639 107.742733 
L 332.697003 101.717693 
L 334.333366 93.521067 
L 335.96973 88.956012 
L 337.606094 90.419696 
L 342.515185 106.83247 
L 344.151548 99.958477 
L 345.787912 89.421864 
L 347.424276 83.557054 
L 349.060639 90.029618 
L 353.96973 83.928163 
L 355.606094 76.315211 
L 357.242457 63.050102 
L 358.878821 69.494073 
L 360.515185 70.679524 
L 365.424276 63.983316 
L 367.060639 62.871075 
L 368.697003 71.26754 
L 370.333366 67.263956 
L 371.96973 61.932535 
L 376.878821 60.572989 
L 378.515185 58.148052 
L 380.151548 59.594555 
L 381.787912 46.981341 
L 383.424276 53.624289 
L 388.333366 57.730708 
L 389.96973 56.994242 
L 391.606094 49.232157 
L 393.242457 60.704834 
L 394.878821 70.663255 
L 399.787912 86.509743 
L 401.424276 85.597551 
L 403.060639 94.001934 
L 404.697003 96.467062 
L 406.333366 90.466107 
L 411.242457 95.011415 
L 412.878821 92.491798 
L 414.515185 94.26719 
L 416.151548 88.179333 
L 417.787912 83.685947 
L 422.697003 88.639136 
L 424.333366 89.356712 
L 425.96973 80.260769 
L 427.606094 76.429104 
L 429.242457 87.089021 
L 434.151548 81.13469 
L 435.787912 89.266334 
L 437.424276 77.18545 
L 439.060639 68.248517 
L 440.697003 65.254544 
L 445.606094 63.334304 
L 447.242457 64.378733 
L 448.878821 58.238995 
L 450.515185 60.592647 
L 457.060639 50.333058 
L 458.697003 54.232956 
L 460.333366 58.573074 
L 461.96973 67.593108 
L 463.606094 75.561749 
L 468.515185 89.713827 
L 470.151548 83.158811 
L 471.787912 67.869325 
L 473.424276 55.684705 
L 475.060639 68.199214 
L 479.96973 61.684459 
L 481.606094 49.525924 
L 483.242457 52.575946 
L 484.878821 51.107252 
L 486.515185 66.712242 
L 491.424276 63.905648 
L 493.060639 71.866899 
L 494.697003 69.603442 
L 496.333366 81.592778 
L 497.96973 76.551162 
L 502.878821 67.610879 
L 504.515185 73.302644 
L 506.151548 81.857718 
L 507.787912 98.66172 
L 509.424276 100.170612 
L 514.333366 104.230675 
L 515.96973 116.137582 
L 517.606094 111.823156 
L 519.242457 114.817816 
L 520.878821 122.877625 
L 525.787912 126.718968 
L 527.424276 117.399936 
L 529.060639 111.872024 
L 530.697003 112.276951 
L 532.333366 106.618169 
L 537.242457 115.36742 
L 538.878821 114.45786 
L 538.878821 114.45786 
" clip-path="url(#pf51a7f1fb8)" style="fill: none; stroke: #4c72b0; stroke-width: 2; stroke-linecap: round"/>
   </g>
   <g id="line2d_17">
    <path d="M 82.333366 41.053608 
L 83.96973 44.0716 
L 85.606094 40.494617 
L 90.515185 45.775274 
L 92.151548 41.656569 
L 93.787912 37.231622 
L 95.424276 58.078098 
L 97.060639 49.002135 
L 101.96973 70.79909 
L 103.606094 74.882224 
L 105.242457 67.007959 
L 106.878821 68.914642 
L 108.515185 79.190932 
L 113.424276 86.753971 
L 115.060639 78.868358 
L 116.697003 92.461593 
L 118.333366 83.8323 
L 119.96973 83.828996 
L 124.878821 92.110751 
L 126.515185 95.953964 
L 128.151548 102.959617 
L 129.787912 96.244544 
L 131.424276 90.504171 
L 136.333366 102.623357 
L 137.96973 105.158765 
L 139.606094 111.042263 
L 141.242457 101.214467 
L 142.878821 110.645076 
L 147.787912 98.553726 
L 149.424276 98.391558 
L 151.060639 106.451408 
L 152.697003 110.98056 
L 154.333366 116.41555 
L 159.242457 125.29629 
L 160.878821 124.200771 
L 162.515185 132.741286 
L 164.151548 148.220301 
L 165.787912 150.581486 
L 170.697003 163.310381 
L 172.333366 168.385075 
L 175.606094 180.545073 
L 177.242457 165.563558 
L 182.151548 164.74789 
L 183.787912 162.555673 
L 185.424276 175.091825 
L 187.060639 179.451159 
L 188.697003 177.477987 
L 193.606094 184.536852 
L 195.242457 177.516997 
L 196.878821 185.873795 
L 198.515185 187.555225 
L 200.151548 191.419831 
L 205.060639 189.818057 
L 206.697003 194.079241 
L 208.333366 195.647955 
L 209.96973 196.963421 
L 211.606094 201.90864 
L 216.515185 197.970068 
L 218.151548 195.828718 
L 219.787912 196.069545 
L 221.424276 198.800671 
L 223.060639 192.593218 
L 227.96973 193.906529 
L 229.606094 195.736069 
L 231.242457 194.568697 
L 232.878821 181.804532 
L 234.515185 191.164165 
L 239.424276 185.151125 
L 241.060639 198.537955 
L 242.697003 196.550427 
L 244.333366 184.671404 
L 245.96973 180.70679 
L 250.878821 179.059089 
L 252.515185 182.737186 
L 254.151548 182.106295 
L 255.787912 183.537829 
L 257.424276 188.858867 
L 262.333366 190.565863 
L 263.96973 188.715961 
L 267.242457 199.369297 
L 268.878821 208.873807 
L 273.787912 205.622701 
L 275.424276 201.245364 
L 277.060639 199.153027 
L 278.697003 191.717149 
L 285.242457 187.411853 
L 286.878821 184.793714 
L 288.515185 185.055857 
L 290.151548 188.51812 
L 291.787912 171.983543 
L 296.697003 174.871241 
L 298.333366 179.317371 
L 299.96973 175.750941 
L 301.606094 173.511493 
L 303.242457 183.34053 
L 308.151548 174.757225 
L 309.787912 175.038706 
L 311.424276 182.727002 
L 313.060639 173.662123 
L 314.697003 168.699428 
L 319.606094 177.506763 
L 321.242457 164.155463 
L 322.878821 158.951479 
L 324.515185 158.621041 
L 326.151548 146.631754 
L 331.060639 145.06657 
L 332.697003 144.866436 
L 334.333366 149.271935 
L 335.96973 144.628501 
L 337.606094 140.751784 
L 342.515185 140.240125 
L 344.151548 145.590373 
L 345.787912 144.239132 
L 347.424276 144.342893 
L 349.060639 153.652392 
L 353.96973 163.969669 
L 355.606094 159.447872 
L 357.242457 177.997629 
L 358.878821 176.09652 
L 360.515185 179.174586 
L 365.424276 169.239436 
L 367.060639 172.429582 
L 368.697003 167.220595 
L 370.333366 169.707353 
L 371.96973 168.473994 
L 376.878821 162.701504 
L 378.515185 165.666456 
L 380.151548 158.001945 
L 381.787912 164.83621 
L 383.424276 162.285417 
L 388.333366 155.159371 
L 389.96973 149.946354 
L 391.606094 135.580545 
L 393.242457 140.737401 
L 394.878821 150.379637 
L 399.787912 157.218544 
L 401.424276 152.002576 
L 403.060639 147.970545 
L 404.697003 146.8209 
L 406.333366 154.596804 
L 411.242457 148.605543 
L 412.878821 157.122668 
L 414.515185 148.27513 
L 416.151548 127.054286 
L 417.787912 123.980013 
L 422.697003 119.327417 
L 424.333366 122.513131 
L 425.96973 135.295622 
L 427.606094 139.281651 
L 429.242457 146.838558 
L 434.151548 156.975112 
L 435.787912 144.023191 
L 437.424276 141.630701 
L 439.060639 138.460002 
L 440.697003 140.306481 
L 445.606094 141.161111 
L 447.242457 133.729748 
L 448.878821 133.560605 
L 450.515185 129.289841 
L 452.151548 130.312995 
L 457.060639 132.400825 
L 458.697003 142.245326 
L 460.333366 156.248296 
L 461.96973 157.74903 
L 463.606094 156.932742 
L 468.515185 165.897343 
L 470.151548 165.743772 
L 471.787912 164.947475 
L 473.424276 180.249042 
L 475.060639 186.51091 
L 479.96973 183.13932 
L 481.606094 179.914924 
L 483.242457 187.914604 
L 484.878821 186.355611 
L 486.515185 178.502769 
L 491.424276 172.437161 
L 493.060639 172.726591 
L 494.697003 175.731032 
L 496.333366 179.911022 
L 497.96973 176.098289 
L 502.878821 174.272262 
L 504.515185 169.282406 
L 506.151548 167.917003 
L 507.787912 161.547681 
L 509.424276 160.453868 
L 514.333366 154.33278 
L 515.96973 147.584215 
L 517.606094 153.040387 
L 519.242457 165.807804 
L 520.878821 154.15891 
L 525.787912 151.884463 
L 527.424276 163.96959 
L 529.060639 168.764972 
L 530.697003 162.737235 
L 532.333366 164.369934 
L 537.242457 167.69553 
L 538.878821 157.085542 
L 538.878821 157.085542 
" clip-path="url(#pf51a7f1fb8)" style="fill: none; stroke: #dd8452; stroke-opacity: 0.8; stroke-width: 1.5; stroke-linecap: round"/>
   </g>
   <g id="patch_3">
    <path d="M 59.506094 217.775625 
L 59.506094 21.935625 
" style="fill: none; stroke: #cccccc; stroke-width: 1.25; stroke-linejoin: miter; stroke-linecap: square"/>
   </g>
   <g id="patch_4">
    <path d="M 561.706094 217.775625 
L 561.706094 21.935625 
" style="fill: none; stroke: #cccccc; stroke-width: 1.25; stroke-linejoin: miter; stroke-linecap: square"/>
   </g>
   <g id="patch_5">
    <path d="M 59.506094 217.775625 
L 561.706094 217.775625 
" style="fill: none; stroke: #cccccc; stroke-width: 1.25; stroke-linejoin: miter; stroke-linecap: square"/>
   </g>
   <g id="patch_6">
    <path d="M 59.506094 21.935625 
L 561.706094 21.935625 
" style="fill: none; stroke: #cccccc; stroke-width: 1.25; stroke-linejoin: miter; stroke-linecap: square"/>
   </g>
   <g id="text_18">
    <!-- Figure 6 — Backtest Equity Curve -->
    <g style="fill: #262626" transform="translate(220.241406 15.935625) scale(0.12 -0.12)">
     <defs>
      <path id="ArialMT-46" d="M 525 0 
L 525 4581 
L 3616 4581 
L 3616 4041 
L 1131 4041 
L 1131 2622 
L 3281 2622 
L 3281 2081 
L 1131 2081 
L 1131 0 
L 525 0 
z
" transform="scale(0.015625)"/>
      <path id="ArialMT-67" d="M 319 -275 
L 866 -356 
Q 900 -609 1056 -725 
Q 1266 -881 1628 -881 
Q 2019 -881 2231 -725 
Q 2444 -569 2519 -288 
Q 2563 -116 2559 434 
Q 2191 0 1641 0 
Q 956 0 581 494 
Q 206 988 206 1678 
Q 206 2153 378 2554 
Q 550 2956 876 3175 
Q 1203 3394 1644 3394 
Q 2231 3394 2613 2919 
L 2613 3319 
L 3131 3319 
L 3131 450 
Q 3131 -325 2973 -648 
Q 2816 -972 2473 -1159 
Q 2131 -1347 1631 -1347 
Q 1038 -1347 672 -1080 
Q 306 -813 319 -275 
z
M 784 1719 
Q 784 1066 1043 766 
Q 1303 466 1694 466 
Q 2081 466 2343 764 
Q 2606 1063 2606 1700 
Q 2606 2309 2336 2618 
Q 2066 2928 1684 2928 
Q 1309 2928 1046 2623 
Q 784 2319 784 1719 
z
" transform="scale(0.015625)"/>
      <path id="ArialMT-2014" d="M 0 1431 
L 0 1884 
L 6400 1884 
L 6400 1431 
L 0 1431 
z
" transform="scale(0.015625)"/>
      <path id="ArialMT-42" d="M 469 0 
L 469 4581 
L 2188 4581 
Q 2713 4581 3030 4442 
Q 3347 4303 3526 4014 
Q 3706 3725 3706 3409 
Q 3706 3116 3547 2856 
Q 3388 2597 3066 2438 
Q 3481 2316 3704 2022 
Q 3928 1728 3928 1328 
Q 3928 1006 3792 729 
Q 3656 453 3456 303 
Q 3256 153 2954 76 
Q 2653 0 2216 0 
L 469 0 
z
M 1075 2656 
L 2066 2656 
Q 2469 2656 2644 2709 
Q 2875 2778 2992 2937 
Q 3109 3097 3109 3338 
Q 3109 3566 3000 3739 
Q 2891 3913 2687 3977 
Q 2484 4041 1991 4041 
L 1075 4041 
L 1075 2656 
z
M 1075 541 
L 2216 541 
Q 2509 541 2628 563 
Q 2838 600 2978 687 
Q 3119 775 3209 942 
Q 3300 1109 3300 1328 
Q 3300 1584 3169 1773 
Q 3038 1963 2805 2039 
Q 2572 2116 2134 2116 
L 1075 2116 
L 1075 541 
z
" transform="scale(0.015625)"/>
      <path id="ArialMT-63" d="M 2588 1216 
L 3141 1144 
Q 3050 572 2676 248 
Q 2303 -75 1759 -75 
Q 1078 -75 664 370 
Q 250 816 250 1647 
Q 250 2184 428 2587 
Q 606 2991 970 3192 
Q 1334 3394 1763 3394 
Q 2303 3394 2647 3120 
Q 2991 2847 3088 2344 
L 2541 2259 
Q 2463 2594 2264 2762 
Q 2066 2931 1784 2931 
Q 1359 2931 1093 2626 
Q 828 2322 828 1663 
Q 828 994 1084 691 
Q 1341 388 1753 388 
Q 2084 388 2306 591 
Q 2528 794 2588 1216 
z
" transform="scale(0.015625)"/>
      <path id="ArialMT-6b" d="M 425 0 
L 425 4581 
L 988 4581 
L 988 1969 
L 2319 3319 
L 3047 3319 
L 1778 2088 
L 3175 0 
L 2481 0 
L 1384 1697 
L 988 1316 
L 988 0 
L 425 0 
z
" transform="scale(0.015625)"/>
      <path id="ArialMT-73" d="M 197 991 
L 753 1078 
Q 800 744 1014 566 
Q 1228 388 1613 388 
Q 2000 388 2187 545 
Q 2375 703 2375 916 
Q 2375 1106 2209 1216 
Q 2094 1291 1634 1406 
Q 1016 1563 777 1677 
Q 538 1791 414 1992 
Q 291 2194 291 2438 
Q 291 2659 392 2848 
Q 494 3038 669 3163 
Q 800 3259 1026 3326 
Q 1253 3394 1513 3394 
Q 1903 3394 2198 3281 
Q 2494 3169 2634 2976 
Q 2775 2784 2828 2463 
L 2278 2388 
Q 2241 2644 2061 2787 
Q 1881 2931 1553 2931 
Q 1166 2931 1000 2803 
Q 834 2675 834 2503 
Q 834 2394 903 2306 
Q 972 2216 1119 2156 
Q 1203 2125 1616 2013 
Q 2213 1853 2448 1751 
Q 2684 1650 2818 1456 
Q 2953 1263 2953 975 
Q 2953 694 2789 445 
Q 2625 197 2315 61 
Q 2006 -75 1616 -75 
Q 969 -75 630 194 
Q 291 463 197 991 
z
" transform="scale(0.015625)"/>
      <path id="ArialMT-45" d="M 506 0 
L 506 4581 
L 3819 4581 
L 3819 4041 
L 1113 4041 
L 1113 2638 
L 3647 2638 
L 3647 2100 
L 1113 2100 
L 1113 541 
L 3925 541 
L 3925 0 
L 506 0 
z
" transform="scale(0.015625)"/>
      <path id="ArialMT-71" d="M 2538 -1272 
L 2538 353 
Q 2406 169 2170 47 
Q 1934 -75 1669 -75 
Q 1078 -75 651 397 
Q 225 869 225 1691 
Q 225 2191 398 2587 
Q 572 2984 901 3189 
Q 1231 3394 1625 3394 
Q 2241 3394 2594 2875 
L 2594 3319 
L 3100 3319 
L 3100 -1272 
L 2538 -1272 
z
M 803 1669 
Q 803 1028 1072 708 
Q 1341 388 1716 388 
Q 2075 388 2334 692 
Q 2594 997 2594 1619 
Q 2594 2281 2320 2615 
Q 2047 2950 1678 2950 
Q 1313 2950 1058 2639 
Q 803 2328 803 1669 
z
" transform="scale(0.015625)"/>
      <path id="ArialMT-79" d="M 397 -1278 
L 334 -750 
Q 519 -800 656 -800 
Q 844 -800 956 -737 
Q 1069 -675 1141 -563 
Q 1194 -478 1313 -144 
Q 1328 -97 1363 -6 
L 103 3319 
L 709 3319 
L 1400 1397 
Q 1534 1031 1641 628 
Q 1738 1016 1872 1384 
L 2581 3319 
L 3144 3319 
L 1881 -56 
Q 1678 -603 1566 -809 
Q 1416 -1088 1222 -1217 
Q 1028 -1347 759 -1347 
Q 597 -1347 397 -1278 
z
" transform="scale(0.015625)"/>
     </defs>
     <use xlink:href="#ArialMT-46"/>
     <use xlink:href="#ArialMT-69" transform="translate(61.083984 0)"/>
     <use xlink:href="#ArialMT-67" transform="translate(83.300781 0)"/>
     <use xlink:href="#ArialMT-75" transform="translate(138.916016 0)"/>
     <use xlink:href="#ArialMT-72" transform="translate(194.53125 0)"/>
     <use xlink:href="#ArialMT-65" transform="translate(227.832031 0)"/>
     <use xlink:href="#ArialMT-20" transform="translate(283.447266 0)"/>
     <use xlink:href="#ArialMT-36" transform="translate(311.230469 0)"/>
     <use xlink:href="#ArialMT-20" transform="translate(366.845703 0)"/>
     <use xlink:href="#ArialMT-2014" transform="translate(394.628906 0)"/>
     <use xlink:href="#ArialMT-20" transform="translate(494.628906 0)"/>
     <use xlink:href="#ArialMT-42" transform="translate(522.412109 0)"/>
     <use xlink:href="#ArialMT-61" transform="translate(589.111328 0)"/>
     <use xlink:href="#ArialMT-63" transform="translate(644.726562 0)"/>
     <use xlink:href="#ArialMT-6b" transform="translate(694.726562 0)"/>
     <use xlink:href="#ArialMT-74" transform="translate(744.726562 0)"/>
     <use xlink:href="#ArialMT-65" transform="translate(772.509766 0)"/>
     <use xlink:href="#ArialMT-73" transform="translate(828.125 0)"/>
     <use xlink:href="#ArialMT-74" transform="translate(878.125 0)"/>
     <use xlink:href="#ArialMT-20" transform="translate(905.908203 0)"/>
     <use xlink:href="#ArialMT-45" transform="translate(933.691406 0)"/>
     <use xlink:href="#ArialMT-71" transform="translate(1000.390625 0)"/>
     <use xlink:href="#ArialMT-75" transform="translate(1056.005859 0)"/>
     <use xlink:href="#ArialMT-69" transform="translate(1111.621094 0)"/>
     <use xlink:href="#ArialMT-74" transform="translate(1133.837891 0)"/>
     <use xlink:href="#ArialMT-79" transform="translate(1161.621094 0)"/>
     <use xlink:href="#ArialMT-20" transform="translate(1211.621094 0)"/>
     <use xlink:href="#ArialMT-43" transform="translate(1239.404297 0)"/>
     <use xlink:href="#ArialMT-75" transform="translate(1311.621094 0)"/>
     <use xlink:href="#ArialMT-72" transform="translate(1367.236328 0)"/>
     <use xlink:href="#ArialMT-76" transform="translate(1400.537109 0)"/>
     <use xlink:href="#ArialMT-65" transform="translate(1450.537109 0)"/>
    </g>
   </g>
   <g id="legend_1">
    <g id="patch_7">
     <path d="M 67.206094 212.275625 
L 161.292188 212.275625 
Q 163.492188 212.275625 163.492188 210.075625 
L 163.492188 179.53 
Q 163.492188 177.33 161.292188 177.33 
L 67.206094 177.33 
Q 65.006094 177.33 65.006094 179.53 
L 65.006094 210.075625 
Q 65.006094 212.275625 67.206094 212.275625 
z
" style="fill: #ffffff; opacity: 0.8; stroke: #cccccc; stroke-linejoin: miter"/>
    </g>
    <g id="line2d_18">
     <path d="M 69.406094 185.887656 
L 80.406094 185.887656 
L 91.406094 185.887656 
" style="fill: none; stroke: #4c72b0; stroke-width: 2; stroke-linecap: round"/>
    </g>
    <g id="text_19">
     <!-- ML Strategy -->
     <g style="fill: #262626" transform="translate(100.206094 189.737656) scale(0.11 -0.11)">
      <defs>
       <path id="ArialMT-4d" d="M 475 0 
L 475 4581 
L 1388 4581 
L 2472 1338 
Q 2622 884 2691 659 
Q 2769 909 2934 1394 
L 4031 4581 
L 4847 4581 
L 4847 0 
L 4263 0 
L 4263 3834 
L 2931 0 
L 2384 0 
L 1059 3900 
L 1059 0 
L 475 0 
z
" transform="scale(0.015625)"/>
       <path id="ArialMT-4c" d="M 469 0 
L 469 4581 
L 1075 4581 
L 1075 541 
L 3331 541 
L 3331 0 
L 469 0 
z
" transform="scale(0.015625)"/>
       <path id="ArialMT-53" d="M 288 1472 
L 859 1522 
Q 900 1178 1048 958 
Q 1197 738 1509 602 
Q 1822 466 2213 466 
Q 2559 466 2825 569 
Q 3091 672 3220 851 
Q 3350 1031 3350 1244 
Q 3350 1459 3225 1620 
Q 3100 1781 2813 1891 
Q 2628 1963 1997 2114 
Q 1366 2266 1113 2400 
Q 784 2572 623 2826 
Q 463 3081 463 3397 
Q 463 3744 659 4045 
Q 856 4347 1234 4503 
Q 1613 4659 2075 4659 
Q 2584 4659 2973 4495 
Q 3363 4331 3572 4012 
Q 3781 3694 3797 3291 
L 3216 3247 
Q 3169 3681 2898 3903 
Q 2628 4125 2100 4125 
Q 1550 4125 1298 3923 
Q 1047 3722 1047 3438 
Q 1047 3191 1225 3031 
Q 1400 2872 2139 2705 
Q 2878 2538 3153 2413 
Q 3553 2228 3743 1945 
Q 3934 1663 3934 1294 
Q 3934 928 3725 604 
Q 3516 281 3123 101 
Q 2731 -78 2241 -78 
Q 1619 -78 1198 103 
Q 778 284 539 648 
Q 300 1013 288 1472 
z
" transform="scale(0.015625)"/>
      </defs>
      <use xlink:href="#ArialMT-4d"/>
      <use xlink:href="#ArialMT-4c" transform="translate(83.300781 0)"/>
      <use xlink:href="#ArialMT-20" transform="translate(135.166016 0)"/>
      <use xlink:href="#ArialMT-53" transform="translate(162.949219 0)"/>
      <use xlink:href="#ArialMT-74" transform="translate(229.648438 0)"/>
      <use xlink:href="#ArialMT-72" transform="translate(257.431641 0)"/>
      <use xlink:href="#ArialMT-61" transform="translate(290.732422 0)"/>
      <use xlink:href="#ArialMT-74" transform="translate(346.347656 0)"/>
      <use xlink:href="#ArialMT-65" transform="translate(374.130859 0)"/>
      <use xlink:href="#ArialMT-67" transform="translate(429.746094 0)"/>
      <use xlink:href="#ArialMT-79" transform="translate(485.361328 0)"/>
     </g>
    </g>
    <g id="line2d_19">
     <path d="M 69.406094 201.710469 
L 80.406094 201.710469 
L 91.406094 201.710469 
" style="fill: none; stroke: #dd8452; stroke-opacity: 0.8; stroke-width: 1.5; stroke-linecap: round"/>
    </g>
    <g id="text_20">
     <!-- Buy &amp; Hold -->
     <g style="fill: #262626" transform="translate(100.206094 205.560469) scale(0.11 -0.11)">
      <defs>
       <path id="ArialMT-26" d="M 3041 541 
Q 2763 231 2434 76 
Q 2106 -78 1725 -78 
Q 1022 -78 609 397 
Q 275 784 275 1263 
Q 275 1688 548 2030 
Q 822 2372 1366 2631 
Q 1056 2988 953 3209 
Q 850 3431 850 3638 
Q 850 4050 1173 4354 
Q 1497 4659 1988 4659 
Q 2456 4659 2754 4371 
Q 3053 4084 3053 3681 
Q 3053 3028 2188 2566 
L 3009 1519 
Q 3150 1794 3228 2156 
L 3813 2031 
Q 3663 1431 3406 1044 
Q 3722 625 4122 341 
L 3744 -106 
Q 3403 113 3041 541 
z
M 1897 2928 
Q 2263 3144 2370 3306 
Q 2478 3469 2478 3666 
Q 2478 3900 2329 4048 
Q 2181 4197 1959 4197 
Q 1731 4197 1579 4050 
Q 1428 3903 1428 3691 
Q 1428 3584 1483 3467 
Q 1538 3350 1647 3219 
L 1897 2928 
z
M 2688 984 
L 1656 2263 
Q 1200 1991 1040 1758 
Q 881 1525 881 1297 
Q 881 1019 1103 719 
Q 1325 419 1731 419 
Q 1984 419 2254 576 
Q 2525 734 2688 984 
z
" transform="scale(0.015625)"/>
       <path id="ArialMT-48" d="M 513 0 
L 513 4581 
L 1119 4581 
L 1119 2700 
L 3500 2700 
L 3500 4581 
L 4106 4581 
L 4106 0 
L 3500 0 
L 3500 2159 
L 1119 2159 
L 1119 0 
L 513 0 
z
" transform="scale(0.015625)"/>
       <path id="ArialMT-6f" d="M 213 1659 
Q 213 2581 725 3025 
Q 1153 3394 1769 3394 
Q 2453 3394 2887 2945 
Q 3322 2497 3322 1706 
Q 3322 1066 3130 698 
Q 2938 331 2570 128 
Q 2203 -75 1769 -75 
Q 1072 -75 642 372 
Q 213 819 213 1659 
z
M 791 1659 
Q 791 1022 1069 705 
Q 1347 388 1769 388 
Q 2188 388 2466 706 
Q 2744 1025 2744 1678 
Q 2744 2294 2464 2611 
Q 2184 2928 1769 2928 
Q 1347 2928 1069 2612 
Q 791 2297 791 1659 
z
" transform="scale(0.015625)"/>
       <path id="ArialMT-64" d="M 2575 0 
L 2575 419 
Q 2259 -75 1647 -75 
Q 1250 -75 917 144 
Q 584 363 401 755 
Q 219 1147 219 1656 
Q 219 2153 384 2558 
Q 550 2963 881 3178 
Q 1213 3394 1622 3394 
Q 1922 3394 2156 3267 
Q 2391 3141 2538 2938 
L 2538 4581 
L 3097 4581 
L 3097 0 
L 2575 0 
z
M 797 1656 
Q 797 1019 1065 703 
Q 1334 388 1700 388 
Q 2069 388 2326 689 
Q 2584 991 2584 1609 
Q 2584 2291 2321 2609 
Q 2059 2928 1675 2928 
Q 1300 2928 1048 2622 
Q 797 2316 797 1656 
z
" transform="scale(0.015625)"/>
      </defs>
      <use xlink:href="#ArialMT-42"/>
      <use xlink:href="#ArialMT-75" transform="translate(66.699219 0)"/>
      <use xlink:href="#ArialMT-79" transform="translate(122.314453 0)"/>
      <use xlink:href="#ArialMT-20" transform="translate(172.314453 0)"/>
      <use xlink:href="#ArialMT-26" transform="translate(200.097656 0)"/>
      <use xlink:href="#ArialMT-20" transform="translate(266.796875 0)"/>
      <use xlink:href="#ArialMT-48" transform="translate(294.580078 0)"/>
      <use xlink:href="#ArialMT-6f" transform="translate(366.796875 0)"/>
      <use xlink:href="#ArialMT-6c" transform="translate(422.412109 0)"/>
      <use xlink:href="#ArialMT-64" transform="translate(444.628906 0)"/>
     </g>
    </g>
   </g>
  </g>
 </g>
 <defs>
  <clipPath id="pf51a7f1fb8">
   <rect x="59.506094" y="21.935625" width="502.2" height="195.84"/>
  </clipPath>
 </defs>
</svg>
