<?xml version="1.0" encoding="utf-8" standalone="no"?>
<!DOCTYPE svg PUBLIC "-//W3C//DTD SVG 1.1//EN"
  "http://www.w3.org/Graphics/SVG/1.1/DTD/svg11.dtd">
<svg xmlns:xlink="http://www.w3.org/1999/xlink" width="572.4pt" height="112.295625pt" viewBox="0 0 572.4 112.295625" xmlns="http://www.w3.org/2000/svg" version="1.1">
 <metadata>
  <rdf:RDF xmlns:dc="http://purl.org/dc/elements/1.1/" xmlns:cc="http://creativecommons.org/ns#" xmlns:rdf="http://www.w3.org/1999/02/22-rdf-syntax-ns#">
   <cc:Work>
    <dc:type rdf:resource="http://purl.org/dc/dcmitype/StillImage"/>
    <dc:date>2025-12-01T20:20:20.725672</dc:date>
    <dc:format>image/svg+xml</dc:format>
    <dc:creator>
     <cc:Agent>
      <dc:title>Matplotlib v3.10.7, https://matplotlib.org/</dc:title>
     </cc:Agent>
    </dc:creator>
   </cc:Work>
  </rdf:RDF>
 </metadata>
 <defs>
  <style type="text/css">*{stroke-linejoin: round; stroke-linecap: butt}</style>
 </defs>
 <g id="figure_1">
  <g id="patch_1">
   <path d="M 0 112.295625 
L 572.4 112.295625 
L 572.4 0 
L 0 0 
z
" style="fill: #ffffff"/>
  </g>
  <g id="axes_1">
   <g id="table_1">
    <g id="patch_2">
     <path d="M 7.2 49.115625 
L 146.7 49.115625 
L 146.7 34.715625 
L 7.2 34.715625 
z
" style="fill: #ffffff; stroke: #1a1a1a; stroke-linejoin: miter"/>
    </g>
    <g id="text_1">
     <!-- feature_group -->
     <g style="fill: #262626" transform="translate(48.931172 44.244375) scale(0.09 -0.09)">
      <defs>
       <path id="ArialMT-66" d="M 556 0 
L 556 2881 
L 59 2881 
L 59 3319 
L 556 3319 
L 556 3672 
Q 556 4006 616 4169 
Q 697 4388 901 4523 
Q 1106 4659 1475 4659 
Q 1713 4659 2000 4603 
L 1916 4113 
Q 1741 4144 1584 4144 
Q 1328 4144 1222 4034 
Q 1116 3925 1116 3625 
L 1116 3319 
L 1763 3319 
L 1763 2881 
L 1116 2881 
L 1116 0 
L 556 0 
z
" transform="scale(0.015625)"/>
       <path id="ArialMT-65" d="M 2694 1069 
L 3275 997 
Q 3138 488 2766 206 
Q 2394 -75 1816 -75 
Q 1088 -75 661 373 
Q 234 822 234 1631 
Q 234 2469 665 2931 
Q 1097 3394 1784 3394 
Q 2450 3394 2872 2941 
Q 3294 2488 3294 1666 
Q 3294 1616 3291 1516 
L 816 1516 
Q 847 969 1125 678 
Q 1403 388 1819 388 
Q 2128 388 2347 550 
Q 2566 713 2694 1069 
z
M 847 1978 
L 2700 1978 
Q 2663 2397 2488 2606 
Q 2219 2931 1791 2931 
Q 1403 2931 1139 2672 
Q 875 2413 847 1978 
z
" transform="scale(0.015625)"/>
       <path id="ArialMT-61" d="M 2588 409 
Q 2275 144 1986 34 
Q 1697 -75 1366 -75 
Q 819 -75 525 192 
Q 231 459 231 875 
Q 231 1119 342 1320 
Q 453 1522 633 1644 
Q 813 1766 1038 1828 
Q 1203 1872 1538 1913 
Q 2219 1994 2541 2106 
Q 2544 2222 2544 2253 
Q 2544 2597 2384 2738 
Q 2169 2928 1744 2928 
Q 1347 2928 1158 2789 
Q 969 2650 878 2297 
L 328 2372 
Q 403 2725 575 2942 
Q 747 3159 1072 3276 
Q 1397 3394 1825 3394 
Q 2250 3394 2515 3294 
Q 2781 3194 2906 3042 
Q 3031 2891 3081 2659 
Q 3109 2516 3109 2141 
L 3109 1391 
Q 3109 606 3145 398 
Q 3181 191 3288 0 
L 2700 0 
Q 2613 175 2588 409 
z
M 2541 1666 
Q 2234 1541 1622 1453 
Q 1275 1403 1131 1340 
Q 988 1278 909 1158 
Q 831 1038 831 891 
Q 831 666 1001 516 
Q 1172 366 1500 366 
Q 1825 366 2078 508 
Q 2331 650 2450 897 
Q 2541 1088 2541 1459 
L 2541 1666 
z
" transform="scale(0.015625)"/>
       <path id="ArialMT-74" d="M 1650 503 
L 1731 6 
Q 1494 -44 1306 -44 
Q 1000 -44 831 53 
Q 663 150 594 308 
Q 525 466 525 972 
L 525 2881 
L 113 2881 
L 113 3319 
L 525 3319 
L 525 4141 
L 1084 4478 
L 1084 3319 
L 1650 3319 
L 1650 2881 
L 1084 2881 
L 1084 941 
Q 1084 700 1114 631 
Q 1144 563 1211 522 
Q 1278 481 1403 481 
Q 1497 481 1650 503 
z
" transform="scale(0.015625)"/>
       <path id="ArialMT-75" d="M 2597 0 
L 2597 488 
Q 2209 -75 1544 -75 
Q 1250 -75 995 37 
Q 741 150 617 320 
Q 494 491 444 738 
Q 409 903 409 1263 
L 409 3319 
L 972 3319 
L 972 1478 
Q 972 1038 1006 884 
Q 1059 663 1231 536 
Q 1403 409 1656 409 
Q 1909 409 2131 539 
Q 2353 669 2445 892 
Q 2538 1116 2538 1541 
L 2538 3319 
L 3100 3319 
L 3100 0 
L 2597 0 
z
" transform="scale(0.015625)"/>
       <path id="ArialMT-72" d="M 416 0 
L 416 3319 
L 922 3319 
L 922 2816 
Q 1116 3169 1280 3281 
Q 1444 3394 1641 3394 
Q 1925 3394 2219 3213 
L 2025 2691 
Q 1819 2813 1613 2813 
Q 1428 2813 1281 2702 
Q 1134 2591 1072 2394 
Q 978 2094 978 1738 
L 978 0 
L 416 0 
z
" transform="scale(0.015625)"/>
       <path id="ArialMT-5f" d="M -97 -1272 
L -97 -866 
L 3631 -866 
L 3631 -1272 
L -97 -1272 
z
" transform="scale(0.015625)"/>
       <path id="ArialMT-67" d="M 319 -275 
L 866 -356 
Q 900 -609 1056 -725 
Q 1266 -881 1628 -881 
Q 2019 -881 2231 -725 
Q 2444 -569 2519 -288 
Q 2563 -116 2559 434 
Q 2191 0 1641 0 
Q 956 0 581 494 
Q 206 988 206 1678 
Q 206 2153 378 2554 
Q 550 2956 876 3175 
Q 1203 3394 1644 3394 
Q 2231 3394 2613 2919 
L 2613 3319 
L 3131 3319 
L 3131 450 
Q 3131 -325 2973 -648 
Q 2816 -972 2473 -1159 
Q 2131 -1347 1631 -1347 
Q 1038 -1347 672 -1080 
Q 306 -813 319 -275 
z
M 784 1719 
Q 784 1066 1043 766 
Q 1303 466 1694 466 
Q 2081 466 2343 764 
Q 2606 1063 2606 1700 
Q 2606 2309 2336 2618 
Q 2066 2928 1684 2928 
Q 1309 2928 1046 2623 
Q 784 2319 784 1719 
z
" transform="scale(0.015625)"/>
       <path id="ArialMT-6f" d="M 213 1659 
Q 213 2581 725 3025 
Q 1153 3394 1769 3394 
Q 2453 3394 2887 2945 
Q 3322 2497 3322 1706 
Q 3322 1066 3130 698 
Q 2938 331 2570 128 
Q 2203 -75 1769 -75 
Q 1072 -75 642 372 
Q 213 819 213 1659 
z
M 791 1659 
Q 791 1022 1069 705 
Q 1347 388 1769 388 
Q 2188 388 2466 706 
Q 2744 1025 2744 1678 
Q 2744 2294 2464 2611 
Q 2184 2928 1769 2928 
Q 1347 2928 1069 2612 
Q 791 2297 791 1659 
z
" transform="scale(0.015625)"/>
       <path id="ArialMT-70" d="M 422 -1272 
L 422 3319 
L 934 3319 
L 934 2888 
Q 1116 3141 1344 3267 
Q 1572 3394 1897 3394 
Q 2322 3394 2647 3175 
Q 2972 2956 3137 2557 
Q 3303 2159 3303 1684 
Q 3303 1175 3120 767 
Q 2938 359 2589 142 
Q 2241 -75 1856 -75 
Q 1575 -75 1351 44 
Q 1128 163 984 344 
L 984 -1272 
L 422 -1272 
z
M 931 1641 
Q 931 1000 1190 694 
Q 1450 388 1819 388 
Q 2194 388 2461 705 
Q 2728 1022 2728 1688 
Q 2728 2322 2467 2637 
Q 2206 2953 1844 2953 
Q 1484 2953 1207 2617 
Q 931 2281 931 1641 
z
" transform="scale(0.015625)"/>
      </defs>
      <use xlink:href="#ArialMT-66"/>
      <use xlink:href="#ArialMT-65" transform="translate(27.783203 0)"/>
      <use xlink:href="#ArialMT-61" transform="translate(83.398438 0)"/>
      <use xlink:href="#ArialMT-74" transform="translate(139.013672 0)"/>
      <use xlink:href="#ArialMT-75" transform="translate(166.796875 0)"/>
      <use xlink:href="#ArialMT-72" transform="translate(222.412109 0)"/>
      <use xlink:href="#ArialMT-65" transform="translate(255.712891 0)"/>
      <use xlink:href="#ArialMT-5f" transform="translate(311.328125 0)"/>
      <use xlink:href="#ArialMT-67" transform="translate(366.943359 0)"/>
      <use xlink:href="#ArialMT-72" transform="translate(422.558594 0)"/>
      <use xlink:href="#ArialMT-6f" transform="translate(455.859375 0)"/>
      <use xlink:href="#ArialMT-75" transform="translate(511.474609 0)"/>
      <use xlink:href="#ArialMT-70" transform="translate(567.089844 0)"/>
     </g>
    </g>
    <g id="patch_3">
     <path d="M 146.7 49.115625 
L 286.2 49.115625 
L 286.2 34.715625 
L 146.7 34.715625 
z
" style="fill: #ffffff; stroke: #1a1a1a; stroke-linejoin: miter"/>
    </g>
    <g id="text_2">
     <!-- features -->
     <g style="fill: #262626" transform="translate(200.191641 44.242266) scale(0.09 -0.09)">
      <defs>
       <path id="ArialMT-73" d="M 197 991 
L 753 1078 
Q 800 744 1014 566 
Q 1228 388 1613 388 
Q 2000 388 2187 545 
Q 2375 703 2375 916 
Q 2375 1106 2209 1216 
Q 2094 1291 1634 1406 
Q 1016 1563 777 1677 
Q 538 1791 414 1992 
Q 291 2194 291 2438 
Q 291 2659 392 2848 
Q 494 3038 669 3163 
Q 800 3259 1026 3326 
Q 1253 3394 1513 3394 
Q 1903 3394 2198 3281 
Q 2494 3169 2634 2976 
Q 2775 2784 2828 2463 
L 2278 2388 
Q 2241 2644 2061 2787 
Q 1881 2931 1553 2931 
Q 1166 2931 1000 2803 
Q 834 2675 834 2503 
Q 834 2394 903 2306 
Q 972 2216 1119 2156 
Q 1203 2125 1616 2013 
Q 2213 1853 2448 1751 
Q 2684 1650 2818 1456 
Q 2953 1263 2953 975 
Q 2953 694 2789 445 
Q 2625 197 2315 61 
Q 2006 -75 1616 -75 
Q 969 -75 630 194 
Q 291 463 197 991 
z
" transform="scale(0.015625)"/>
      </defs>
      <use xlink:href="#ArialMT-66"/>
      <use xlink:href="#ArialMT-65" transform="translate(27.783203 0)"/>
      <use xlink:href="#ArialMT-61" transform="translate(83.398438 0)"/>
      <use xlink:href="#ArialMT-74" transform="translate(139.013672 0)"/>
      <use xlink:href="#ArialMT-75" transform="translate(166.796875 0)"/>
      <use xlink:href="#ArialMT-72" transform="translate(222.412109 0)"/>
      <use xlink:href="#ArialMT-65" transform="translate(255.712891 0)"/>
      <use xlink:href="#ArialMT-73" transform="translate(311.328125 0)"/>
     </g>
    </g>
    <g id="patch_4">
     <path d="M 286.2 49.115625 
L 425.7 49.115625 
L 425.7 34.715625 
L 286.2 34.715625 
z
" style="fill: #ffffff; stroke: #1a1a1a; stroke-linejoin: miter"/>
    </g>
    <g id="text_3">
     <!-- examples -->
     <g style="fill: #262626" transform="translate(336.692109 44.242266) scale(0.09 -0.09)">
      <defs>
       <path id="ArialMT-78" d="M 47 0 
L 1259 1725 
L 138 3319 
L 841 3319 
L 1350 2541 
Q 1494 2319 1581 2169 
Q 1719 2375 1834 2534 
L 2394 3319 
L 3066 3319 
L 1919 1756 
L 3153 0 
L 2463 0 
L 1781 1031 
L 1600 1309 
L 728 0 
L 47 0 
z
" transform="scale(0.015625)"/>
       <path id="ArialMT-6d" d="M 422 0 
L 422 3319 
L 925 3319 
L 925 2853 
Q 1081 3097 1340 3245 
Q 1600 3394 1931 3394 
Q 2300 3394 2536 3241 
Q 2772 3088 2869 2813 
Q 3263 3394 3894 3394 
Q 4388 3394 4653 3120 
Q 4919 2847 4919 2278 
L 4919 0 
L 4359 0 
L 4359 2091 
Q 4359 2428 4304 2576 
Q 4250 2725 4106 2815 
Q 3963 2906 3769 2906 
Q 3419 2906 3187 2673 
Q 2956 2441 2956 1928 
L 2956 0 
L 2394 0 
L 2394 2156 
Q 2394 2531 2256 2718 
Q 2119 2906 1806 2906 
Q 1569 2906 1367 2781 
Q 1166 2656 1075 2415 
Q 984 2175 984 1722 
L 984 0 
L 422 0 
z
" transform="scale(0.015625)"/>
       <path id="ArialMT-6c" d="M 409 0 
L 409 4581 
L 972 4581 
L 972 0 
L 409 0 
z
" transform="scale(0.015625)"/>
      </defs>
      <use xlink:href="#ArialMT-65"/>
      <use xlink:href="#ArialMT-78" transform="translate(55.615234 0)"/>
      <use xlink:href="#ArialMT-61" transform="translate(105.615234 0)"/>
      <use xlink:href="#ArialMT-6d" transform="translate(161.230469 0)"/>
      <use xlink:href="#ArialMT-70" transform="translate(244.53125 0)"/>
      <use xlink:href="#ArialMT-6c" transform="translate(300.146484 0)"/>
      <use xlink:href="#ArialMT-65" transform="translate(322.363281 0)"/>
      <use xlink:href="#ArialMT-73" transform="translate(377.978516 0)"/>
     </g>
    </g>
    <g id="patch_5">
     <path d="M 425.7 49.115625 
L 565.2 49.115625 
L 565.2 34.715625 
L 425.7 34.715625 
z
" style="fill: #ffffff; stroke: #1a1a1a; stroke-linejoin: miter"/>
    </g>
    <g id="text_4">
     <!-- purpose -->
     <g style="fill: #262626" transform="translate(479.189531 44.242266) scale(0.09 -0.09)">
      <use xlink:href="#ArialMT-70"/>
      <use xlink:href="#ArialMT-75" transform="translate(55.615234 0)"/>
      <use xlink:href="#ArialMT-72" transform="translate(111.230469 0)"/>
      <use xlink:href="#ArialMT-70" transform="translate(144.53125 0)"/>
      <use xlink:href="#ArialMT-6f" transform="translate(200.146484 0)"/>
      <use xlink:href="#ArialMT-73" transform="translate(255.761719 0)"/>
      <use xlink:href="#ArialMT-65" transform="translate(305.761719 0)"/>
     </g>
    </g>
    <g id="patch_6">
     <path d="M 7.2 63.515625 
L 146.7 63.515625 
L 146.7 49.115625 
L 7.2 49.115625 
z
" style="fill: #ffffff; stroke: #1a1a1a; stroke-linejoin: miter"/>
    </g>
    <g id="text_5">
     <!-- Sentiment -->
     <g style="fill: #262626" transform="translate(56.690156 58.642266) scale(0.09 -0.09)">
      <defs>
       <path id="ArialMT-53" d="M 288 1472 
L 859 1522 
Q 900 1178 1048 958 
Q 1197 738 1509 602 
Q 1822 466 2213 466 
Q 2559 466 2825 569 
Q 3091 672 3220 851 
Q 3350 1031 3350 1244 
Q 3350 1459 3225 1620 
Q 3100 1781 2813 1891 
Q 2628 1963 1997 2114 
Q 1366 2266 1113 2400 
Q 784 2572 623 2826 
Q 463 3081 463 3397 
Q 463 3744 659 4045 
Q 856 4347 1234 4503 
Q 1613 4659 2075 4659 
Q 2584 4659 2973 4495 
Q 3363 4331 3572 4012 
Q 3781 3694 3797 3291 
L 3216 3247 
Q 3169 3681 2898 3903 
Q 2628 4125 2100 4125 
Q 1550 4125 1298 3923 
Q 1047 3722 1047 3438 
Q 1047 3191 1225 3031 
Q 1400 2872 2139 2705 
Q 2878 2538 3153 2413 
Q 3553 2228 3743 1945 
Q 3934 1663 3934 1294 
Q 3934 928 3725 604 
Q 3516 281 3123 101 
Q 2731 -78 2241 -78 
Q 1619 -78 1198 103 
Q 778 284 539 648 
Q 300 1013 288 1472 
z
" transform="scale(0.015625)"/>
       <path id="ArialMT-6e" d="M 422 0 
L 422 3319 
L 928 3319 
L 928 2847 
Q 1294 3394 1984 3394 
Q 2284 3394 2536 3286 
Q 2788 3178 2913 3003 
Q 3038 2828 3088 2588 
Q 3119 2431 3119 2041 
L 3119 0 
L 2556 0 
L 2556 2019 
Q 2556 2363 2490 2533 
Q 2425 2703 2258 2804 
Q 2091 2906 1866 2906 
Q 1506 2906 1245 2678 
Q 984 2450 984 1813 
L 984 0 
L 422 0 
z
" transform="scale(0.015625)"/>
       <path id="ArialMT-69" d="M 425 3934 
L 425 4581 
L 988 4581 
L 988 3934 
L 425 3934 
z
M 425 0 
L 425 3319 
L 988 3319 
L 988 0 
L 425 0 
z
" transform="scale(0.015625)"/>
      </defs>
      <use xlink:href="#ArialMT-53"/>
      <use xlink:href="#ArialMT-65" transform="translate(66.699219 0)"/>
      <use xlink:href="#ArialMT-6e" transform="translate(122.314453 0)"/>
      <use xlink:href="#ArialMT-74" transform="translate(177.929688 0)"/>
      <use xlink:href="#ArialMT-69" transform="translate(205.712891 0)"/>
      <use xlink:href="#ArialMT-6d" transform="translate(227.929688 0)"/>
      <use xlink:href="#ArialMT-65" transform="translate(311.230469 0)"/>
      <use xlink:href="#ArialMT-6e" transform="translate(366.845703 0)"/>
      <use xlink:href="#ArialMT-74" transform="translate(422.460938 0)"/>
     </g>
    </g>
    <g id="patch_7">
     <path d="M 146.7 63.515625 
L 286.2 63.515625 
L 286.2 49.115625 
L 146.7 49.115625 
z
" style="fill: #ffffff; stroke: #1a1a1a; stroke-linejoin: miter"/>
    </g>
    <g id="text_6">
     <!-- ensemble_sentiment_mean, num_headlines, model_consensus_mean -->
     <g style="fill: #262626" transform="translate(75.6225 58.642266) scale(0.09 -0.09)">
      <defs>
       <path id="ArialMT-62" d="M 941 0 
L 419 0 
L 419 4581 
L 981 4581 
L 981 2947 
Q 1338 3394 1891 3394 
Q 2197 3394 2470 3270 
Q 2744 3147 2920 2923 
Q 3097 2700 3197 2384 
Q 3297 2069 3297 1709 
Q 3297 856 2875 390 
Q 2453 -75 1863 -75 
Q 1275 -75 941 416 
L 941 0 
z
M 934 1684 
Q 934 1088 1097 822 
Q 1363 388 1816 388 
Q 2184 388 2453 708 
Q 2722 1028 2722 1663 
Q 2722 2313 2464 2622 
Q 2206 2931 1841 2931 
Q 1472 2931 1203 2611 
Q 934 2291 934 1684 
z
" transform="scale(0.015625)"/>
       <path id="ArialMT-2c" d="M 569 0 
L 569 641 
L 1209 641 
L 1209 0 
Q 1209 -353 1084 -570 
Q 959 -788 688 -906 
L 531 -666 
Q 709 -588 793 -436 
Q 878 -284 888 0 
L 569 0 
z
" transform="scale(0.015625)"/>
       <path id="ArialMT-20" transform="scale(0.015625)"/>
       <path id="ArialMT-68" d="M 422 0 
L 422 4581 
L 984 4581 
L 984 2938 
Q 1378 3394 1978 3394 
Q 2347 3394 2619 3248 
Q 2891 3103 3008 2847 
Q 3125 2591 3125 2103 
L 3125 0 
L 2563 0 
L 2563 2103 
Q 2563 2525 2380 2717 
Q 2197 2909 1863 2909 
Q 1613 2909 1392 2779 
Q 1172 2650 1078 2428 
Q 984 2206 984 1816 
L 984 0 
L 422 0 
z
" transform="scale(0.015625)"/>
       <path id="ArialMT-64" d="M 2575 0 
L 2575 419 
Q 2259 -75 1647 -75 
Q 1250 -75 917 144 
Q 584 363 401 755 
Q 219 1147 219 1656 
Q 219 2153 384 2558 
Q 550 2963 881 3178 
Q 1213 3394 1622 3394 
Q 1922 3394 2156 3267 
Q 2391 3141 2538 2938 
L 2538 4581 
L 3097 4581 
L 3097 0 
L 2575 0 
z
M 797 1656 
Q 797 1019 1065 703 
Q 1334 388 1700 388 
Q 2069 388 2326 689 
Q 2584 991 2584 1609 
Q 2584 2291 2321 2609 
Q 2059 2928 1675 2928 
Q 1300 2928 1048 2622 
Q 797 2316 797 1656 
z
" transform="scale(0.015625)"/>
       <path id="ArialMT-63" d="M 2588 1216 
L 3141 1144 
Q 3050 572 2676 248 
Q 2303 -75 1759 -75 
Q 1078 -75 664 370 
Q 250 816 250 1647 
Q 250 2184 428 2587 
Q 606 2991 970 3192 
Q 1334 3394 1763 3394 
Q 2303 3394 2647 3120 
Q 2991 2847 3088 2344 
L 2541 2259 
Q 2463 2594 2264 2762 
Q 2066 2931 1784 2931 
Q 1359 2931 1093 2626 
Q 828 2322 828 1663 
Q 828 994 1084 691 
Q 1341 388 1753 388 
Q 2084 388 2306 591 
Q 2528 794 2588 1216 
z
" transform="scale(0.015625)"/>
      </defs>
      <use xlink:href="#ArialMT-65"/>
      <use xlink:href="#ArialMT-6e" transform="translate(55.615234 0)"/>
      <use xlink:href="#ArialMT-73" transform="translate(111.230469 0)"/>
      <use xlink:href="#ArialMT-65" transform="translate(161.230469 0)"/>
      <use xlink:href="#ArialMT-6d" transform="translate(216.845703 0)"/>
      <use xlink:href="#ArialMT-62" transform="translate(300.146484 0)"/>
      <use xlink:href="#ArialMT-6c" transform="translate(355.761719 0)"/>
      <use xlink:href="#ArialMT-65" transform="translate(377.978516 0)"/>
      <use xlink:href="#ArialMT-5f" transform="translate(433.59375 0)"/>
      <use xlink:href="#ArialMT-73" transform="translate(489.208984 0)"/>
      <use xlink:href="#ArialMT-65" transform="translate(539.208984 0)"/>
      <use xlink:href="#ArialMT-6e" transform="translate(594.824219 0)"/>
      <use xlink:href="#ArialMT-74" transform="translate(650.439453 0)"/>
      <use xlink:href="#ArialMT-69" transform="translate(678.222656 0)"/>
      <use xlink:href="#ArialMT-6d" transform="translate(700.439453 0)"/>
      <use xlink:href="#ArialMT-65" transform="translate(783.740234 0)"/>
      <use xlink:href="#ArialMT-6e" transform="translate(839.355469 0)"/>
      <use xlink:href="#ArialMT-74" transform="translate(894.970703 0)"/>
      <use xlink:href="#ArialMT-5f" transform="translate(922.753906 0)"/>
      <use xlink:href="#ArialMT-6d" transform="translate(978.369141 0)"/>
      <use xlink:href="#ArialMT-65" transform="translate(1061.669922 0)"/>
      <use xlink:href="#ArialMT-61" transform="translate(1117.285156 0)"/>
      <use xlink:href="#ArialMT-6e" transform="translate(1172.900391 0)"/>
      <use xlink:href="#ArialMT-2c" transform="translate(1228.515625 0)"/>
      <use xlink:href="#ArialMT-20" transform="translate(1256.298828 0)"/>
      <use xlink:href="#ArialMT-6e" transform="translate(1284.082031 0)"/>
      <use xlink:href="#ArialMT-75" transform="translate(1339.697266 0)"/>
      <use xlink:href="#ArialMT-6d" transform="translate(1395.3125 0)"/>
      <use xlink:href="#ArialMT-5f" transform="translate(1478.613281 0)"/>
      <use xlink:href="#ArialMT-68" transform="translate(1534.228516 0)"/>
      <use xlink:href="#ArialMT-65" transform="translate(1589.84375 0)"/>
      <use xlink:href="#ArialMT-61" transform="translate(1645.458984 0)"/>
      <use xlink:href="#ArialMT-64" transform="translate(1701.074219 0)"/>
      <use xlink:href="#ArialMT-6c" transform="translate(1756.689453 0)"/>
      <use xlink:href="#ArialMT-69" transform="translate(1778.90625 0)"/>
      <use xlink:href="#ArialMT-6e" transform="translate(1801.123047 0)"/>
      <use xlink:href="#ArialMT-65" transform="translate(1856.738281 0)"/>
      <use xlink:href="#ArialMT-73" transform="translate(1912.353516 0)"/>
      <use xlink:href="#ArialMT-2c" transform="translate(1962.353516 0)"/>
      <use xlink:href="#ArialMT-20" transform="translate(1990.136719 0)"/>
      <use xlink:href="#ArialMT-6d" transform="translate(2017.919922 0)"/>
      <use xlink:href="#ArialMT-6f" transform="translate(2101.220703 0)"/>
      <use xlink:href="#ArialMT-64" transform="translate(2156.835938 0)"/>
      <use xlink:href="#ArialMT-65" transform="translate(2212.451172 0)"/>
      <use xlink:href="#ArialMT-6c" transform="translate(2268.066406 0)"/>
      <use xlink:href="#ArialMT-5f" transform="translate(2290.283203 0)"/>
      <use xlink:href="#ArialMT-63" transform="translate(2345.898438 0)"/>
      <use xlink:href="#ArialMT-6f" transform="translate(2395.898438 0)"/>
      <use xlink:href="#ArialMT-6e" transform="translate(2451.513672 0)"/>
      <use xlink:href="#ArialMT-73" transform="translate(2507.128906 0)"/>
      <use xlink:href="#ArialMT-65" transform="translate(2557.128906 0)"/>
      <use xlink:href="#ArialMT-6e" transform="translate(2612.744141 0)"/>
      <use xlink:href="#ArialMT-73" transform="translate(2668.359375 0)"/>
      <use xlink:href="#ArialMT-75" transform="translate(2718.359375 0)"/>
      <use xlink:href="#ArialMT-73" transform="translate(2773.974609 0)"/>
      <use xlink:href="#ArialMT-5f" transform="translate(2823.974609 0)"/>
      <use xlink:href="#ArialMT-6d" transform="translate(2879.589844 0)"/>
      <use xlink:href="#ArialMT-65" transform="translate(2962.890625 0)"/>
      <use xlink:href="#ArialMT-61" transform="translate(3018.505859 0)"/>
      <use xlink:href="#ArialMT-6e" transform="translate(3074.121094 0)"/>
     </g>
    </g>
    <g id="patch_8">
     <path d="M 286.2 63.515625 
L 425.7 63.515625 
L 425.7 49.115625 
L 286.2 49.115625 
z
" style="fill: #ffffff; stroke: #1a1a1a; stroke-linejoin: miter"/>
    </g>
    <g id="text_7">
     <!-- ensemble_sentiment_mean -->
     <g style="fill: #262626" transform="translate(300.671016 58.642266) scale(0.09 -0.09)">
      <use xlink:href="#ArialMT-65"/>
      <use xlink:href="#ArialMT-6e" transform="translate(55.615234 0)"/>
      <use xlink:href="#ArialMT-73" transform="translate(111.230469 0)"/>
      <use xlink:href="#ArialMT-65" transform="translate(161.230469 0)"/>
      <use xlink:href="#ArialMT-6d" transform="translate(216.845703 0)"/>
      <use xlink:href="#ArialMT-62" transform="translate(300.146484 0)"/>
      <use xlink:href="#ArialMT-6c" transform="translate(355.761719 0)"/>
      <use xlink:href="#ArialMT-65" transform="translate(377.978516 0)"/>
      <use xlink:href="#ArialMT-5f" transform="translate(433.59375 0)"/>
      <use xlink:href="#ArialMT-73" transform="translate(489.208984 0)"/>
      <use xlink:href="#ArialMT-65" transform="translate(539.208984 0)"/>
      <use xlink:href="#ArialMT-6e" transform="translate(594.824219 0)"/>
      <use xlink:href="#ArialMT-74" transform="translate(650.439453 0)"/>
      <use xlink:href="#ArialMT-69" transform="translate(678.222656 0)"/>
      <use xlink:href="#ArialMT-6d" transform="translate(700.439453 0)"/>
      <use xlink:href="#ArialMT-65" transform="translate(783.740234 0)"/>
      <use xlink:href="#ArialMT-6e" transform="translate(839.355469 0)"/>
      <use xlink:href="#ArialMT-74" transform="translate(894.970703 0)"/>
      <use xlink:href="#ArialMT-5f" transform="translate(922.753906 0)"/>
      <use xlink:href="#ArialMT-6d" transform="translate(978.369141 0)"/>
      <use xlink:href="#ArialMT-65" transform="translate(1061.669922 0)"/>
      <use xlink:href="#ArialMT-61" transform="translate(1117.285156 0)"/>
      <use xlink:href="#ArialMT-6e" transform="translate(1172.900391 0)"/>
     </g>
    </g>
    <g id="patch_9">
     <path d="M 425.7 63.515625 
L 565.2 63.515625 
L 565.2 49.115625 
L 425.7 49.115625 
z
" style="fill: #ffffff; stroke: #1a1a1a; stroke-linejoin: miter"/>
    </g>
    <g id="text_8">
     <!-- Text signal -->
     <g style="fill: #262626" transform="translate(474.192422 58.589531) scale(0.09 -0.09)">
      <defs>
       <path id="ArialMT-54" d="M 1659 0 
L 1659 4041 
L 150 4041 
L 150 4581 
L 3781 4581 
L 3781 4041 
L 2266 4041 
L 2266 0 
L 1659 0 
z
" transform="scale(0.015625)"/>
      </defs>
      <use xlink:href="#ArialMT-54"/>
      <use xlink:href="#ArialMT-65" transform="translate(49.958984 0)"/>
      <use xlink:href="#ArialMT-78" transform="translate(105.574219 0)"/>
      <use xlink:href="#ArialMT-74" transform="translate(155.574219 0)"/>
      <use xlink:href="#ArialMT-20" transform="translate(183.357422 0)"/>
      <use xlink:href="#ArialMT-73" transform="translate(211.140625 0)"/>
      <use xlink:href="#ArialMT-69" transform="translate(261.140625 0)"/>
      <use xlink:href="#ArialMT-67" transform="translate(283.357422 0)"/>
      <use xlink:href="#ArialMT-6e" transform="translate(338.972656 0)"/>
      <use xlink:href="#ArialMT-61" transform="translate(394.587891 0)"/>
      <use xlink:href="#ArialMT-6c" transform="translate(450.203125 0)"/>
     </g>
    </g>
    <g id="patch_10">
     <path d="M 7.2 77.915625 
L 146.7 77.915625 
L 146.7 63.515625 
L 7.2 63.515625 
z
" style="fill: #ffffff; stroke: #1a1a1a; stroke-linejoin: miter"/>
    </g>
    <g id="text_9">
     <!-- Technical -->
     <g style="fill: #262626" transform="translate(58.192734 73.042266) scale(0.09 -0.09)">
      <use xlink:href="#ArialMT-54"/>
      <use xlink:href="#ArialMT-65" transform="translate(49.958984 0)"/>
      <use xlink:href="#ArialMT-63" transform="translate(105.574219 0)"/>
      <use xlink:href="#ArialMT-68" transform="translate(155.574219 0)"/>
      <use xlink:href="#ArialMT-6e" transform="translate(211.189453 0)"/>
      <use xlink:href="#ArialMT-69" transform="translate(266.804688 0)"/>
      <use xlink:href="#ArialMT-63" transform="translate(289.021484 0)"/>
      <use xlink:href="#ArialMT-61" transform="translate(339.021484 0)"/>
      <use xlink:href="#ArialMT-6c" transform="translate(394.636719 0)"/>
     </g>
    </g>
    <g id="patch_11">
     <path d="M 146.7 77.915625 
L 286.2 77.915625 
L 286.2 63.515625 
L 146.7 63.515625 
z
" style="fill: #ffffff; stroke: #1a1a1a; stroke-linejoin: miter"/>
    </g>
    <g id="text_10">
     <!-- RSI, MACD, VWAP, ATR -->
     <g style="fill: #262626" transform="translate(167.272734 73.042266) scale(0.09 -0.09)">
      <defs>
       <path id="ArialMT-52" d="M 503 0 
L 503 4581 
L 2534 4581 
Q 3147 4581 3465 4457 
Q 3784 4334 3975 4021 
Q 4166 3709 4166 3331 
Q 4166 2844 3850 2509 
Q 3534 2175 2875 2084 
Q 3116 1969 3241 1856 
Q 3506 1613 3744 1247 
L 4541 0 
L 3778 0 
L 3172 953 
Q 2906 1366 2734 1584 
Q 2563 1803 2427 1890 
Q 2291 1978 2150 2013 
Q 2047 2034 1813 2034 
L 1109 2034 
L 1109 0 
L 503 0 
z
M 1109 2559 
L 2413 2559 
Q 2828 2559 3062 2645 
Q 3297 2731 3419 2920 
Q 3541 3109 3541 3331 
Q 3541 3656 3305 3865 
Q 3069 4075 2559 4075 
L 1109 4075 
L 1109 2559 
z
" transform="scale(0.015625)"/>
       <path id="ArialMT-49" d="M 597 0 
L 597 4581 
L 1203 4581 
L 1203 0 
L 597 0 
z
" transform="scale(0.015625)"/>
       <path id="ArialMT-4d" d="M 475 0 
L 475 4581 
L 1388 4581 
L 2472 1338 
Q 2622 884 2691 659 
Q 2769 909 2934 1394 
L 4031 4581 
L 4847 4581 
L 4847 0 
L 4263 0 
L 4263 3834 
L 2931 0 
L 2384 0 
L 1059 3900 
L 1059 0 
L 475 0 
z
" transform="scale(0.015625)"/>
       <path id="ArialMT-41" d="M -9 0 
L 1750 4581 
L 2403 4581 
L 4278 0 
L 3588 0 
L 3053 1388 
L 1138 1388 
L 634 0 
L -9 0 
z
M 1313 1881 
L 2866 1881 
L 2388 3150 
Q 2169 3728 2063 4100 
Q 1975 3659 1816 3225 
L 1313 1881 
z
" transform="scale(0.015625)"/>
       <path id="ArialMT-43" d="M 3763 1606 
L 4369 1453 
Q 4178 706 3683 314 
Q 3188 -78 2472 -78 
Q 1731 -78 1267 223 
Q 803 525 561 1097 
Q 319 1669 319 2325 
Q 319 3041 592 3573 
Q 866 4106 1370 4382 
Q 1875 4659 2481 4659 
Q 3169 4659 3637 4309 
Q 4106 3959 4291 3325 
L 3694 3184 
Q 3534 3684 3231 3912 
Q 2928 4141 2469 4141 
Q 1941 4141 1586 3887 
Q 1231 3634 1087 3207 
Q 944 2781 944 2328 
Q 944 1744 1114 1308 
Q 1284 872 1643 656 
Q 2003 441 2422 441 
Q 2931 441 3284 734 
Q 3638 1028 3763 1606 
z
" transform="scale(0.015625)"/>
       <path id="ArialMT-44" d="M 494 0 
L 494 4581 
L 2072 4581 
Q 2606 4581 2888 4516 
Q 3281 4425 3559 4188 
Q 3922 3881 4101 3404 
Q 4281 2928 4281 2316 
Q 4281 1794 4159 1391 
Q 4038 988 3847 723 
Q 3656 459 3429 307 
Q 3203 156 2883 78 
Q 2563 0 2147 0 
L 494 0 
z
M 1100 541 
L 2078 541 
Q 2531 541 2789 625 
Q 3047 709 3200 863 
Q 3416 1078 3536 1442 
Q 3656 1806 3656 2325 
Q 3656 3044 3420 3430 
Q 3184 3816 2847 3947 
Q 2603 4041 2063 4041 
L 1100 4041 
L 1100 541 
z
" transform="scale(0.015625)"/>
       <path id="ArialMT-56" d="M 1803 0 
L 28 4581 
L 684 4581 
L 1875 1253 
Q 2019 853 2116 503 
Q 2222 878 2363 1253 
L 3600 4581 
L 4219 4581 
L 2425 0 
L 1803 0 
z
" transform="scale(0.015625)"/>
       <path id="ArialMT-57" d="M 1294 0 
L 78 4581 
L 700 4581 
L 1397 1578 
Q 1509 1106 1591 641 
Q 1766 1375 1797 1488 
L 2669 4581 
L 3400 4581 
L 4056 2263 
Q 4303 1400 4413 641 
Q 4500 1075 4641 1638 
L 5359 4581 
L 5969 4581 
L 4713 0 
L 4128 0 
L 3163 3491 
Q 3041 3928 3019 4028 
Q 2947 3713 2884 3491 
L 1913 0 
L 1294 0 
z
" transform="scale(0.015625)"/>
       <path id="ArialMT-50" d="M 494 0 
L 494 4581 
L 2222 4581 
Q 2678 4581 2919 4538 
Q 3256 4481 3484 4323 
Q 3713 4166 3852 3881 
Q 3991 3597 3991 3256 
Q 3991 2672 3619 2267 
Q 3247 1863 2275 1863 
L 1100 1863 
L 1100 0 
L 494 0 
z
M 1100 2403 
L 2284 2403 
Q 2872 2403 3119 2622 
Q 3366 2841 3366 3238 
Q 3366 3525 3220 3729 
Q 3075 3934 2838 4000 
Q 2684 4041 2272 4041 
L 1100 4041 
L 1100 2403 
z
" transform="scale(0.015625)"/>
      </defs>
      <use xlink:href="#ArialMT-52"/>
      <use xlink:href="#ArialMT-53" transform="translate(72.216797 0)"/>
      <use xlink:href="#ArialMT-49" transform="translate(138.916016 0)"/>
      <use xlink:href="#ArialMT-2c" transform="translate(166.699219 0)"/>
      <use xlink:href="#ArialMT-20" transform="translate(194.482422 0)"/>
      <use xlink:href="#ArialMT-4d" transform="translate(222.265625 0)"/>
      <use xlink:href="#ArialMT-41" transform="translate(305.566406 0)"/>
      <use xlink:href="#ArialMT-43" transform="translate(372.265625 0)"/>
      <use xlink:href="#ArialMT-44" transform="translate(444.482422 0)"/>
      <use xlink:href="#ArialMT-2c" transform="translate(516.699219 0)"/>
      <use xlink:href="#ArialMT-20" transform="translate(544.482422 0)"/>
      <use xlink:href="#ArialMT-56" transform="translate(572.265625 0)"/>
      <use xlink:href="#ArialMT-57" transform="translate(638.964844 0)"/>
      <use xlink:href="#ArialMT-41" transform="translate(729.599609 0)"/>
      <use xlink:href="#ArialMT-50" transform="translate(796.298828 0)"/>
      <use xlink:href="#ArialMT-2c" transform="translate(850.123047 0)"/>
      <use xlink:href="#ArialMT-20" transform="translate(877.90625 0)"/>
      <use xlink:href="#ArialMT-41" transform="translate(900.189453 0)"/>
      <use xlink:href="#ArialMT-54" transform="translate(959.513672 0)"/>
      <use xlink:href="#ArialMT-52" transform="translate(1020.597656 0)"/>
     </g>
    </g>
    <g id="patch_12">
     <path d="M 286.2 77.915625 
L 425.7 77.915625 
L 425.7 63.515625 
L 286.2 63.515625 
z
" style="fill: #ffffff; stroke: #1a1a1a; stroke-linejoin: miter"/>
    </g>
    <g id="text_11">
     <!-- RSI -->
     <g style="fill: #262626" transform="translate(348.448359 73.042266) scale(0.09 -0.09)">
      <use xlink:href="#ArialMT-52"/>
      <use xlink:href="#ArialMT-53" transform="translate(72.216797 0)"/>
      <use xlink:href="#ArialMT-49" transform="translate(138.916016 0)"/>
     </g>
    </g>
    <g id="patch_13">
     <path d="M 425.7 77.915625 
L 565.2 77.915625 
L 565.2 63.515625 
L 425.7 63.515625 
z
" style="fill: #ffffff; stroke: #1a1a1a; stroke-linejoin: miter"/>
    </g>
    <g id="text_12">
     <!-- Price dynamics -->
     <g style="fill: #262626" transform="translate(464.942109 72.989531) scale(0.09 -0.09)">
      <defs>
       <path id="ArialMT-79" d="M 397 -1278 
L 334 -750 
Q 519 -800 656 -800 
Q 844 -800 956 -737 
Q 1069 -675 1141 -563 
Q 1194 -478 1313 -144 
Q 1328 -97 1363 -6 
L 103 3319 
L 709 3319 
L 1400 1397 
Q 1534 1031 1641 628 
Q 1738 1016 1872 1384 
L 2581 3319 
L 3144 3319 
L 1881 -56 
Q 1678 -603 1566 -809 
Q 1416 -1088 1222 -1217 
Q 1028 -1347 759 -1347 
Q 597 -1347 397 -1278 
z
" transform="scale(0.015625)"/>
      </defs>
      <use xlink:href="#ArialMT-50"/>
      <use xlink:href="#ArialMT-72" transform="translate(66.699219 0)"/>
      <use xlink:href="#ArialMT-69" transform="translate(100 0)"/>
      <use xlink:href="#ArialMT-63" transform="translate(122.216797 0)"/>
      <use xlink:href="#ArialMT-65" transform="translate(172.216797 0)"/>
      <use xlink:href="#ArialMT-20" transform="translate(227.832031 0)"/>
      <use xlink:href="#ArialMT-64" transform="translate(255.615234 0)"/>
      <use xlink:href="#ArialMT-79" transform="translate(311.230469 0)"/>
      <use xlink:href="#ArialMT-6e" transform="translate(361.230469 0)"/>
      <use xlink:href="#ArialMT-61" transform="translate(416.845703 0)"/>
      <use xlink:href="#ArialMT-6d" transform="translate(472.460938 0)"/>
      <use xlink:href="#ArialMT-69" transform="translate(555.761719 0)"/>
      <use xlink:href="#ArialMT-63" transform="translate(577.978516 0)"/>
      <use xlink:href="#ArialMT-73" transform="translate(627.978516 0)"/>
     </g>
    </g>
    <g id="patch_14">
     <path d="M 7.2 92.315625 
L 146.7 92.315625 
L 146.7 77.915625 
L 7.2 77.915625 
z
" style="fill: #ffffff; stroke: #1a1a1a; stroke-linejoin: miter"/>
    </g>
    <g id="text_13">
     <!-- Lagged -->
     <g style="fill: #262626" transform="translate(61.935469 87.389531) scale(0.09 -0.09)">
      <defs>
       <path id="ArialMT-4c" d="M 469 0 
L 469 4581 
L 1075 4581 
L 1075 541 
L 3331 541 
L 3331 0 
L 469 0 
z
" transform="scale(0.015625)"/>
      </defs>
      <use xlink:href="#ArialMT-4c"/>
      <use xlink:href="#ArialMT-61" transform="translate(55.615234 0)"/>
      <use xlink:href="#ArialMT-67" transform="translate(111.230469 0)"/>
      <use xlink:href="#ArialMT-67" transform="translate(166.845703 0)"/>
      <use xlink:href="#ArialMT-65" transform="translate(222.460938 0)"/>
      <use xlink:href="#ArialMT-64" transform="translate(278.076172 0)"/>
     </g>
    </g>
    <g id="patch_15">
     <path d="M 146.7 92.315625 
L 286.2 92.315625 
L 286.2 77.915625 
L 146.7 77.915625 
z
" style="fill: #ffffff; stroke: #1a1a1a; stroke-linejoin: miter"/>
    </g>
    <g id="text_14">
     <!-- ensemble_sentiment_mean_lag1, daily_return_lag1 -->
     <g style="fill: #262626" transform="translate(113.140547 87.402891) scale(0.09 -0.09)">
      <defs>
       <path id="ArialMT-31" d="M 2384 0 
L 1822 0 
L 1822 3584 
Q 1619 3391 1289 3197 
Q 959 3003 697 2906 
L 697 3450 
Q 1169 3672 1522 3987 
Q 1875 4303 2022 4600 
L 2384 4600 
L 2384 0 
z
" transform="scale(0.015625)"/>
      </defs>
      <use xlink:href="#ArialMT-65"/>
      <use xlink:href="#ArialMT-6e" transform="translate(55.615234 0)"/>
      <use xlink:href="#ArialMT-73" transform="translate(111.230469 0)"/>
      <use xlink:href="#ArialMT-65" transform="translate(161.230469 0)"/>
      <use xlink:href="#ArialMT-6d" transform="translate(216.845703 0)"/>
      <use xlink:href="#ArialMT-62" transform="translate(300.146484 0)"/>
      <use xlink:href="#ArialMT-6c" transform="translate(355.761719 0)"/>
      <use xlink:href="#ArialMT-65" transform="translate(377.978516 0)"/>
      <use xlink:href="#ArialMT-5f" transform="translate(433.59375 0)"/>
      <use xlink:href="#ArialMT-73" transform="translate(489.208984 0)"/>
      <use xlink:href="#ArialMT-65" transform="translate(539.208984 0)"/>
      <use xlink:href="#ArialMT-6e" transform="translate(594.824219 0)"/>
      <use xlink:href="#ArialMT-74" transform="translate(650.439453 0)"/>
      <use xlink:href="#ArialMT-69" transform="translate(678.222656 0)"/>
      <use xlink:href="#ArialMT-6d" transform="translate(700.439453 0)"/>
      <use xlink:href="#ArialMT-65" transform="translate(783.740234 0)"/>
      <use xlink:href="#ArialMT-6e" transform="translate(839.355469 0)"/>
      <use xlink:href="#ArialMT-74" transform="translate(894.970703 0)"/>
      <use xlink:href="#ArialMT-5f" transform="translate(922.753906 0)"/>
      <use xlink:href="#ArialMT-6d" transform="translate(978.369141 0)"/>
      <use xlink:href="#ArialMT-65" transform="translate(1061.669922 0)"/>
      <use xlink:href="#ArialMT-61" transform="translate(1117.285156 0)"/>
      <use xlink:href="#ArialMT-6e" transform="translate(1172.900391 0)"/>
      <use xlink:href="#ArialMT-5f" transform="translate(1228.515625 0)"/>
      <use xlink:href="#ArialMT-6c" transform="translate(1284.130859 0)"/>
      <use xlink:href="#ArialMT-61" transform="translate(1306.347656 0)"/>
      <use xlink:href="#ArialMT-67" transform="translate(1361.962891 0)"/>
      <use xlink:href="#ArialMT-31" transform="translate(1417.578125 0)"/>
      <use xlink:href="#ArialMT-2c" transform="translate(1473.193359 0)"/>
      <use xlink:href="#ArialMT-20" transform="translate(1500.976562 0)"/>
      <use xlink:href="#ArialMT-64" transform="translate(1528.759766 0)"/>
      <use xlink:href="#ArialMT-61" transform="translate(1584.375 0)"/>
      <use xlink:href="#ArialMT-69" transform="translate(1639.990234 0)"/>
      <use xlink:href="#ArialMT-6c" transform="translate(1662.207031 0)"/>
      <use xlink:href="#ArialMT-79" transform="translate(1684.423828 0)"/>
      <use xlink:href="#ArialMT-5f" transform="translate(1734.423828 0)"/>
      <use xlink:href="#ArialMT-72" transform="translate(1790.039062 0)"/>
      <use xlink:href="#ArialMT-65" transform="translate(1823.339844 0)"/>
      <use xlink:href="#ArialMT-74" transform="translate(1878.955078 0)"/>
      <use xlink:href="#ArialMT-75" transform="translate(1906.738281 0)"/>
      <use xlink:href="#ArialMT-72" transform="translate(1962.353516 0)"/>
      <use xlink:href="#ArialMT-6e" transform="translate(1995.654297 0)"/>
      <use xlink:href="#ArialMT-5f" transform="translate(2051.269531 0)"/>
      <use xlink:href="#ArialMT-6c" transform="translate(2106.884766 0)"/>
      <use xlink:href="#ArialMT-61" transform="translate(2129.101562 0)"/>
      <use xlink:href="#ArialMT-67" transform="translate(2184.716797 0)"/>
      <use xlink:href="#ArialMT-31" transform="translate(2240.332031 0)"/>
     </g>
    </g>
    <g id="patch_16">
     <path d="M 286.2 92.315625 
L 425.7 92.315625 
L 425.7 77.915625 
L 286.2 77.915625 
z
" style="fill: #ffffff; stroke: #1a1a1a; stroke-linejoin: miter"/>
    </g>
    <g id="text_15">
     <!-- ensemble_sentiment_mean_lag1 -->
     <g style="fill: #262626" transform="translate(289.661484 87.402891) scale(0.09 -0.09)">
      <use xlink:href="#ArialMT-65"/>
      <use xlink:href="#ArialMT-6e" transform="translate(55.615234 0)"/>
      <use xlink:href="#ArialMT-73" transform="translate(111.230469 0)"/>
      <use xlink:href="#ArialMT-65" transform="translate(161.230469 0)"/>
      <use xlink:href="#ArialMT-6d" transform="translate(216.845703 0)"/>
      <use xlink:href="#ArialMT-62" transform="translate(300.146484 0)"/>
      <use xlink:href="#ArialMT-6c" transform="translate(355.761719 0)"/>
      <use xlink:href="#ArialMT-65" transform="translate(377.978516 0)"/>
      <use xlink:href="#ArialMT-5f" transform="translate(433.59375 0)"/>
      <use xlink:href="#ArialMT-73" transform="translate(489.208984 0)"/>
      <use xlink:href="#ArialMT-65" transform="translate(539.208984 0)"/>
      <use xlink:href="#ArialMT-6e" transform="translate(594.824219 0)"/>
      <use xlink:href="#ArialMT-74" transform="translate(650.439453 0)"/>
      <use xlink:href="#ArialMT-69" transform="translate(678.222656 0)"/>
      <use xlink:href="#ArialMT-6d" transform="translate(700.439453 0)"/>
      <use xlink:href="#ArialMT-65" transform="translate(783.740234 0)"/>
      <use xlink:href="#ArialMT-6e" transform="translate(839.355469 0)"/>
      <use xlink:href="#ArialMT-74" transform="translate(894.970703 0)"/>
      <use xlink:href="#ArialMT-5f" transform="translate(922.753906 0)"/>
      <use xlink:href="#ArialMT-6d" transform="translate(978.369141 0)"/>
      <use xlink:href="#ArialMT-65" transform="translate(1061.669922 0)"/>
      <use xlink:href="#ArialMT-61" transform="translate(1117.285156 0)"/>
      <use xlink:href="#ArialMT-6e" transform="translate(1172.900391 0)"/>
      <use xlink:href="#ArialMT-5f" transform="translate(1228.515625 0)"/>
      <use xlink:href="#ArialMT-6c" transform="translate(1284.130859 0)"/>
      <use xlink:href="#ArialMT-61" transform="translate(1306.347656 0)"/>
      <use xlink:href="#ArialMT-67" transform="translate(1361.962891 0)"/>
      <use xlink:href="#ArialMT-31" transform="translate(1417.578125 0)"/>
     </g>
    </g>
    <g id="patch_17">
     <path d="M 425.7 92.315625 
L 565.2 92.315625 
L 565.2 77.915625 
L 425.7 77.915625 
z
" style="fill: #ffffff; stroke: #1a1a1a; stroke-linejoin: miter"/>
    </g>
    <g id="text_16">
     <!-- Autoregression -->
     <g style="fill: #262626" transform="translate(465.184688 87.389531) scale(0.09 -0.09)">
      <use xlink:href="#ArialMT-41"/>
      <use xlink:href="#ArialMT-75" transform="translate(66.699219 0)"/>
      <use xlink:href="#ArialMT-74" transform="translate(122.314453 0)"/>
      <use xlink:href="#ArialMT-6f" transform="translate(150.097656 0)"/>
      <use xlink:href="#ArialMT-72" transform="translate(205.712891 0)"/>
      <use xlink:href="#ArialMT-65" transform="translate(239.013672 0)"/>
      <use xlink:href="#ArialMT-67" transform="translate(294.628906 0)"/>
      <use xlink:href="#ArialMT-72" transform="translate(350.244141 0)"/>
      <use xlink:href="#ArialMT-65" transform="translate(383.544922 0)"/>
      <use xlink:href="#ArialMT-73" transform="translate(439.160156 0)"/>
      <use xlink:href="#ArialMT-73" transform="translate(489.160156 0)"/>
      <use xlink:href="#ArialMT-69" transform="translate(539.160156 0)"/>
      <use xlink:href="#ArialMT-6f" transform="translate(561.376953 0)"/>
      <use xlink:href="#ArialMT-6e" transform="translate(616.992188 0)"/>
     </g>
    </g>
   </g>
   <g id="text_17">
    <!-- Table 2 — Feature Groups -->
    <g style="fill: #262626" transform="translate(211.964063 15.935625) scale(0.12 -0.12)">
     <defs>
      <path id="Arial-BoldMT-54" d="M 1497 0 
L 1497 3806 
L 138 3806 
L 138 4581 
L 3778 4581 
L 3778 3806 
L 2422 3806 
L 2422 0 
L 1497 0 
z
" transform="scale(0.015625)"/>
      <path id="Arial-BoldMT-61" d="M 1116 2306 
L 319 2450 
Q 453 2931 781 3162 
Q 1109 3394 1756 3394 
Q 2344 3394 2631 3255 
Q 2919 3116 3036 2902 
Q 3153 2688 3153 2116 
L 3144 1091 
Q 3144 653 3186 445 
Q 3228 238 3344 0 
L 2475 0 
Q 2441 88 2391 259 
Q 2369 338 2359 363 
Q 2134 144 1878 34 
Q 1622 -75 1331 -75 
Q 819 -75 523 203 
Q 228 481 228 906 
Q 228 1188 362 1408 
Q 497 1628 739 1745 
Q 981 1863 1438 1950 
Q 2053 2066 2291 2166 
L 2291 2253 
Q 2291 2506 2166 2614 
Q 2041 2722 1694 2722 
Q 1459 2722 1328 2630 
Q 1197 2538 1116 2306 
z
M 2291 1594 
Q 2122 1538 1756 1459 
Q 1391 1381 1278 1306 
Q 1106 1184 1106 997 
Q 1106 813 1243 678 
Q 1381 544 1594 544 
Q 1831 544 2047 700 
Q 2206 819 2256 991 
Q 2291 1103 2291 1419 
L 2291 1594 
z
" transform="scale(0.015625)"/>
      <path id="Arial-BoldMT-62" d="M 422 0 
L 422 4581 
L 1300 4581 
L 1300 2931 
Q 1706 3394 2263 3394 
Q 2869 3394 3266 2955 
Q 3663 2516 3663 1694 
Q 3663 844 3258 384 
Q 2853 -75 2275 -75 
Q 1991 -75 1714 67 
Q 1438 209 1238 488 
L 1238 0 
L 422 0 
z
M 1294 1731 
Q 1294 1216 1456 969 
Q 1684 619 2063 619 
Q 2353 619 2558 867 
Q 2763 1116 2763 1650 
Q 2763 2219 2556 2470 
Q 2350 2722 2028 2722 
Q 1713 2722 1503 2476 
Q 1294 2231 1294 1731 
z
" transform="scale(0.015625)"/>
      <path id="Arial-BoldMT-6c" d="M 459 0 
L 459 4581 
L 1338 4581 
L 1338 0 
L 459 0 
z
" transform="scale(0.015625)"/>
      <path id="Arial-BoldMT-65" d="M 2381 1056 
L 3256 909 
Q 3088 428 2723 176 
Q 2359 -75 1813 -75 
Q 947 -75 531 491 
Q 203 944 203 1634 
Q 203 2459 634 2926 
Q 1066 3394 1725 3394 
Q 2466 3394 2894 2905 
Q 3322 2416 3303 1406 
L 1103 1406 
Q 1113 1016 1316 798 
Q 1519 581 1822 581 
Q 2028 581 2168 693 
Q 2309 806 2381 1056 
z
M 2431 1944 
Q 2422 2325 2234 2523 
Q 2047 2722 1778 2722 
Q 1491 2722 1303 2513 
Q 1116 2303 1119 1944 
L 2431 1944 
z
" transform="scale(0.015625)"/>
      <path id="Arial-BoldMT-20" transform="scale(0.015625)"/>
      <path id="Arial-BoldMT-32" d="M 3238 816 
L 3238 0 
L 159 0 
Q 209 463 459 877 
Q 709 1291 1447 1975 
Q 2041 2528 2175 2725 
Q 2356 2997 2356 3263 
Q 2356 3556 2198 3714 
Q 2041 3872 1763 3872 
Q 1488 3872 1325 3706 
Q 1163 3541 1138 3156 
L 263 3244 
Q 341 3969 753 4284 
Q 1166 4600 1784 4600 
Q 2463 4600 2850 4234 
Q 3238 3869 3238 3325 
Q 3238 3016 3127 2736 
Q 3016 2456 2775 2150 
Q 2616 1947 2200 1565 
Q 1784 1184 1673 1059 
Q 1563 934 1494 816 
L 3238 816 
z
" transform="scale(0.015625)"/>
      <path id="Arial-BoldMT-2014" d="M 0 1331 
L 0 1988 
L 6400 1988 
L 6400 1331 
L 0 1331 
z
" transform="scale(0.015625)"/>
      <path id="Arial-BoldMT-46" d="M 472 0 
L 472 4581 
L 3613 4581 
L 3613 3806 
L 1397 3806 
L 1397 2722 
L 3309 2722 
L 3309 1947 
L 1397 1947 
L 1397 0 
L 472 0 
z
" transform="scale(0.015625)"/>
      <path id="Arial-BoldMT-74" d="M 1981 3319 
L 1981 2619 
L 1381 2619 
L 1381 1281 
Q 1381 875 1398 808 
Q 1416 741 1477 697 
Q 1538 653 1625 653 
Q 1747 653 1978 738 
L 2053 56 
Q 1747 -75 1359 -75 
Q 1122 -75 931 4 
Q 741 84 652 211 
Q 563 338 528 553 
Q 500 706 500 1172 
L 500 2619 
L 97 2619 
L 97 3319 
L 500 3319 
L 500 3978 
L 1381 4491 
L 1381 3319 
L 1981 3319 
z
" transform="scale(0.015625)"/>
      <path id="Arial-BoldMT-75" d="M 2644 0 
L 2644 497 
Q 2463 231 2167 78 
Q 1872 -75 1544 -75 
Q 1209 -75 943 72 
Q 678 219 559 484 
Q 441 750 441 1219 
L 441 3319 
L 1319 3319 
L 1319 1794 
Q 1319 1094 1367 936 
Q 1416 778 1544 686 
Q 1672 594 1869 594 
Q 2094 594 2272 717 
Q 2450 841 2515 1023 
Q 2581 1206 2581 1919 
L 2581 3319 
L 3459 3319 
L 3459 0 
L 2644 0 
z
" transform="scale(0.015625)"/>
      <path id="Arial-BoldMT-72" d="M 1300 0 
L 422 0 
L 422 3319 
L 1238 3319 
L 1238 2847 
Q 1447 3181 1614 3287 
Q 1781 3394 1994 3394 
Q 2294 3394 2572 3228 
L 2300 2463 
Q 2078 2606 1888 2606 
Q 1703 2606 1575 2504 
Q 1447 2403 1373 2137 
Q 1300 1872 1300 1025 
L 1300 0 
z
" transform="scale(0.015625)"/>
      <path id="Arial-BoldMT-47" d="M 2597 1684 
L 2597 2456 
L 4591 2456 
L 4591 631 
Q 4300 350 3748 136 
Q 3197 -78 2631 -78 
Q 1913 -78 1378 223 
Q 844 525 575 1086 
Q 306 1647 306 2306 
Q 306 3022 606 3578 
Q 906 4134 1484 4431 
Q 1925 4659 2581 4659 
Q 3434 4659 3914 4301 
Q 4394 3944 4531 3313 
L 3613 3141 
Q 3516 3478 3248 3673 
Q 2981 3869 2581 3869 
Q 1975 3869 1617 3484 
Q 1259 3100 1259 2344 
Q 1259 1528 1621 1120 
Q 1984 713 2572 713 
Q 2863 713 3155 827 
Q 3447 941 3656 1103 
L 3656 1684 
L 2597 1684 
z
" transform="scale(0.015625)"/>
      <path id="Arial-BoldMT-6f" d="M 256 1706 
Q 256 2144 472 2553 
Q 688 2963 1083 3178 
Q 1478 3394 1966 3394 
Q 2719 3394 3200 2905 
Q 3681 2416 3681 1669 
Q 3681 916 3195 420 
Q 2709 -75 1972 -75 
Q 1516 -75 1102 131 
Q 688 338 472 736 
Q 256 1134 256 1706 
z
M 1156 1659 
Q 1156 1166 1390 903 
Q 1625 641 1969 641 
Q 2313 641 2545 903 
Q 2778 1166 2778 1666 
Q 2778 2153 2545 2415 
Q 2313 2678 1969 2678 
Q 1625 2678 1390 2415 
Q 1156 2153 1156 1659 
z
" transform="scale(0.015625)"/>
      <path id="Arial-BoldMT-70" d="M 434 3319 
L 1253 3319 
L 1253 2831 
Q 1413 3081 1684 3237 
Q 1956 3394 2288 3394 
Q 2866 3394 3269 2941 
Q 3672 2488 3672 1678 
Q 3672 847 3265 386 
Q 2859 -75 2281 -75 
Q 2006 -75 1782 34 
Q 1559 144 1313 409 
L 1313 -1263 
L 434 -1263 
L 434 3319 
z
M 1303 1716 
Q 1303 1156 1525 889 
Q 1747 622 2066 622 
Q 2372 622 2575 867 
Q 2778 1113 2778 1672 
Q 2778 2194 2568 2447 
Q 2359 2700 2050 2700 
Q 1728 2700 1515 2451 
Q 1303 2203 1303 1716 
z
" transform="scale(0.015625)"/>
      <path id="Arial-BoldMT-73" d="M 150 947 
L 1031 1081 
Q 1088 825 1259 692 
Q 1431 559 1741 559 
Q 2081 559 2253 684 
Q 2369 772 2369 919 
Q 2369 1019 2306 1084 
Q 2241 1147 2013 1200 
Q 950 1434 666 1628 
Q 272 1897 272 2375 
Q 272 2806 612 3100 
Q 953 3394 1669 3394 
Q 2350 3394 2681 3172 
Q 3013 2950 3138 2516 
L 2309 2363 
Q 2256 2556 2107 2659 
Q 1959 2763 1684 2763 
Q 1338 2763 1188 2666 
Q 1088 2597 1088 2488 
Q 1088 2394 1175 2328 
Q 1294 2241 1995 2081 
Q 2697 1922 2975 1691 
Q 3250 1456 3250 1038 
Q 3250 581 2869 253 
Q 2488 -75 1741 -75 
Q 1063 -75 667 200 
Q 272 475 150 947 
z
" transform="scale(0.015625)"/>
     </defs>
     <use xlink:href="#Arial-BoldMT-54"/>
     <use xlink:href="#Arial-BoldMT-61" transform="translate(53.708984 0)"/>
     <use xlink:href="#Arial-BoldMT-62" transform="translate(109.324219 0)"/>
     <use xlink:href="#Arial-BoldMT-6c" transform="translate(170.408203 0)"/>
     <use xlink:href="#Arial-BoldMT-65" transform="translate(198.191406 0)"/>
     <use xlink:href="#Arial-BoldMT-20" transform="translate(253.806641 0)"/>
     <use xlink:href="#Arial-BoldMT-32" transform="translate(281.589844 0)"/>
     <use xlink:href="#Arial-BoldMT-20" transform="translate(337.205078 0)"/>
     <use xlink:href="#Arial-BoldMT-2014" transform="translate(364.988281 0)"/>
     <use xlink:href="#Arial-BoldMT-20" transform="translate(464.988281 0)"/>
     <use xlink:href="#Arial-BoldMT-46" transform="translate(492.771484 0)"/>
     <use xlink:href="#Arial-BoldMT-65" transform="translate(553.855469 0)"/>
     <use xlink:href="#Arial-BoldMT-61" transform="translate(609.470703 0)"/>
     <use xlink:href="#Arial-BoldMT-74" transform="translate(665.085938 0)"/>
     <use xlink:href="#Arial-BoldMT-75" transform="translate(698.386719 0)"/>
     <use xlink:href="#Arial-BoldMT-72" transform="translate(759.470703 0)"/>
     <use xlink:href="#Arial-BoldMT-65" transform="translate(798.386719 0)"/>
     <use xlink:href="#Arial-BoldMT-20" transform="translate(854.001953 0)"/>
     <use xlink:href="#Arial-BoldMT-47" transform="translate(881.785156 0)"/>
     <use xlink:href="#Arial-BoldMT-72" transform="translate(959.568359 0)"/>
     <use xlink:href="#Arial-BoldMT-6f" transform="translate(998.484375 0)"/>
     <use xlink:href="#Arial-BoldMT-75" transform="translate(1059.568359 0)"/>
     <use xlink:href="#Arial-BoldMT-70" transform="translate(1120.652344 0)"/>
     <use xlink:href="#Arial-BoldMT-73" transform="translate(1181.736328 0)"/>
    </g>
   </g>
  </g>
 </g>
</svg>
